<svg width="20" height="20" viewBox="0 0 20 20" fill="none" xmlns="http://www.w3.org/2000/svg">
<path d="M12.005 10.9728C9.25523 10.9728 7.01776 8.73589 7.01776 5.98638C7.01776 3.23687 9.25523 1 12.005 1C14.7545 1 16.9919 3.23687 16.9919 5.9864C16.9919 8.73594 14.7545 10.9728 12.005 10.9728V10.9728ZM12.005 1.95229C9.77927 1.95229 7.97014 3.76086 7.97014 5.9864C7.97014 8.21086 9.77923 10.0205 12.005 10.0205C14.229 10.0205 16.0396 8.21086 16.0396 5.9864C16.0395 3.76084 14.229 1.95229 12.005 1.95229ZM19.5234 18.5C19.2602 18.5 19.0476 18.2867 19.0476 18.0235C19.0476 16.1476 18.317 14.3816 16.9919 13.0516C16.8062 12.866 16.8062 12.5645 16.9919 12.3789C17.1794 12.1929 17.4802 12.1929 17.6658 12.3803C19.1716 13.8888 20 15.8936 20 18.0235C20 18.2867 19.7867 18.5 19.5234 18.5ZM11.9692 10.9809C8.12142 10.9824 4.96277 14.1418 4.96277 18.0235C4.96277 18.2867 4.74949 18.5 4.48624 18.5C4.22298 18.5 4.01039 18.2867 4.01039 18.0235C4.01039 13.6164 7.59598 10.03 12.005 10.03C12.0199 10.03 12.0408 10.0311 12.0557 10.0322C12.3086 10.0555 12.5039 10.2735 12.4918 10.5289C12.4805 10.7978 12.2371 11.0078 11.9692 10.9809ZM6.49163 2.96903C4.76329 2.96903 3.35811 4.46973 3.35811 6.31515C3.35811 8.16127 4.76329 9.66301 6.49163 9.66301C6.75453 9.66301 6.9671 9.87521 6.9671 10.1381C6.9671 10.4013 6.75453 10.6153 6.49163 10.6153C4.23785 10.6153 2.4061 8.68662 2.4061 6.31515C2.4061 3.9454 4.23785 2.01674 6.49161 2.01674C6.75453 2.01674 6.9671 2.22932 6.9671 2.49252C6.9671 2.75573 6.75453 2.96903 6.49163 2.96903ZM6.49163 10.6185C3.43713 10.6185 0.952362 13.2628 0.952362 16.5136C0.952362 16.7768 0.739079 16.9901 0.475826 16.9901C0.212574 16.9901 0 16.7768 0 16.5136C0 12.7381 2.91169 9.6662 6.49163 9.6662C6.75453 9.6662 6.9671 9.87878 6.9671 10.142C6.9671 10.4052 6.75453 10.6185 6.49163 10.6185Z" fill="#08080A"/>
</svg>
