<svg width="20" height="20" viewBox="0 0 20 20" fill="none" xmlns="http://www.w3.org/2000/svg">
<g clip-path="url(#clip0_43946_55)">
<path d="M15.0028 14.2761C14.9503 14.2762 14.8982 14.2658 14.8496 14.2457C14.801 14.2255 14.7569 14.196 14.7197 14.1587L13.5068 12.9451C13.4317 12.87 13.3896 12.7681 13.3896 12.6618C13.3896 12.5556 13.4317 12.4537 13.5068 12.3786C13.5819 12.3034 13.6837 12.2612 13.7899 12.2612C13.8961 12.2612 13.998 12.3034 14.073 12.3786L15.286 13.5922C15.3421 13.6481 15.3804 13.7195 15.396 13.7973C15.4115 13.8751 15.4037 13.9557 15.3733 14.029C15.343 14.1023 15.2916 14.1649 15.2256 14.2089C15.1597 14.2529 15.0821 14.2763 15.0028 14.2761ZM13.8704 15.4092C13.8178 15.4092 13.7657 15.3989 13.7172 15.3787C13.6686 15.3586 13.6244 15.329 13.5873 15.2918L12.3744 14.0782C12.2993 14.003 12.2571 13.9012 12.2571 13.7949C12.2571 13.6887 12.2993 13.5868 12.3744 13.5116C12.4495 13.4365 12.5513 13.3943 12.6575 13.3943C12.7637 13.3943 12.8655 13.4365 12.9406 13.5116L14.1535 14.7252C14.2097 14.7812 14.248 14.8526 14.2636 14.9304C14.2791 15.0082 14.2712 15.0888 14.2409 15.1621C14.2106 15.2354 14.1591 15.298 14.0932 15.342C14.0272 15.386 13.9497 15.4094 13.8704 15.4092ZM7.62002 13.595C7.61962 13.595 7.61962 13.595 7.62002 13.595C5.72636 13.595 3.9224 12.7039 2.79477 11.2114C1.63832 9.68091 1.30515 7.72368 1.88138 5.84217C2.45801 3.95826 3.8307 2.52228 5.64748 1.90166C6.25647 1.69283 6.89577 1.58615 7.53953 1.58594C10.8219 1.58594 13.5953 4.33528 13.5953 7.59026C13.5953 10.1224 11.9239 12.4619 9.5305 13.2793C8.91539 13.489 8.26988 13.5957 7.62002 13.595ZM7.53913 2.38726C6.98493 2.38726 6.43553 2.47901 5.90576 2.65971C4.33485 3.1962 3.14716 4.44186 2.64661 6.07656C2.14647 7.70965 2.43318 9.40486 3.43307 10.7282C4.41013 12.0216 5.97503 12.7937 7.61922 12.7937C8.18544 12.7937 8.74124 12.7019 9.27142 12.5208C11.3457 11.8124 12.7944 9.78508 12.7944 7.59026C12.7944 4.7696 10.3878 2.38726 7.53913 2.38726ZM2.45921 19.2643C1.37403 19.2643 0.457031 18.3468 0.457031 17.261C0.457031 16.1752 1.37403 15.2577 2.45921 15.2577C3.54439 15.2577 4.46139 16.1752 4.46139 17.261C4.46139 18.3468 3.54479 19.2643 2.45921 19.2643ZM2.45921 16.059C1.8081 16.059 1.2579 16.6096 1.2579 17.261C1.2579 17.9125 1.8081 18.463 2.45921 18.463C3.11032 18.463 3.66052 17.9125 3.66052 17.261C3.66052 16.6096 3.11032 16.059 2.45921 16.059Z" fill="#08080A"/>
<path d="M3.20829 16.2417C3.13929 16.2415 3.07153 16.2235 3.01153 16.1894C2.95154 16.1553 2.90135 16.1063 2.8658 16.0471C2.83026 15.9879 2.81056 15.9206 2.80862 15.8516C2.80667 15.7826 2.82254 15.7143 2.8547 15.6532L3.85419 13.7685C3.87882 13.722 3.91237 13.6808 3.95291 13.6473C3.99345 13.6138 4.04019 13.5886 4.09047 13.5731C4.14074 13.5577 4.19356 13.5523 4.24591 13.5573C4.29826 13.5623 4.34912 13.5775 4.39558 13.6022C4.44204 13.6268 4.48319 13.6604 4.51668 13.701C4.55018 13.7415 4.57536 13.7883 4.59079 13.8386C4.60622 13.8889 4.6116 13.9417 4.60662 13.9941C4.60164 14.0465 4.58639 14.0974 4.56176 14.1439L3.56227 16.0286C3.52831 16.093 3.47737 16.147 3.41498 16.1845C3.35258 16.2221 3.28111 16.2419 3.20829 16.2417ZM2.34575 3.03433C2.23984 3.03339 2.13853 2.99087 2.06364 2.91594C1.98874 2.841 1.94625 2.73964 1.94531 2.63367C1.94531 2.52949 1.98936 2.42532 2.06544 2.3492C2.2136 2.20095 2.4819 2.20095 2.63006 2.3492C2.70614 2.42532 2.74618 2.52949 2.74618 2.63367C2.74618 2.73784 2.70614 2.84201 2.63006 2.91814C2.55798 2.99026 2.45387 3.03433 2.34575 3.03433ZM13.6889 11.8253C13.6174 11.8251 13.5472 11.8058 13.4857 11.7694C13.4241 11.733 13.3735 11.6807 13.3389 11.6181C13.3044 11.5555 13.2873 11.4847 13.2893 11.4132C13.2913 11.3417 13.3125 11.272 13.3505 11.2114C14.9142 8.72333 14.6808 5.42107 12.7827 3.18137C10.5743 0.575065 6.624 0.0265593 3.79012 1.93291C3.70197 1.9922 3.59389 2.01403 3.48966 1.99359C3.38543 1.97316 3.29357 1.91213 3.23431 1.82393C3.17505 1.73573 3.15324 1.62759 3.17366 1.5233C3.19409 1.41901 3.25508 1.3271 3.34323 1.26781C6.51148 -0.862109 10.9255 -0.249497 13.3934 2.66332C15.5145 5.16665 15.776 8.85715 14.0285 11.6377C13.9924 11.6953 13.9423 11.7427 13.8829 11.7755C13.8235 11.8083 13.7567 11.8254 13.6889 11.8253ZM17.9988 20C17.7361 20.0016 17.4758 19.9511 17.2327 19.8515C16.9897 19.7518 16.7688 19.605 16.5828 19.4194C16.5078 19.3441 16.4657 19.2422 16.4657 19.1359C16.4657 19.0297 16.5078 18.9277 16.5828 18.8525C16.658 18.7774 16.7599 18.7353 16.8661 18.7353C16.9724 18.7353 17.0742 18.7774 17.1494 18.8525C17.5947 19.2988 18.4024 19.2988 18.8477 18.8525C19.0711 18.6293 19.1937 18.3276 19.1937 18.0027C19.1937 17.6777 19.0711 17.376 18.8481 17.1529C18.8109 17.1156 18.7814 17.0714 18.7612 17.0228C18.7411 16.9742 18.7307 16.922 18.7307 16.8694C18.7307 16.8167 18.7411 16.7646 18.7612 16.716C18.7814 16.6673 18.8109 16.6231 18.8481 16.5859C18.8853 16.5487 18.9295 16.5192 18.9781 16.499C19.0267 16.4789 19.0788 16.4685 19.1314 16.4685C19.184 16.4685 19.2361 16.4789 19.2847 16.499C19.3333 16.5192 19.3775 16.5487 19.4147 16.5859C19.7891 16.9605 19.9949 17.4634 19.9949 18.0027C19.9949 18.5419 19.7887 19.0448 19.4147 19.4194C19.2288 19.6051 19.0079 19.752 18.7649 19.8516C18.5218 19.9513 18.2614 20.0017 17.9988 20ZM15.5681 18.2394C15.4622 18.2385 15.3609 18.196 15.286 18.1211C15.2111 18.0461 15.1686 17.9448 15.1677 17.8388C15.1677 17.7306 15.2117 17.6264 15.2838 17.5543C15.432 17.4061 15.7043 17.4061 15.8524 17.5543C15.9245 17.6304 15.9686 17.7346 15.9686 17.8388C15.9686 17.943 15.9245 18.0431 15.8524 18.1192C15.7764 18.1954 15.6722 18.2394 15.5681 18.2394Z" fill="#08080A"/>
<path d="M16.8662 19.5196C16.7637 19.5196 16.6615 19.4804 16.5831 19.4026L16.4169 19.2368C16.3786 19.1998 16.3481 19.1556 16.3271 19.1068C16.306 19.0579 16.295 19.0053 16.2945 18.9521C16.294 18.8989 16.304 18.8462 16.3241 18.7969C16.3442 18.7477 16.3739 18.7029 16.4115 18.6653C16.4491 18.6276 16.4938 18.5978 16.543 18.5777C16.5922 18.5575 16.6449 18.5473 16.6981 18.5477C16.7512 18.5482 16.8038 18.5592 16.8527 18.5801C16.9015 18.6011 16.9457 18.6316 16.9827 18.6698L17.1489 18.8357C17.2048 18.8917 17.243 18.9631 17.2584 19.0407C17.2739 19.1184 17.266 19.1989 17.2357 19.2721C17.2055 19.3453 17.1542 19.4079 17.0884 19.4519C17.0227 19.496 16.9453 19.5195 16.8662 19.5196ZM13.8689 16.5207C13.8163 16.5207 13.7642 16.5104 13.7157 16.4902C13.6671 16.4701 13.6229 16.4405 13.5858 16.4033C13.3608 16.1777 13.2344 15.872 13.2344 15.5533C13.2344 15.2346 13.3608 14.9288 13.5858 14.7033C13.6609 14.6281 13.7627 14.5859 13.8689 14.5859C13.9751 14.5859 14.0769 14.6281 14.152 14.7033C14.2271 14.7784 14.2693 14.8803 14.2693 14.9865C14.2693 15.0928 14.2271 15.1947 14.152 15.2698C14.0763 15.3455 14.0347 15.4461 14.0347 15.5531C14.0347 15.6601 14.0763 15.761 14.152 15.8367C14.2082 15.8927 14.2465 15.9641 14.2621 16.0419C14.2776 16.1196 14.2697 16.2003 14.2394 16.2736C14.2091 16.3469 14.1576 16.4095 14.0917 16.4535C14.0257 16.4975 13.9482 16.5208 13.8689 16.5207Z" fill="#08080A"/>
<path d="M14.4353 17.1028C14.3827 17.1028 14.3307 17.0925 14.2821 17.0723C14.2335 17.0522 14.1894 17.0226 14.1522 16.9854L13.586 16.4188C13.5109 16.3437 13.4688 16.2418 13.4688 16.1356C13.4688 16.0293 13.5109 15.9274 13.586 15.8523C13.6611 15.7772 13.7629 15.735 13.8691 15.735C13.9753 15.735 14.0771 15.7772 14.1522 15.8523L14.7184 16.4188C14.7746 16.4748 14.8129 16.5462 14.8285 16.624C14.844 16.7018 14.8361 16.7824 14.8058 16.8557C14.7755 16.929 14.7241 16.9916 14.6581 17.0356C14.5921 17.0796 14.5146 17.103 14.4353 17.1028ZM16.134 14.2701C16.0814 14.2702 16.0293 14.2598 15.9807 14.2397C15.9321 14.2195 15.888 14.19 15.8509 14.1527C15.7745 14.0799 15.6731 14.0393 15.5676 14.0393C15.4621 14.0393 15.3607 14.0799 15.2843 14.1527C15.2092 14.2278 15.1073 14.27 15.0012 14.27C14.895 14.27 14.7931 14.2278 14.718 14.1527C14.643 14.0776 14.6008 13.9757 14.6008 13.8694C14.6008 13.7632 14.643 13.6613 14.718 13.5862C14.9434 13.3609 15.249 13.2344 15.5676 13.2344C15.8861 13.2344 16.1917 13.3609 16.4171 13.5862C16.4733 13.6421 16.5116 13.7135 16.5271 13.7913C16.5427 13.8691 16.5348 13.9497 16.5045 14.023C16.4741 14.0963 16.4227 14.1589 16.3568 14.2029C16.2908 14.2469 16.2133 14.2703 16.134 14.2701Z" fill="#08080A"/>
<path d="M19.123 17.2699C19.0704 17.27 19.0183 17.2596 18.9697 17.2395C18.9211 17.2193 18.877 17.1898 18.8399 17.1525L15.8426 14.1536C15.8054 14.1164 15.7759 14.0722 15.7558 14.0236C15.7357 13.975 15.7253 13.9229 15.7253 13.8703C15.7253 13.8177 15.7357 13.7656 15.7558 13.717C15.7759 13.6684 15.8054 13.6242 15.8426 13.587C15.8798 13.5498 15.9239 13.5203 15.9725 13.5002C16.0211 13.4801 16.0731 13.4697 16.1257 13.4697C16.1783 13.4697 16.2304 13.4801 16.2789 13.5002C16.3275 13.5203 16.3717 13.5498 16.4088 13.587L19.4061 16.586C19.4623 16.6419 19.5006 16.7133 19.5161 16.7911C19.5317 16.8689 19.5238 16.9495 19.4935 17.0228C19.4631 17.0961 19.4117 17.1587 19.3458 17.2027C19.2798 17.2467 19.2023 17.2701 19.123 17.2699ZM13.8609 15.404C13.7816 15.4042 13.7041 15.3808 13.6381 15.3368C13.5721 15.2928 13.5207 15.2302 13.4904 15.1569C13.4601 15.0837 13.4522 15.003 13.4677 14.9252C13.4833 14.8475 13.5216 14.7761 13.5778 14.7201L14.7102 13.587C14.7474 13.5498 14.7915 13.5203 14.8401 13.5002C14.8887 13.4801 14.9407 13.4697 14.9933 13.4697C15.0459 13.4697 15.0979 13.4801 15.1465 13.5002C15.1951 13.5203 15.2392 13.5498 15.2764 13.587C15.3136 13.6242 15.3431 13.6684 15.3632 13.717C15.3833 13.7656 15.3937 13.8177 15.3937 13.8703C15.3937 13.9229 15.3833 13.975 15.3632 14.0236C15.3431 14.0722 15.3136 14.1164 15.2764 14.1536L14.144 15.2866C14.0689 15.3618 13.9671 15.404 13.8609 15.404ZM13.7772 11.9207C13.7245 11.9207 13.6724 11.9104 13.6237 11.8902C13.5751 11.8701 13.5309 11.8405 13.4937 11.8033L13.398 11.7071C13.3265 11.6312 13.2875 11.5303 13.2891 11.4261C13.2907 11.3218 13.3329 11.2222 13.4067 11.1485C13.4804 11.0748 13.58 11.0328 13.6842 11.0313C13.7884 11.0298 13.8892 11.069 13.965 11.1406L14.0607 11.2368C14.1163 11.293 14.1541 11.3644 14.1693 11.442C14.1845 11.5196 14.1765 11.6 14.1462 11.673C14.1159 11.7461 14.0647 11.8086 13.9991 11.8526C13.9334 11.8967 13.8562 11.9204 13.7772 11.9207Z" fill="#08080A"/>
<path d="M13.8464 13.001C13.7709 13.0012 13.697 12.9799 13.6331 12.9398C13.5691 12.8997 13.5179 12.8423 13.4852 12.7742C13.4525 12.7062 13.4397 12.6303 13.4482 12.5553C13.4568 12.4803 13.4864 12.4093 13.5336 12.3504C13.5951 12.2733 13.6261 12.1763 13.6206 12.0779C13.6151 11.9794 13.5736 11.8864 13.504 11.8167C13.4668 11.7795 13.4373 11.7353 13.4172 11.6867C13.3971 11.6381 13.3867 11.586 13.3867 11.5334C13.3867 11.4808 13.3971 11.4287 13.4172 11.3801C13.4373 11.3315 13.4668 11.2873 13.504 11.2501C13.5412 11.2129 13.5853 11.1834 13.6339 11.1633C13.6825 11.1432 13.7345 11.1328 13.7871 11.1328C13.8397 11.1328 13.8917 11.1432 13.9403 11.1633C13.9889 11.1834 14.033 11.2129 14.0702 11.2501C14.2794 11.4591 14.4041 11.7379 14.4206 12.0332C14.4371 12.3285 14.3441 12.6194 14.1595 12.8504C14.1221 12.8975 14.0744 12.9356 14.0202 12.9617C13.966 12.9878 13.9065 13.0012 13.8464 13.001Z" fill="#08080A"/>
<path d="M12.5827 14.2476C12.4997 14.2476 12.4187 14.2218 12.351 14.1738C12.2832 14.1258 12.2321 14.0579 12.2046 13.9796C12.1771 13.9012 12.1747 13.8162 12.1976 13.7364C12.2204 13.6566 12.2676 13.5859 12.3324 13.534C12.7738 13.1808 13.1747 12.7797 13.5277 12.338C13.5605 12.2969 13.6011 12.2627 13.6471 12.2373C13.6931 12.2119 13.7437 12.1958 13.796 12.19C13.8482 12.1841 13.9011 12.1886 13.9516 12.2033C14.0021 12.2179 14.0492 12.2423 14.0903 12.2751C14.1314 12.3079 14.1656 12.3485 14.191 12.3946C14.2163 12.4407 14.2324 12.4913 14.2382 12.5435C14.2441 12.5958 14.2396 12.6487 14.225 12.6993C14.2104 12.7498 14.186 12.7969 14.1532 12.838C13.7631 13.3265 13.3199 13.7699 12.8317 14.1602C12.7611 14.217 12.6732 14.2478 12.5827 14.2476ZM11.5163 14.1883C11.4637 14.1884 11.4117 14.1781 11.3631 14.158C11.3145 14.1379 11.2704 14.1085 11.2332 14.0713L11.1371 13.9755C11.0999 13.9383 11.0703 13.8941 11.0501 13.8455C11.03 13.7969 11.0196 13.7448 11.0195 13.6921C11.0195 13.6395 11.0298 13.5874 11.0499 13.5387C11.07 13.4901 11.0995 13.4458 11.1367 13.4086C11.1739 13.3713 11.218 13.3418 11.2666 13.3216C11.3152 13.3014 11.3673 13.291 11.4199 13.291C11.4725 13.2909 11.5246 13.3013 11.5733 13.3214C11.6219 13.3415 11.6661 13.371 11.7033 13.4082L11.7994 13.5039C11.8555 13.56 11.8938 13.6314 11.9093 13.7091C11.9248 13.7869 11.9169 13.8676 11.8866 13.9408C11.8563 14.0141 11.8049 14.0768 11.739 14.1208C11.6731 14.1649 11.5956 14.1883 11.5163 14.1883Z" fill="#08080A"/>
<path d="M12.0819 14.4082C11.924 14.4082 11.7677 14.3771 11.6219 14.3166C11.4761 14.2561 11.3436 14.1674 11.2321 14.0556C11.195 14.0184 11.1655 13.9742 11.1454 13.9256C11.1252 13.877 11.1149 13.8249 11.1149 13.7723C11.1149 13.7197 11.1252 13.6676 11.1454 13.619C11.1655 13.5704 11.195 13.5263 11.2321 13.4891C11.2693 13.4519 11.3135 13.4223 11.362 13.4022C11.4106 13.3821 11.4627 13.3717 11.5152 13.3717C11.5678 13.3717 11.6199 13.3821 11.6685 13.4022C11.717 13.4223 11.7612 13.4519 11.7984 13.4891C11.868 13.5588 11.961 13.6004 12.0594 13.6059C12.1578 13.6113 12.2548 13.5803 12.3317 13.5187C12.3726 13.4843 12.42 13.4583 12.471 13.4425C12.5221 13.4267 12.5758 13.4212 12.629 13.4265C12.6822 13.4317 12.7338 13.4476 12.7808 13.4731C12.8278 13.4986 12.8691 13.5333 12.9025 13.5751C12.9359 13.6169 12.9605 13.6649 12.9751 13.7164C12.9896 13.7679 12.9936 13.8217 12.987 13.8748C12.9804 13.9279 12.9632 13.9791 12.9365 14.0254C12.9098 14.0717 12.8741 14.1122 12.8315 14.1445C12.619 14.3154 12.3545 14.4084 12.0819 14.4082ZM4.95452 12.9265C4.88552 12.9263 4.81776 12.9082 4.75776 12.8741C4.69777 12.8401 4.64758 12.7911 4.61203 12.7319C4.57649 12.6727 4.55679 12.6054 4.55485 12.5364C4.5529 12.4674 4.56877 12.399 4.60093 12.3379L6.47817 8.7989C6.52793 8.70502 6.61292 8.63476 6.71445 8.60358C6.81598 8.57239 6.92573 8.58284 7.01956 8.63263C7.11339 8.68241 7.18361 8.76745 7.21478 8.86904C7.24594 8.97063 7.2355 9.08044 7.18574 9.17432L5.3085 12.7134C5.27447 12.7778 5.22352 12.8316 5.16114 12.8692C5.09876 12.9068 5.02732 12.9266 4.95452 12.9265Z" fill="#08080A"/>
<path d="M7.58811 9.58107C6.50293 9.58107 5.58594 8.66355 5.58594 7.57776C5.58594 6.49196 6.50293 5.57445 7.58811 5.57445C8.67329 5.57445 9.59029 6.49196 9.59029 7.57776C9.59029 8.66355 8.67329 9.58107 7.58811 9.58107ZM7.58811 6.37577C6.93701 6.37577 6.38681 6.92628 6.38681 7.57776C6.38681 8.22923 6.93701 8.77974 7.58811 8.77974C8.23922 8.77974 8.78942 8.22923 8.78942 7.57776C8.78942 6.92628 8.23922 6.37577 7.58811 6.37577ZM17.9994 7.10818C16.9143 7.10818 15.9973 6.19067 15.9973 5.10487C15.9973 4.01908 16.9143 3.10156 17.9994 3.10156C19.0846 3.10156 20.0016 4.01908 20.0016 5.10487C20.0016 6.19067 19.0846 7.10818 17.9994 7.10818ZM17.9994 3.90289C17.3483 3.90289 16.7981 4.4534 16.7981 5.10487C16.7981 5.75635 17.3483 6.30686 17.9994 6.30686C18.6505 6.30686 19.2007 5.75635 19.2007 5.10487C19.2007 4.4534 18.6505 3.90289 17.9994 3.90289Z" fill="#08080A"/>
<path d="M9.14414 7.62843C9.04602 7.62835 8.95135 7.59223 8.87809 7.52693C8.80483 7.46162 8.75808 7.37167 8.74672 7.27416C8.73536 7.17665 8.76017 7.07836 8.81645 6.99794C8.87274 6.91753 8.95657 6.86058 9.05204 6.83793L12.9483 5.9124C13.0516 5.88785 13.1605 5.90538 13.2509 5.96113C13.3413 6.01689 13.4059 6.10629 13.4304 6.20969C13.4549 6.31308 13.4374 6.42199 13.3817 6.51246C13.326 6.60292 13.2366 6.66754 13.1333 6.69208L9.23704 7.61761C9.20658 7.62472 9.17541 7.62835 9.14414 7.62843ZM7.60126 15.2021C5.41368 15.2021 3.25053 14.2682 1.76451 12.5025C-0.282513 10.0697 -0.580837 6.4581 1.03932 3.71997C1.09343 3.62853 1.18163 3.56235 1.28451 3.53597C1.3874 3.5096 1.49653 3.5252 1.58792 3.57934C1.67931 3.63348 1.74546 3.72173 1.77182 3.82467C1.79817 3.92761 1.78258 4.03681 1.72847 4.12825C0.278497 6.5783 0.545187 9.80963 2.37718 11.9864C4.51671 14.529 8.39652 15.1344 11.2096 13.3643C11.2993 13.3131 11.4054 13.2986 11.5056 13.3237C11.6058 13.3488 11.6924 13.4117 11.7474 13.4992C11.8024 13.5867 11.8215 13.692 11.8008 13.7933C11.78 13.8945 11.721 13.9839 11.636 14.0426C10.4273 14.8021 9.02857 15.2041 7.60126 15.2021ZM14.5985 6.33309C14.5003 6.33301 14.4057 6.29689 14.3324 6.23159C14.2592 6.16628 14.2124 6.07633 14.201 5.97882C14.1897 5.88131 14.2145 5.78302 14.2708 5.7026C14.3271 5.62219 14.4109 5.56524 14.5064 5.54259L16.3464 5.10546C16.4478 5.08601 16.5528 5.10647 16.6395 5.1626C16.7263 5.21872 16.788 5.30617 16.8118 5.40671C16.8357 5.50725 16.8198 5.61313 16.7676 5.70226C16.7153 5.7914 16.6307 5.85691 16.5314 5.88515L14.6914 6.32227C14.6609 6.32943 14.6297 6.33306 14.5985 6.33309Z" fill="#08080A"/>
</g>
<defs>
<clipPath id="clip0_43946_55">
<rect width="20" height="20" fill="white"/>
</clipPath>
</defs>
</svg>
