<svg width="20" height="20" viewBox="0 0 20 20" fill="none" xmlns="http://www.w3.org/2000/svg">
<g clip-path="url(#clip0_43946_83)">
<path d="M7.89216 13.6875H1.57843C0.705033 13.6875 0 14.3926 0 15.266V18.4231C0 19.2965 0.705033 20.0016 1.57843 20.0016H7.89216C8.76556 20.0016 9.47059 19.2965 9.47059 18.4231V15.266C9.47059 14.3926 8.76556 13.6875 7.89216 13.6875ZM8.4183 18.4231C8.4183 18.7177 8.1868 18.9493 7.89216 18.9493H1.57843C1.28379 18.9493 1.05229 18.7177 1.05229 18.4231V15.266C1.05229 14.9714 1.28379 14.7399 1.57843 14.7399H7.89216C8.1868 14.7399 8.4183 14.9714 8.4183 15.266V18.4231Z" fill="#08080A"/>
<path d="M7.89216 0H1.57843C0.705033 0 0 0.705192 0 1.57879V11.0515C0 11.9251 0.705033 12.6303 1.57843 12.6303H7.89216C8.76556 12.6303 9.47059 11.9251 9.47059 11.0515V1.57879C9.47059 0.705192 8.76556 0 7.89216 0ZM8.4183 11.0515C8.4183 11.3462 8.1868 11.5778 7.89216 11.5778H1.57843C1.28379 11.5778 1.05229 11.3462 1.05229 11.0515V1.57879C1.05229 1.28408 1.28379 1.05253 1.57843 1.05253H7.89216C8.1868 1.05253 8.4183 1.28408 8.4183 1.57879V11.0515Z" fill="#08080A"/>
<path d="M18.4234 0H12.1097C11.2363 0 10.5312 0.705193 10.5312 1.57879V4.73637C10.5312 5.60996 11.2363 6.31516 12.1097 6.31516H18.4234C19.2968 6.31516 20.0018 5.60996 20.0018 4.73637V1.57879C20.0018 0.705193 19.2968 0 18.4234 0ZM18.9496 4.73637C18.9496 5.03108 18.718 5.26263 18.4234 5.26263H12.1097C11.815 5.26263 11.5835 5.03108 11.5835 4.73637V1.57879C11.5835 1.28408 11.815 1.05253 12.1097 1.05253H18.4234C18.718 1.05253 18.9496 1.28408 18.9496 1.57879V4.73637ZM18.4234 7.36768H12.1097C11.2363 7.36768 10.5312 8.07288 10.5312 8.94647V18.4192C10.5312 19.2928 11.2363 19.998 12.1097 19.998H18.4234C19.2968 19.998 20.0018 19.2928 20.0018 18.4192V8.94647C20.0018 8.07288 19.2968 7.36768 18.4234 7.36768ZM18.9496 18.4192C18.9496 18.7139 18.718 18.9455 18.4234 18.9455H12.1097C11.815 18.9455 11.5835 18.7139 11.5835 18.4192V8.94647C11.5835 8.65176 11.815 8.42021 12.1097 8.42021H18.4234C18.718 8.42021 18.9496 8.65176 18.9496 8.94647V18.4192Z" fill="#08080A"/>
</g>
<defs>
<clipPath id="clip0_43946_83">
<rect width="20" height="20" fill="white"/>
</clipPath>
</defs>
</svg>
