<svg width="20" height="20" viewBox="0 0 20 20" fill="none" xmlns="http://www.w3.org/2000/svg">
<path d="M18.663 7.87493C18.6603 7.87149 18.6567 7.87012 18.654 7.86669C17.8873 6.50527 16.8299 5.34131 15.562 4.46289L15.5603 4.46083C15.5577 4.45877 15.5543 4.45842 15.5517 4.45602C13.9099 3.32141 11.9771 2.71658 10 2.71876C8.02054 2.7167 6.08553 3.32315 4.44267 4.46048H4.44033C3.16809 5.34155 2.10784 6.51005 1.34034 7.87699H1.33834C1.33628 7.88176 1.33461 7.8867 1.33334 7.89175C0.458756 9.45018 -0.00116523 11.2187 2.21702e-06 13.0187C2.21702e-06 13.1098 0.0351211 13.1971 0.0976333 13.2615C0.160145 13.3259 0.24493 13.3621 0.333335 13.3621H4.138C4.22641 13.3621 4.31119 13.3259 4.3737 13.2615C4.43622 13.1971 4.47133 13.1098 4.47133 13.0187C4.47022 11.8972 4.79095 10.8004 5.39322 9.86601C5.99549 8.93167 6.85244 8.20151 7.85638 7.76728C8.86032 7.33305 9.96647 7.21413 11.0358 7.42546C12.1052 7.63679 13.09 8.16895 13.8667 8.95505L10.8377 12.0128C10.6062 11.8563 10.3379 11.7673 10.0612 11.7552C9.7846 11.7431 9.50995 11.8084 9.26644 11.9442C9.02294 12.08 8.81966 12.2811 8.67821 12.5263C8.53675 12.7714 8.46238 13.0515 8.463 13.3367C8.463 13.7565 8.62493 14.1592 8.91318 14.4561C9.20142 14.753 9.59236 14.9198 10 14.9198C10.4076 14.9198 10.7986 14.753 11.0868 14.4561C11.3751 14.1592 11.537 13.7565 11.537 13.3367C11.5365 13.0424 11.4556 12.7543 11.3037 12.5051L14.3133 9.46525C15.1003 10.4722 15.5292 11.7261 15.5287 13.0187C15.5287 13.1098 15.5638 13.1971 15.6263 13.2615C15.6888 13.3259 15.7736 13.3621 15.862 13.3621H19.6667C19.7551 13.3621 19.8399 13.3259 19.9024 13.2615C19.9649 13.1971 20 13.1098 20 13.0187C20.0014 11.2343 19.5497 9.48059 18.6897 7.93158C18.6827 7.91179 18.6738 7.8928 18.663 7.87493ZM10.3333 6.65369V3.41332C11.929 3.47004 13.4835 3.95031 14.846 4.80759L12.804 7.33178C12.0357 6.92997 11.1939 6.69895 10.3333 6.65369ZM7.196 7.33178L5.154 4.80725C6.51652 3.94994 8.07097 3.46978 9.66667 3.41332V6.65369C8.80617 6.69884 7.96452 6.92987 7.19633 7.33178H7.196ZM3.81333 12.6754H0.672669C0.720417 11.2571 1.07456 9.86755 1.70934 8.60794L4.262 10.6309C4.00307 11.2819 3.85143 11.9729 3.81333 12.6754ZM4.55267 9.99501L2.042 8.00608C2.70112 6.90104 3.56908 5.94365 4.59433 5.19075L6.61067 7.68335C5.74986 8.26674 5.04279 9.06072 4.55267 9.99432V9.99501ZM10 14.2331C9.82786 14.2331 9.65959 14.1805 9.51647 14.082C9.37334 13.9835 9.26179 13.8435 9.19592 13.6797C9.13004 13.5159 9.11281 13.3357 9.14639 13.1618C9.17997 12.9879 9.26286 12.8282 9.38458 12.7028C9.5063 12.5774 9.66138 12.492 9.83021 12.4574C9.99903 12.4229 10.174 12.4406 10.3331 12.5085C10.4921 12.5763 10.628 12.6912 10.7237 12.8386C10.8193 12.986 10.8703 13.1594 10.8703 13.3367C10.87 13.5743 10.7782 13.8021 10.615 13.9701C10.4519 14.1382 10.2307 14.2327 10 14.2331ZM15.4387 7.84712C15.3768 7.78206 15.2924 7.74498 15.204 7.74401C15.1156 7.74305 15.0305 7.77828 14.9673 7.84197L14.3413 8.47404C14.0504 8.17749 13.7317 7.91126 13.39 7.67923L15.4063 5.18629C16.4307 5.93957 17.298 6.8969 17.9567 8.00162L15.4473 9.99295C15.2598 9.63557 15.0396 9.29745 14.7897 8.98321L15.4333 8.33431C15.4965 8.27065 15.5326 8.18375 15.5336 8.09271C15.5346 8.00167 15.5005 7.91394 15.4387 7.84883V7.84712ZM16.1867 12.6754C16.1485 11.9731 15.997 11.2822 15.7383 10.6312L18.2893 8.60554C18.925 9.86573 19.2796 11.2561 19.3273 12.6754H16.1867ZM13.7743 18.7181C14.0696 18.7177 14.3526 18.5967 14.5613 18.3817C14.77 18.1666 14.8874 17.8751 14.8877 17.571V16.9794C14.8873 16.6754 14.7699 16.3839 14.5612 16.169C14.3525 15.954 14.0695 15.8331 13.7743 15.8327H6.22567C5.9305 15.8331 5.64753 15.954 5.43881 16.169C5.2301 16.3839 5.11269 16.6754 5.11233 16.9794V17.5717C5.1126 17.8758 5.22997 18.1673 5.43869 18.3824C5.64742 18.5974 5.93044 18.7184 6.22567 18.7188L13.7743 18.7181ZM5.779 17.5717V16.9794C5.77909 16.8574 5.82618 16.7405 5.90992 16.6542C5.99367 16.568 6.10723 16.5195 6.22567 16.5194H13.7743C13.8928 16.5195 14.0063 16.568 14.0901 16.6542C14.1738 16.7405 14.2209 16.8574 14.221 16.9794V17.5717C14.2209 17.6937 14.1738 17.8107 14.0901 17.897C14.0064 17.9833 13.8928 18.0319 13.7743 18.0321H6.22567C6.1072 18.0319 5.99364 17.9833 5.9099 17.897C5.82617 17.8107 5.77909 17.6937 5.779 17.5717Z" fill="#08080A"/>
</svg>
