<svg width="20" height="20" viewBox="0 0 20 20" fill="none" xmlns="http://www.w3.org/2000/svg">
<path fill-rule="evenodd" clip-rule="evenodd" d="M12.7385 7.3029C12.1968 6.76952 11.5066 6.40629 10.7552 6.25913C10.0038 6.11198 9.22495 6.18751 8.51716 6.47618C7.80936 6.76485 7.2044 7.25369 6.77878 7.88088C6.35315 8.50807 6.12597 9.24545 6.12597 9.99977C6.12597 10.7541 6.35315 11.4915 6.77878 12.1187C7.2044 12.7459 7.80936 13.2347 8.51716 13.5234C9.22495 13.812 10.0038 13.8876 10.7552 13.7404C11.5066 13.5933 12.1968 13.23 12.7385 12.6966C13.4648 11.9813 13.8729 11.0113 13.8729 9.99977C13.8729 8.98828 13.4648 8.01821 12.7385 7.3029ZM9.99925 5.36177C10.931 5.36177 11.8418 5.63381 12.6164 6.14348C13.3911 6.65315 13.9949 7.37757 14.3514 8.22511C14.708 9.07266 14.8012 10.0053 14.6194 10.905C14.4376 11.8047 13.9889 12.6312 13.3301 13.2798C12.6712 13.9285 11.8318 14.3702 10.918 14.5491C10.0042 14.728 9.05701 14.6361 8.19624 14.285C7.33548 13.9339 6.59979 13.3393 6.08222 12.5765C5.56465 11.8137 5.28845 10.9169 5.28853 9.99956C5.28864 8.76951 5.785 7.58987 6.66842 6.72012C7.55184 5.85038 8.74997 5.36177 9.99925 5.36177ZM5.75749 1.63329C7.15904 1.25017 8.5145 0.719235 9.80033 0.0497117C9.86069 0.0175147 9.92817 0.000444642 9.99682 8.57027e-06C10.0655 -0.000427502 10.1332 0.0157838 10.1939 0.0472114C11.4809 0.718267 12.8378 1.25033 14.241 1.63412C15.6584 2.0196 17.1128 2.25857 18.5806 2.34715C18.6356 2.34687 18.6902 2.35732 18.7411 2.3779C18.792 2.39848 18.8383 2.42878 18.8773 2.46705C18.9163 2.50532 18.9472 2.55081 18.9683 2.60089C18.9893 2.65098 19.0001 2.70467 19 2.75888V7.86715C18.9691 11.0035 18.2225 13.5418 16.7458 15.5454C15.2691 17.549 13.0691 19.0072 10.1334 19.9786C10.0475 20.0071 9.95441 20.0071 9.86847 19.9786C6.93284 19.0072 4.73408 17.5503 3.2561 15.5454C1.78363 13.5501 1.03745 11.0243 1.00063 7.90633C0.999791 7.89245 0.999791 7.87853 1.00063 7.86465V2.75888C1.00065 2.65406 1.04132 2.55321 1.11432 2.47692C1.18731 2.40063 1.28714 2.35466 1.3934 2.3484C2.86947 2.26079 4.33216 2.02111 5.75749 1.63329ZM9.99925 0.873171C12.5535 2.17045 15.3034 2.91807 18.1632 3.14102V7.86424C18.1332 10.8197 17.4386 13.1984 16.0656 15.0624C14.7146 16.896 12.6966 18.2404 9.99756 19.1551C7.29852 18.2404 5.28049 16.8952 3.92949 15.0624C2.56283 13.2059 1.8687 10.8364 1.834 7.89508V3.14185C4.69514 2.9189 7.44497 2.17129 9.99925 0.873171ZM11.4997 8.41599C11.5751 8.33619 11.6796 8.28916 11.7903 8.28526C11.9009 8.28135 12.0086 8.32088 12.0897 8.39515C12.1707 8.46942 12.2185 8.57235 12.2224 8.6813C12.2264 8.79024 12.1863 8.89628 12.1108 8.97607L9.64457 11.5877C9.6036 11.6315 9.55345 11.6659 9.49761 11.6887C9.44176 11.7115 9.38156 11.722 9.32117 11.7196C9.26078 11.7172 9.20164 11.7018 9.14786 11.6747C9.09408 11.6475 9.04694 11.6092 9.00971 11.5623L7.88303 10.3329C7.84631 10.293 7.81795 10.2463 7.79956 10.1956C7.78117 10.1448 7.77312 10.091 7.77585 10.0372C7.77858 9.98341 7.79205 9.93066 7.81548 9.88197C7.83892 9.83329 7.87187 9.78963 7.91244 9.75348C7.95302 9.71734 8.00042 9.68941 8.05196 9.67131C8.10349 9.6532 8.15815 9.64527 8.2128 9.64795C8.26744 9.65064 8.32102 9.66391 8.37046 9.68698C8.41991 9.71006 8.46425 9.7425 8.50097 9.78245L9.34111 10.6963L11.4997 8.41599Z" fill="#08080A"/>
</svg>
