<svg width="20" height="20" viewBox="0 0 20 20" fill="none" xmlns="http://www.w3.org/2000/svg">
<g clip-path="url(#clip0_43946_35)">
<path d="M6.35429 7.79915C6.32813 7.74776 6.28906 7.70406 6.24091 7.67233C6.19276 7.64061 6.13719 7.62194 6.07965 7.61817L3.27554 7.43118C3.13022 7.41685 2.99589 7.50685 2.94288 7.64216L0.921378 12.8084C0.894939 12.8759 0.891245 12.9502 0.910858 13.02C0.930471 13.0898 0.97232 13.1512 1.03005 13.1951C1.08799 13.2392 1.15884 13.2631 1.23169 13.2631C1.302 13.2631 1.37235 13.2411 1.43169 13.1964L3.10956 11.9382L4.0865 12.1335C4.16374 12.149 4.24394 12.1366 4.31289 12.0985C4.38184 12.0604 4.43507 11.9991 4.46314 11.9256C4.98778 10.5513 5.61938 9.27343 6.33965 8.12786C6.37031 8.07901 6.38778 8.02305 6.39035 7.96544C6.39292 7.90782 6.3805 7.85053 6.35429 7.79915ZM3.94248 11.4249L3.0939 11.2552C3.04791 11.2462 3.00055 11.2469 2.95486 11.2573C2.90916 11.2677 2.86615 11.2875 2.82859 11.3155L1.96899 11.9601L3.47452 8.11243L5.48704 8.24641C4.90708 9.22804 4.38912 10.2939 3.94248 11.4249ZM12.5708 16.7268L12.3838 13.9223C12.38 13.8647 12.3612 13.8091 12.3295 13.7609C12.2977 13.7127 12.2539 13.6736 12.2025 13.6473C12.1512 13.6211 12.0939 13.6086 12.0363 13.6112C11.9786 13.6137 11.9227 13.6312 11.8739 13.662C10.728 14.3822 9.4504 15.0139 8.07619 15.5385C8.00255 15.5665 7.94123 15.6197 7.90314 15.6887C7.86506 15.7576 7.85269 15.8379 7.86823 15.9151L8.06354 16.8921L6.80531 18.5696C6.76815 18.6191 6.74552 18.678 6.73995 18.7397C6.73438 18.8014 6.74609 18.8634 6.77377 18.9188C6.80145 18.9742 6.844 19.0208 6.89666 19.0533C6.94933 19.0859 7.01002 19.1032 7.07194 19.1032C7.11349 19.103 7.15467 19.0954 7.19358 19.0809L12.3599 17.0594C12.4258 17.0335 12.4818 16.9874 12.5197 16.9276C12.5577 16.8678 12.5756 16.7975 12.5708 16.7268ZM8.0415 18.0324L8.68611 17.1728C8.71419 17.1352 8.73405 17.0922 8.74439 17.0465C8.75473 17.0008 8.75531 16.9534 8.74611 16.9075L8.57646 16.0592C9.7077 15.6125 10.7733 15.0946 11.7549 14.5146L11.8892 16.5268L8.0415 18.0324ZM9.66571 10.0023H7.41987C7.36046 10.0023 7.30214 10.0182 7.25092 10.0484C7.19971 10.0785 7.15746 10.1217 7.12854 10.1736L4.30974 15.2386C4.27408 15.3028 4.26064 15.3771 4.27148 15.4497C4.28233 15.5224 4.31687 15.5895 4.36974 15.6406C4.43189 15.7004 4.5148 15.7338 4.60107 15.7339C4.66187 15.734 4.72151 15.7173 4.77337 15.6856L9.83832 12.6205C9.88735 12.5908 9.9279 12.549 9.95605 12.4991C9.98419 12.4492 9.99898 12.3928 9.99899 12.3355V10.3356C9.99902 10.1516 9.84969 10.0023 9.66571 10.0023ZM9.33243 12.1478L5.50305 14.4653L7.61557 10.6692V10.6689H9.33243V12.1478Z" fill="black"/>
<path d="M19.9832 0.316455C19.9766 0.237868 19.9424 0.164156 19.8866 0.108391C19.8308 0.0526259 19.7571 0.0184097 19.6785 0.0118098C19.5679 0.003138 8.59172 -0.763144 3.84075 11.6806C3.81775 11.7407 3.81265 11.8062 3.82608 11.8691C3.83951 11.9321 3.87088 11.9898 3.91642 12.0352L5.50128 13.6201C5.57562 13.6944 5.6796 13.7284 5.78394 13.7144C5.83508 13.7071 5.88381 13.6879 5.92631 13.6585C5.96882 13.6292 6.00394 13.5903 6.02893 13.5451L7.61681 10.662H9.33269V12.1449L6.43225 13.9761C6.38999 14.0029 6.35428 14.0388 6.32775 14.0812C6.30121 14.1236 6.28453 14.1714 6.27893 14.2211C6.27338 14.2708 6.27909 14.3211 6.29565 14.3683C6.31221 14.4155 6.33919 14.4584 6.3746 14.4937L7.95946 16.0786C7.99039 16.1096 8.02713 16.1341 8.06757 16.1509C8.108 16.1677 8.15135 16.1763 8.19512 16.1763C8.23581 16.1764 8.27615 16.1689 8.31411 16.1543C20.7584 11.4029 19.9925 0.426806 19.9832 0.316455ZM18.2346 6.23003C17.065 9.12379 14.3886 13.0579 8.27739 15.454L7.1408 14.3174L9.84394 12.6109C9.89148 12.5807 9.93064 12.5391 9.9578 12.4898C9.98495 12.4405 9.99921 12.3852 9.99925 12.3289V10.329C9.99922 10.2406 9.96409 10.1559 9.90159 10.0934C9.83908 10.0309 9.75432 9.99573 9.66593 9.9957H7.41943C7.35977 9.99574 7.30121 10.0118 7.24985 10.0421C7.19849 10.0725 7.15622 10.1161 7.12744 10.1684L5.65855 12.8355L4.54098 11.7176C8.71168 1.07774 17.6017 0.642429 19.3299 0.666764C19.3422 1.44406 19.2709 3.66588 18.2346 6.23003ZM5.70956 14.7167C5.67501 14.6708 5.62915 14.6346 5.57646 14.6117C5.52377 14.5888 5.46604 14.58 5.4089 14.586C5.41485 14.5289 5.40594 14.4712 5.38305 14.4186C5.36016 14.3659 5.32406 14.32 5.27824 14.2854C4.77563 13.9054 4.127 13.7791 3.49806 13.9384C2.83045 14.108 2.28448 14.5633 2.0005 15.1883L0.0300098 19.5236C0.0018463 19.5854 -0.00676663 19.6543 0.00532584 19.7211C0.0174183 19.7878 0.0496381 19.8493 0.0976654 19.8973C0.12857 19.9283 0.165301 19.9529 0.205745 19.9696C0.246189 19.9864 0.289548 19.995 0.333327 19.9949C0.380937 19.9948 0.427981 19.9846 0.471334 19.9649L4.80668 17.9941C5.43128 17.7105 5.88659 17.1645 6.05624 16.4969C6.21589 15.8686 6.08956 15.2197 5.70956 14.7167ZM5.41027 16.3329C5.29093 16.8032 4.97031 17.1875 4.53102 17.3875L1.00461 18.9904L2.60748 15.4636C2.80713 15.0244 3.19178 14.7037 3.66208 14.5844C3.78321 14.5535 3.90771 14.5379 4.0327 14.5377C4.24036 14.5377 4.44333 14.5821 4.62832 14.6684L4.31102 15.23C4.27517 15.2934 4.2611 15.3669 4.27097 15.4391C4.28084 15.5112 4.31411 15.5782 4.36567 15.6297C4.41711 15.6813 4.48407 15.7146 4.55627 15.7245C4.62847 15.7343 4.70191 15.7202 4.76531 15.6843L5.32695 15.3667C5.46359 15.6606 5.4946 16.0002 5.41027 16.3329Z" fill="black"/>
<path d="M19.9815 0.321345C19.9749 0.24276 19.9407 0.169053 19.8849 0.113289C19.8291 0.0575254 19.7554 0.0233069 19.6769 0.0166993C19.5469 0.00634786 16.4571 -0.227634 12.8234 1.44626C12.7244 1.49157 12.654 1.5829 12.6347 1.69024C12.6154 1.79758 12.6501 1.90754 12.727 1.98453L18.0133 7.27081C18.0758 7.33332 18.1606 7.36844 18.249 7.36846C18.2686 7.36846 18.2883 7.36678 18.308 7.36346C18.3608 7.35397 18.4106 7.33187 18.4531 7.29902C18.4955 7.26617 18.5295 7.22356 18.5519 7.17479C20.2261 3.54108 19.9922 0.450992 19.9815 0.321345ZM18.141 6.45519L13.5427 1.85688C16.2028 0.733958 18.5323 0.656615 19.3285 0.669974C19.3419 1.46692 19.2669 3.78908 18.141 6.45519ZM14.7185 5.2793C13.5976 4.15838 11.7741 4.15838 10.6532 5.2793C9.53227 6.40023 9.53227 8.22373 10.6532 9.34466C11.2135 9.90528 11.9498 10.1853 12.6857 10.1853C13.422 10.1853 14.1579 9.90496 14.7185 9.34466C15.8395 8.22373 15.8395 6.40019 14.7185 5.2793ZM14.2473 8.87333C13.3863 9.73426 11.9854 9.73426 11.1245 8.87333C10.2636 8.0124 10.2636 6.61152 11.1245 5.75059C11.5548 5.32028 12.1204 5.10497 12.6858 5.10497C13.2511 5.10497 13.8167 5.32028 14.2473 5.75059C15.1082 6.61152 15.1082 8.0124 14.2473 8.87333Z" fill="black"/>
<path d="M13.3518 7.97677C12.9865 8.34274 12.3919 8.34239 12.0262 7.97677C11.6609 7.61114 11.6609 7.01685 12.0262 6.65118C12.3915 6.28587 12.9861 6.28556 13.3518 6.65118C13.4818 6.78149 13.6931 6.78149 13.8231 6.65118C13.8541 6.62026 13.8787 6.58353 13.8954 6.54309C13.9122 6.50266 13.9208 6.45931 13.9208 6.41554C13.9208 6.37176 13.9122 6.32842 13.8954 6.28798C13.8787 6.24755 13.8541 6.21082 13.8231 6.17989C13.1981 5.55462 12.1802 5.55462 11.5549 6.17989C10.9296 6.80517 10.9296 7.82278 11.5549 8.44806C11.8676 8.76071 12.2786 8.91704 12.6892 8.91704C13.1002 8.91704 13.5108 8.76071 13.8231 8.44806C13.8541 8.41713 13.8787 8.3804 13.8954 8.33997C13.9122 8.29953 13.9208 8.25619 13.9208 8.21241C13.9208 8.16864 13.9122 8.12529 13.8954 8.08486C13.8787 8.04442 13.8541 8.00769 13.8231 7.97677C13.7922 7.94578 13.7554 7.9212 13.715 7.90443C13.6746 7.88766 13.6312 7.87903 13.5874 7.87903C13.5437 7.87903 13.5003 7.88766 13.4599 7.90443C13.4195 7.9212 13.3827 7.94578 13.3518 7.97677Z" fill="black"/>
</g>
<defs>
<clipPath id="clip0_43946_35">
<rect width="20" height="20" fill="white"/>
</clipPath>
</defs>
</svg>
