<svg width="32" height="32" viewBox="0 0 32 32" fill="none" xmlns="http://www.w3.org/2000/svg">
<g clip-path="url(#clip0_44206_416)">
<path d="M13.3403 2.14062C7.15703 2.14062 2.14453 7.15312 2.14453 13.3364C2.14453 19.5196 7.15703 24.5321 13.3403 24.5321C19.5235 24.5321 24.536 19.5196 24.536 13.3364C24.5293 7.15592 19.5207 2.14736 13.3403 2.14062ZM13.3403 3.20689C14.9631 3.20817 16.5617 3.59972 18.0014 4.34851C19.4411 5.0973 20.6796 6.18137 21.6123 7.50926L20.2795 8.84208C19.9552 8.64581 19.5838 8.54081 19.2047 8.5382C18.027 8.5382 17.0722 9.49297 17.0722 10.6707C17.0741 11.0502 17.1785 11.4221 17.3745 11.7471L13.8835 15.2381C13.5593 15.0404 13.1869 14.9358 12.8072 14.9358C12.4274 14.9358 12.055 15.0404 11.7308 15.2381L9.30608 12.8134C9.50207 12.4884 9.60652 12.1165 9.60837 11.737C9.60983 10.5616 8.6582 9.60753 7.48277 9.60606C6.51068 9.60486 5.66133 10.2624 5.41902 11.2039H3.44111C4.45052 6.54249 8.57089 3.21388 13.3403 3.20689ZM20.271 10.6707C20.271 11.2596 19.7936 11.737 19.2047 11.737C18.6158 11.737 18.1385 11.2596 18.1385 10.6707C18.1385 10.0818 18.6158 9.60446 19.2047 9.60446C19.7936 9.60446 20.271 10.0818 20.271 10.6707ZM13.8734 17.0683C13.8734 17.6572 13.3961 18.1346 12.8072 18.1346C12.2182 18.1346 11.7409 17.6572 11.7409 17.0683C11.7409 16.4794 12.2182 16.002 12.8072 16.002C13.3961 16.002 13.8734 16.4794 13.8734 17.0683ZM8.54211 11.737C8.54211 12.3259 8.06475 12.8032 7.47584 12.8032C6.88693 12.8032 6.40958 12.3259 6.40958 11.737C6.40958 11.1481 6.88693 10.6707 7.47584 10.6707C8.06475 10.6707 8.54211 11.1481 8.54211 11.737ZM18.262 22.1934C16.7564 23.0294 15.0624 23.4673 13.3403 23.4658C7.74974 23.4696 3.21459 18.9407 3.21079 13.3502C3.21053 12.9894 3.22959 12.6288 3.26784 12.2701H5.41902C5.6614 13.2087 6.50641 13.8658 7.47584 13.8694C7.85534 13.8676 8.22726 13.7631 8.55224 13.5672L10.9769 15.9918C10.7809 16.3168 10.6765 16.6887 10.6746 17.0682C10.6746 18.246 11.6294 19.2008 12.8072 19.2008C13.9849 19.2008 14.9397 18.246 14.9397 17.0682C14.9378 16.6887 14.8334 16.3168 14.6374 15.9918L18.1283 12.5009C18.4533 12.6969 18.8252 12.8013 19.2047 12.8032C20.3825 12.8032 21.3373 11.8484 21.3373 10.6707C21.3354 10.2912 21.231 9.91924 21.035 9.59427L22.1972 8.43257C24.9105 13.3193 23.1486 19.4802 18.262 22.1934Z" fill="url(#paint0_linear_44206_416)"/>
<path d="M26.6687 5.34084C27.6381 5.33717 28.4831 4.68015 28.7255 3.74144H32V2.67518H28.7255C28.4831 1.73647 27.6381 1.07945 26.6687 1.07579C25.4909 1.07579 24.5361 2.03056 24.5361 3.20831C24.538 3.5878 24.6424 3.95973 24.8384 4.2847L23.9017 5.22141C19.4197 -0.617771 11.0528 -1.71802 5.2136 2.76395C-0.625583 7.24591 -1.72583 15.6129 2.75613 21.4521C6.9868 26.9638 14.7419 28.3009 20.5739 24.524L22.1829 26.1329L22.9367 26.8868L27.2285 31.1785C28.32 32.27 30.0896 32.27 31.1811 31.1785C32.2726 30.087 32.2726 28.3174 31.1811 27.2259L26.8894 22.9342L26.1355 22.1803L24.5265 20.5713C27.3827 16.1719 27.3827 10.5037 24.5265 6.10428L25.5928 5.03802C25.9176 5.23408 26.2893 5.33871 26.6687 5.34084ZM26.6687 2.14205C27.2576 2.14205 27.7349 2.6194 27.7349 3.20831C27.7349 3.79722 27.2576 4.27457 26.6687 4.27457C26.0798 4.27457 25.6024 3.79722 25.6024 3.20831C25.6024 2.6194 26.0798 2.14205 26.6687 2.14205ZM30.4272 27.9797C31.11 28.6472 31.1225 29.7418 30.455 30.4247C29.7875 31.1075 28.6929 31.1199 28.0101 30.4524C28.0007 30.4433 27.9914 30.434 27.9823 30.4247L23.6906 26.1329L26.1355 23.688L30.4272 27.9797ZM25.3817 22.9342L22.9367 25.3791L21.461 23.9034C21.5362 23.8458 21.6066 23.7824 21.6807 23.7232C21.7548 23.664 21.8406 23.5931 21.9201 23.5265C22.0368 23.4284 22.152 23.3292 22.265 23.2274C22.3231 23.1741 22.3786 23.1208 22.4356 23.0674C22.6541 22.8628 22.8659 22.651 23.0706 22.4325C23.1239 22.3754 23.1772 22.32 23.2305 22.2619C23.3322 22.1486 23.4319 22.0336 23.5296 21.917C23.5964 21.8381 23.6619 21.7583 23.7263 21.6776C23.785 21.604 23.8484 21.5336 23.906 21.4585L25.3817 22.9342ZM23.3142 20.4578C23.1463 20.6923 22.973 20.9221 22.7901 21.1434C22.7368 21.2079 22.6798 21.2703 22.6249 21.3337C22.4622 21.523 22.2936 21.7072 22.1195 21.886C22.0437 21.9642 21.9668 22.0412 21.8886 22.1169C21.7101 22.2914 21.5259 22.4599 21.3363 22.6223C21.2728 22.6756 21.2105 22.7337 21.146 22.7876C20.9247 22.9704 20.6949 23.1437 20.4604 23.3116C14.9414 27.2545 7.27102 25.9767 3.32818 20.4578C-0.614654 14.9388 0.663061 7.26844 6.18203 3.3256C11.701 -0.617238 19.3714 0.660411 23.3142 6.17945C26.3651 10.45 26.3651 16.1873 23.3142 20.4578Z" fill="url(#paint1_linear_44206_416)"/>
</g>
<defs>
<linearGradient id="paint0_linear_44206_416" x1="13.2756" y1="2.14062" x2="13.2756" y2="24.5321" gradientUnits="userSpaceOnUse">
<stop stop-color="#FF7800"/>
<stop offset="1" stop-color="#FF4200"/>
</linearGradient>
<linearGradient id="paint1_linear_44206_416" x1="15.9075" y1="0.0078125" x2="15.9075" y2="31.9971" gradientUnits="userSpaceOnUse">
<stop stop-color="#FF7800"/>
<stop offset="1" stop-color="#FF4200"/>
</linearGradient>
<clipPath id="clip0_44206_416">
<rect width="32" height="32" fill="white"/>
</clipPath>
</defs>
</svg>
