<svg width="30" height="28" viewBox="0 0 30 28" fill="none" xmlns="http://www.w3.org/2000/svg">
<path d="M23.7906 7.3328C23.0218 5.23692 21.5598 3.46672 19.647 2.3157C17.7342 1.16467 15.4855 0.701951 13.2736 1.00426C11.0618 1.30656 9.01965 2.35574 7.48586 3.97783C5.95206 5.59992 5.01872 7.6975 4.84057 9.9228C3.47016 10.0606 2.20707 10.726 1.3184 11.7783C0.429727 12.8306 -0.0148572 14.1872 0.0786573 15.5614C0.172172 16.9355 0.796454 18.2194 1.81949 19.1416C2.84253 20.0638 4.18412 20.5519 5.56056 20.5028H7.67057V24.6228C7.67057 25.2858 7.93396 25.9217 8.4028 26.3906C8.87164 26.8594 9.50752 27.1228 10.1706 27.1228H19.8456C20.5086 27.1228 21.1445 26.8594 21.6133 26.3906C22.0822 25.9217 22.3456 25.2858 22.3456 24.6228V20.5028H23.1706C24.8573 20.492 26.4758 19.8353 27.6931 18.6678C28.9105 17.5003 29.6343 15.9107 29.7157 14.2259C29.797 12.5411 29.2297 10.8892 28.1304 9.60987C27.0311 8.33053 25.4834 7.52102 23.8056 7.3478L23.7906 7.3328ZM19.8456 25.5928H10.1556C9.89035 25.5928 9.63599 25.4874 9.44846 25.2999C9.26092 25.1124 9.15556 24.858 9.15556 24.5928V16.0028C9.15556 15.7376 9.26092 15.4832 9.44846 15.2957C9.63599 15.1082 9.89035 15.0028 10.1556 15.0028H19.8456C20.1108 15.0028 20.3651 15.1082 20.5527 15.2957C20.7402 15.4832 20.8456 15.7376 20.8456 16.0028V24.6078C20.8416 24.8704 20.7345 25.1209 20.5474 25.3052C20.3603 25.4895 20.1082 25.5928 19.8456 25.5928ZM18.3756 13.5028H11.6256V12.6078C11.6256 11.7127 11.9811 10.8543 12.6141 10.2213C13.247 9.58838 14.1055 9.2328 15.0006 9.2328C15.8957 9.2328 16.7541 9.58838 17.387 10.2213C18.02 10.8543 18.3756 11.7127 18.3756 12.6078V13.5028ZM26.7606 17.5028C26.2883 17.9782 25.7266 18.3556 25.1079 18.613C24.4892 18.8704 23.8257 19.0029 23.1556 19.0028H22.3306V16.0028C22.3307 15.3475 22.0735 14.7183 21.6143 14.2508C21.1552 13.7832 20.5308 13.5146 19.8756 13.5028V12.6078C19.8756 11.3149 19.3619 10.0749 18.4477 9.16066C17.5335 8.24642 16.2935 7.7328 15.0006 7.7328C13.7076 7.7328 12.4677 8.24642 11.5534 9.16066C10.6392 10.0749 10.1256 11.3149 10.1256 12.6078V13.5028C9.47035 13.5146 8.84597 13.7832 8.38682 14.2508C7.92767 14.7183 7.67046 15.3475 7.67057 16.0028V19.0028H5.56056C5.04895 19.0213 4.53884 18.9366 4.06071 18.7536C3.58258 18.5706 3.14623 18.2931 2.77773 17.9377C2.40923 17.5823 2.11613 17.1563 1.91593 16.6851C1.71574 16.214 1.61257 15.7073 1.61257 15.1953C1.61257 14.6833 1.71574 14.1766 1.91593 13.7055C2.11613 13.2343 2.40923 12.8083 2.77773 12.4529C3.14623 12.0975 3.58258 11.82 4.06071 11.637C4.53884 11.454 5.04895 11.3693 5.56056 11.3878C5.75861 11.3878 5.94863 11.3095 6.08914 11.1699C6.22964 11.0303 6.30924 10.8408 6.31056 10.6428C6.32886 8.66387 7.0545 6.75677 8.35631 5.2662C9.65813 3.77563 11.4502 2.79995 13.4087 2.51551C15.3672 2.23107 17.3628 2.65664 19.0348 3.71529C20.7069 4.77395 21.9451 6.39583 22.5256 8.2878C22.572 8.43929 22.6653 8.57217 22.7919 8.66739C22.9186 8.76261 23.0721 8.81526 23.2306 8.8178C24.2295 8.83441 25.2014 9.14431 26.0256 9.70898C26.8498 10.2736 27.4897 11.0681 27.8659 11.9937C28.2421 12.9192 28.3379 13.9349 28.1413 14.9144C27.9448 15.8939 27.4646 16.794 26.7606 17.5028Z" fill="url(#paint0_linear_44206_429)"/>
<path d="M15.0005 17.7146C14.5156 17.6851 14.0366 17.833 13.6529 18.1308C13.2691 18.4286 13.0068 18.8558 12.915 19.3328C12.8231 19.8097 12.908 20.3038 13.1538 20.7228C13.3995 21.1418 13.7893 21.457 14.2505 21.6096V22.5496C14.2505 22.7485 14.3295 22.9393 14.4701 23.08C14.6108 23.2206 14.8015 23.2996 15.0005 23.2996C15.1994 23.2996 15.3901 23.2206 15.5308 23.08C15.6714 22.9393 15.7505 22.7485 15.7505 22.5496V21.6096C16.2116 21.457 16.6014 21.1418 16.8472 20.7228C17.0929 20.3038 17.1778 19.8097 17.0859 19.3328C16.9941 18.8558 16.7318 18.4286 16.3481 18.1308C15.9643 17.833 15.4853 17.6851 15.0005 17.7146ZM15.0005 19.2146C15.0994 19.2146 15.196 19.244 15.2782 19.2989C15.3605 19.3538 15.4246 19.4319 15.4624 19.5233C15.5002 19.6147 15.5101 19.7152 15.4909 19.8122C15.4716 19.9092 15.4239 19.9983 15.354 20.0682C15.2841 20.1381 15.195 20.1857 15.098 20.205C15.001 20.2243 14.9005 20.2144 14.8091 20.1766C14.7178 20.1387 14.6397 20.0746 14.5847 19.9924C14.5298 19.9102 14.5005 19.8135 14.5005 19.7146C14.5005 19.582 14.5531 19.4549 14.6469 19.3611C14.7407 19.2673 14.8679 19.2146 15.0005 19.2146Z" fill="url(#paint1_linear_44206_429)"/>
<defs>
<linearGradient id="paint0_linear_44206_429" x1="14.8092" y1="0.914062" x2="14.8092" y2="27.1228" gradientUnits="userSpaceOnUse">
<stop stop-color="#FF7800"/>
<stop offset="1" stop-color="#FF4200"/>
</linearGradient>
<linearGradient id="paint1_linear_44206_429" x1="14.9882" y1="17.7109" x2="14.9882" y2="23.2996" gradientUnits="userSpaceOnUse">
<stop stop-color="#FF7800"/>
<stop offset="1" stop-color="#FF4200"/>
</linearGradient>
</defs>
</svg>
