<svg width="31" height="31" viewBox="0 0 31 31" fill="none" xmlns="http://www.w3.org/2000/svg">
<path d="M24.617 6.1167C24.5117 6.01193 24.3691 5.95312 24.2205 5.95313C24.0719 5.95312 23.9293 6.01193 23.8239 6.1167L16.2414 13.4686C16.134 13.573 16.0725 13.7158 16.0704 13.8656C16.0683 14.0154 16.1257 14.1599 16.2302 14.2673C16.3346 14.3747 16.4774 14.4363 16.6272 14.4384C16.777 14.4405 16.9215 14.383 17.0289 14.2786L24.6058 6.90982C24.7121 6.80592 24.7729 6.66419 24.775 6.51558C24.7771 6.36697 24.7203 6.22357 24.617 6.1167Z" fill="url(#paint0_linear_44206_439)"/>
<path d="M28.7331 11.8512H27.85C27.6995 11.8518 27.5526 11.8048 27.4304 11.7169C27.3081 11.629 27.2168 11.5048 27.1694 11.3619C26.9109 10.5932 26.5755 9.85253 26.1681 9.15125L29.6331 5.72563C30.1377 5.22043 30.4211 4.53559 30.4211 3.82156C30.4211 3.10753 30.1377 2.4227 29.6331 1.9175L28.7444 1.05688C28.24 0.557617 27.5584 0.278502 26.8488 0.280625C26.4959 0.280241 26.1466 0.350183 25.8211 0.486362C25.4956 0.622541 25.2005 0.822227 24.9531 1.07375L21.4656 4.51625C20.8223 4.16594 20.1505 3.87052 19.4575 3.63313C19.3152 3.5855 19.1917 3.49393 19.1048 3.37162C19.0178 3.2493 18.9719 3.10255 18.9738 2.9525V2.06375C18.9723 1.57391 18.7766 1.10464 18.4297 0.758795C18.0828 0.412951 17.613 0.218748 17.1231 0.21875H13.9675C13.4777 0.218748 13.0078 0.412951 12.6609 0.758795C12.314 1.10464 12.1184 1.57391 12.1169 2.06375V2.94687C12.1174 3.09742 12.0704 3.24429 11.9825 3.36652C11.8946 3.48874 11.7704 3.58009 11.6275 3.6275C11.0947 3.80913 10.5742 4.02521 10.0694 4.27438C9.93535 4.33966 9.78437 4.36174 9.63727 4.33756C9.49016 4.31338 9.35419 4.24413 9.24813 4.13937L8.62937 3.515C8.2807 3.16944 7.80966 2.97556 7.31875 2.97556C6.82784 2.97556 6.3568 3.16944 6.00812 3.515L3.79188 5.73125C3.61942 5.90317 3.48259 6.10744 3.38922 6.33234C3.29586 6.55724 3.2478 6.79836 3.2478 7.04188C3.2478 7.28539 3.29586 7.52651 3.38922 7.75141C3.48259 7.97631 3.61942 8.18058 3.79188 8.3525L4.41062 8.97688C4.51751 9.08274 4.58855 9.21942 4.61377 9.36772C4.639 9.51603 4.61713 9.66851 4.55125 9.80375C4.30056 10.3071 4.08626 10.8279 3.91 11.3619C3.8608 11.5047 3.76824 11.6287 3.64521 11.7164C3.52219 11.8041 3.37485 11.8513 3.22375 11.8512H2.335C1.84418 11.8513 1.37347 12.0462 1.02641 12.3933C0.679351 12.7403 0.484375 13.2111 0.484375 13.7019V16.835C0.484375 17.3258 0.679351 17.7965 1.02641 18.1436C1.37347 18.4906 1.84418 18.6856 2.335 18.6856H3.21812C3.36867 18.6851 3.51554 18.7321 3.63777 18.82C3.75999 18.9079 3.85134 19.0321 3.89875 19.175C4.08038 19.7078 4.29646 20.2283 4.54563 20.7331C4.61151 20.8684 4.63337 21.0208 4.60815 21.1692C4.58293 21.3175 4.51188 21.4541 4.405 21.56L3.78625 22.1844C3.60919 22.3538 3.46812 22.5572 3.37147 22.7824C3.27482 23.0076 3.22458 23.2499 3.22375 23.495C3.22616 23.7398 3.27712 23.9817 3.37367 24.2067C3.47023 24.4317 3.61046 24.6352 3.78625 24.8056L6.0025 27.0219C6.35118 27.3674 6.82222 27.5613 7.31312 27.5613C7.80403 27.5613 8.27507 27.3674 8.62375 27.0219L9.24813 26.3975C9.3529 26.2909 9.48825 26.2195 9.63541 26.1933C9.78257 26.1671 9.93424 26.1874 10.0694 26.2512C10.5732 26.501 11.0938 26.7152 11.6275 26.8925C11.7704 26.9417 11.8943 27.0343 11.982 27.1573C12.0698 27.2803 12.1169 27.4277 12.1169 27.5788V28.4619C12.1169 28.9527 12.3119 29.4234 12.6589 29.7705C13.006 30.1175 13.4767 30.3125 13.9675 30.3125H17.1231C17.3666 30.3132 17.6079 30.2659 17.8331 30.1732C18.0582 30.0806 18.2629 29.9444 18.4354 29.7725C18.6078 29.6005 18.7446 29.3963 18.838 29.1714C18.9313 28.9465 18.9794 28.7054 18.9794 28.4619V27.5844C18.9772 27.4336 19.0229 27.286 19.1098 27.1627C19.1967 27.0394 19.3204 26.9468 19.4631 26.8981C19.9915 26.7191 20.5065 26.5029 21.0044 26.2512C21.1388 26.1858 21.2903 26.1642 21.4376 26.1894C21.585 26.2147 21.7207 26.2855 21.8256 26.3919L22.45 27.0163C22.7987 27.3618 23.2697 27.5557 23.7606 27.5557C24.2515 27.5557 24.7226 27.3618 25.0712 27.0163L27.2875 24.8C27.6331 24.4513 27.8269 23.9803 27.8269 23.4894C27.8269 22.9985 27.6331 22.5274 27.2875 22.1787L26.6856 21.56C26.5787 21.4541 26.5077 21.3175 26.4825 21.1692C26.4573 21.0208 26.4791 20.8684 26.545 20.7331C26.7975 20.2298 27.0137 19.7091 27.1919 19.175C27.2393 19.0321 27.3306 18.9079 27.4529 18.82C27.5751 18.7321 27.722 18.6851 27.8725 18.6856H28.7556C29.2464 18.6856 29.7172 18.4906 30.0642 18.1436C30.4113 17.7965 30.6063 17.3258 30.6063 16.835V13.7019C30.6063 13.4569 30.5577 13.2144 30.4633 12.9884C30.3689 12.7624 30.2305 12.5574 30.0563 12.3853C29.882 12.2131 29.6754 12.0773 29.4482 11.9856C29.2211 11.8939 28.978 11.8483 28.7331 11.8512ZM23.6706 12.6163C24.2317 14.3414 24.2318 16.1999 23.671 17.9251C23.1101 19.6502 22.0171 21.1534 20.5488 22.2188C19.0806 23.2841 17.3125 23.8569 15.4985 23.8549C13.6844 23.853 11.9176 23.2763 10.4517 22.2078C8.98569 21.1392 7.89596 19.6337 7.33884 17.9073C6.78173 16.1809 6.78589 14.3224 7.35072 12.5985C7.91555 10.8747 9.01202 9.37403 10.4827 8.31206C11.9535 7.25008 13.7228 6.68135 15.5369 6.6875C16.6035 6.68656 17.6608 6.88694 18.6531 7.27813L11.9031 13.9719C11.8291 14.0443 11.7766 14.1358 11.7513 14.2362L10.4631 19.3662C10.434 19.4644 10.4322 19.5687 10.458 19.6679C10.4837 19.767 10.5361 19.8572 10.6094 19.9287C10.6615 19.9819 10.7236 20.0242 10.7922 20.0532C10.8607 20.0821 10.9343 20.0972 11.0087 20.0975C11.0536 20.1029 11.0989 20.1029 11.1438 20.0975L16.33 18.8206C16.4292 18.7995 16.5195 18.7485 16.5887 18.6744L23.4288 11.9244C23.5301 12.1504 23.6202 12.3813 23.6987 12.6163H23.6706ZM12.5837 15.4625L15.07 17.9206L11.7681 18.7362L12.5837 15.4625ZM16.1781 17.4369L13.0787 14.3713L24.2388 3.34625L27.3381 6.41188L16.1781 17.4369ZM26.8656 1.40563C27.2853 1.40146 27.6896 1.56319 27.9906 1.85563L28.8569 2.71625C29.1502 3.01043 29.3149 3.40893 29.3149 3.82438C29.3149 4.23982 29.1502 4.63832 28.8569 4.9325L28.1594 5.61875L25.0375 2.55313L25.7294 1.86687C25.8744 1.72055 26.047 1.60444 26.2372 1.52526C26.4275 1.44609 26.6315 1.40543 26.8375 1.40563H26.8656ZM29.4869 16.835C29.4869 17.0274 29.4104 17.212 29.2743 17.3481C29.1383 17.4842 28.9537 17.5606 28.7612 17.5606H27.85C27.467 17.5654 27.0949 17.6893 26.7855 17.915C26.476 18.1408 26.2446 18.4573 26.1231 18.8206C25.966 19.3028 25.7782 19.7744 25.5606 20.2325C25.3908 20.5783 25.3331 20.9685 25.3956 21.3486C25.4582 21.7288 25.6377 22.0799 25.9094 22.3531L26.5337 22.9775C26.6016 23.0449 26.6555 23.1251 26.6922 23.2135C26.729 23.3018 26.7479 23.3965 26.7479 23.4922C26.7479 23.5879 26.729 23.6826 26.6922 23.7709C26.6555 23.8592 26.6016 23.9394 26.5337 24.0069L24.2725 26.2512C24.2051 26.3191 24.1249 26.373 24.0365 26.4097C23.9482 26.4465 23.8535 26.4654 23.7578 26.4654C23.6621 26.4654 23.5674 26.4465 23.4791 26.4097C23.3908 26.373 23.3106 26.3191 23.2431 26.2512L22.6187 25.6269C22.3502 25.3484 22.0005 25.162 21.6196 25.0943C21.2387 25.0266 20.8462 25.0811 20.4981 25.25C20.0385 25.4685 19.565 25.6564 19.0806 25.8125C18.7134 25.9339 18.3941 26.1686 18.1687 26.483C17.9433 26.7973 17.8234 27.1751 17.8263 27.5619V28.445C17.8308 28.6371 17.7596 28.8232 17.6281 28.9632C17.4965 29.1032 17.3151 29.1858 17.1231 29.1931H13.9675C13.7751 29.1931 13.5905 29.1167 13.4544 28.9806C13.3183 28.8445 13.2419 28.6599 13.2419 28.4675V27.5844C13.2439 27.1978 13.1237 26.8204 12.8984 26.5063C12.6731 26.1921 12.3543 25.9571 11.9875 25.835C11.5031 25.6789 11.0296 25.491 10.57 25.2725C10.2248 25.1001 9.83399 25.041 9.45324 25.1037C9.0725 25.1663 8.72121 25.3474 8.44938 25.6213L7.825 26.2512C7.75756 26.3191 7.67737 26.373 7.58904 26.4097C7.50071 26.4465 7.40598 26.4654 7.31031 26.4654C7.21464 26.4654 7.11992 26.4465 7.03159 26.4097C6.94326 26.373 6.86306 26.3191 6.79563 26.2512L4.57937 24.0012C4.5109 23.9349 4.45663 23.8553 4.41989 23.7673C4.38314 23.6793 4.36468 23.5847 4.36562 23.4894C4.36489 23.3932 4.38342 23.2979 4.42014 23.209C4.45685 23.1201 4.51099 23.0395 4.57937 22.9719L5.20375 22.3475C5.47835 22.0761 5.66 21.7248 5.72265 21.3438C5.7853 20.9629 5.72573 20.5719 5.5525 20.2269C5.33399 19.7673 5.14608 19.2937 4.99 18.8094C4.86637 18.4435 4.63105 18.1257 4.31721 17.9006C4.00336 17.6756 3.62681 17.5547 3.24062 17.555H2.335C2.14255 17.555 1.95799 17.4785 1.82191 17.3425C1.68582 17.2064 1.60938 17.0218 1.60938 16.8294V13.7019C1.60938 13.5094 1.68582 13.3249 1.82191 13.1888C1.95799 13.0527 2.14255 12.9763 2.335 12.9762H3.21812C3.60472 12.9783 3.98206 12.858 4.29624 12.6328C4.61042 12.4075 4.84536 12.0887 4.9675 11.7219C5.12356 11.2357 5.31147 10.7603 5.53 10.2987C5.70278 9.95458 5.7621 9.56453 5.69944 9.18456C5.63679 8.80459 5.45538 8.45423 5.18125 8.18375L4.57937 7.55938C4.44369 7.42244 4.36757 7.23746 4.36757 7.04469C4.36757 6.85191 4.44369 6.66694 4.57937 6.53L6.79563 4.31375C6.86306 4.24589 6.94326 4.19204 7.03159 4.15529C7.11992 4.11854 7.21464 4.09962 7.31031 4.09962C7.40598 4.09962 7.50071 4.11854 7.58904 4.15529C7.67737 4.19204 7.75756 4.24589 7.825 4.31375L8.44938 4.93813C8.72167 5.21123 9.07291 5.39184 9.45346 5.45442C9.834 5.517 10.2246 5.45839 10.57 5.28688C11.0296 5.06836 11.5031 4.88045 11.9875 4.72438C12.3538 4.60149 12.6722 4.36636 12.8973 4.05235C13.1225 3.73833 13.243 3.36139 13.2419 2.975V2.06375C13.2419 1.8713 13.3183 1.68674 13.4544 1.55066C13.5905 1.41457 13.7751 1.33813 13.9675 1.33813H17.1231C17.3122 1.34394 17.4916 1.42277 17.6238 1.55808C17.7559 1.69338 17.8305 1.87462 17.8319 2.06375V2.94687C17.8299 3.33347 17.9501 3.71081 18.1754 4.02499C18.4006 4.33917 18.7195 4.57411 19.0863 4.69625C19.6073 4.87751 20.1148 5.09556 20.605 5.34875L19.525 6.41188C18.2726 5.84338 16.9123 5.55175 15.5369 5.55688C13.4946 5.56123 11.5061 6.21135 9.85567 7.41423C8.20526 8.61711 6.97754 10.3111 6.34813 12.254C5.71872 14.1968 5.71986 16.2889 6.3514 18.2311C6.98293 20.1732 8.21251 21.8659 9.86423 23.067C11.516 24.268 13.5052 24.916 15.5475 24.9181C17.5897 24.9202 19.5803 24.2764 21.2345 23.0788C22.8888 21.8812 24.1218 20.191 24.7574 18.2502C25.393 16.3094 25.3985 14.2173 24.7731 12.2731C24.6307 11.8495 24.4597 11.4361 24.2612 11.0356L25.33 9.97813C25.6458 10.5346 25.9112 11.1182 26.1231 11.7219C26.2468 12.0877 26.4821 12.4056 26.7959 12.6306C27.1098 12.8557 27.4863 12.9766 27.8725 12.9762H28.7556C28.9481 12.9762 29.1326 13.0527 29.2687 13.1888C29.4048 13.3249 29.4813 13.5094 29.4813 13.7019L29.4869 16.835Z" fill="url(#paint1_linear_44206_439)"/>
<defs>
<linearGradient id="paint0_linear_44206_439" x1="20.3975" y1="5.95312" x2="20.3975" y2="14.4384" gradientUnits="userSpaceOnUse">
<stop stop-color="#FF7800"/>
<stop offset="1" stop-color="#FF4200"/>
</linearGradient>
<linearGradient id="paint1_linear_44206_439" x1="15.4583" y1="0.21875" x2="15.4583" y2="30.3125" gradientUnits="userSpaceOnUse">
<stop stop-color="#FF7800"/>
<stop offset="1" stop-color="#FF4200"/>
</linearGradient>
</defs>
</svg>
