<svg width="32" height="32" viewBox="0 0 32 32" fill="none" xmlns="http://www.w3.org/2000/svg">
<path d="M29.3343 9.90919V17.9092C29.3343 19.9092 28.6683 21.5752 27.4943 22.7492C26.3343 23.9092 24.6683 24.5752 22.6683 24.5752V27.4152C22.6683 28.4822 21.4813 29.1222 20.6013 28.5352L14.6683 24.5752H11.8413C11.9483 24.1752 12.0013 23.7622 12.0013 23.3352C12.0013 21.9752 11.4813 20.7222 10.6283 19.7752C10.1323 19.215 9.52255 18.767 8.83966 18.4613C8.15677 18.1555 7.4165 17.999 6.66829 18.0022C5.95488 18.001 5.2485 18.1432 4.59109 18.4203C3.93369 18.6974 3.33865 19.1037 2.84129 19.6152C2.72109 19.0546 2.66307 18.4825 2.66829 17.9092V9.90919C2.66829 5.90919 5.33429 3.24219 9.33429 3.24219H22.6683C26.6683 3.24219 29.3343 5.90919 29.3343 9.90919Z" stroke="#5339FF" stroke-width="1.2" stroke-miterlimit="10" stroke-linecap="round" stroke-linejoin="round"/>
<path d="M11.999 23.3317C11.999 24.9317 11.292 26.3587 10.186 27.3317C9.21386 28.1895 7.96251 28.6637 6.66603 28.6657C5.96549 28.666 5.27176 28.5282 4.62449 28.2602C3.97722 27.9923 3.3891 27.5994 2.89374 27.104C2.39838 26.6086 2.00549 26.0205 1.73752 25.3733C1.46956 24.726 1.33177 24.0323 1.33203 23.3317C1.33203 21.6517 2.10603 20.1457 3.33203 19.1717C4.11602 18.5432 5.06164 18.1491 6.0599 18.0347C7.05816 17.9203 8.06843 18.0903 8.97428 18.525C9.88013 18.9598 10.6447 19.6417 11.1799 20.4922C11.715 21.3426 11.999 22.3269 11.999 23.3317Z" stroke="#5339FF" stroke-width="1.2" stroke-miterlimit="10" stroke-linecap="round" stroke-linejoin="round"/>
<path d="M6.99903 21.667V23.667L5.33203 24.667M11.332 14H20.666" stroke="#5339FF" stroke-width="1.2" stroke-miterlimit="10" stroke-linecap="round" stroke-linejoin="round"/>
</svg>
