<svg width="32" height="32" viewBox="0 0 32 32" fill="none" xmlns="http://www.w3.org/2000/svg">
<path d="M26.666 10.9971V23.9971C26.666 27.9971 24.279 29.3301 21.332 29.3301H10.666C7.71903 29.3301 5.33203 27.9971 5.33203 23.9971V10.9971C5.33203 6.66406 7.71903 5.66406 10.666 5.66406C10.666 6.49006 10.999 7.23706 11.546 7.78406C12.092 8.33006 12.839 8.66406 13.666 8.66406H18.332C19.986 8.66406 21.332 7.31706 21.332 5.66406C24.279 5.66406 26.666 6.66406 26.666 10.9971Z" stroke="#5339FF" stroke-width="1.2" stroke-linecap="round" stroke-linejoin="round"/>
<path d="M10.668 17.3301H16.001M10.668 22.6641H21.334M21.334 5.66407C21.334 7.31707 19.988 8.66407 18.334 8.66407H13.668C13.274 8.66465 12.8838 8.58719 12.5199 8.43615C12.1561 8.2851 11.8257 8.06348 11.548 7.78407C11.2686 7.50632 11.0469 7.17597 10.8959 6.8121C10.7449 6.44823 10.6674 6.05804 10.668 5.66407C10.668 4.01007 12.014 2.66407 13.668 2.66407H18.334C18.728 2.66332 19.1182 2.74071 19.4821 2.89176C19.846 3.04281 20.1763 3.26452 20.454 3.54407C20.7335 3.82172 20.9552 4.15205 21.1063 4.51594C21.2573 4.87983 21.3347 5.27007 21.334 5.66407Z" stroke="#5339FF" stroke-width="1.2" stroke-linecap="round" stroke-linejoin="round"/>
</svg>
