<svg width="32" height="32" viewBox="0 0 32 32" fill="none" xmlns="http://www.w3.org/2000/svg">
<path d="M10.668 2.66406V6.66406M21.334 2.66406V6.66406M4.66797 12.1171H27.334M25.988 25.3971H22.014M24.001 23.4501V27.4371M24.001 30.6641C25.4155 30.6641 26.7721 30.1021 27.7723 29.1019C28.7725 28.1017 29.3345 26.7451 29.3345 25.3306C29.3345 23.916 28.7725 22.5594 27.7723 21.5592C26.7721 20.559 25.4155 19.9971 24.001 19.9971C22.5864 19.9971 21.2298 20.559 20.2296 21.5592C19.2294 22.5594 18.6675 23.916 18.6675 25.3306C18.6675 26.7451 19.2294 28.1017 20.2296 29.1019C21.2298 30.1021 22.5864 30.6641 24.001 30.6641Z" stroke="#5339FF" stroke-width="1.2" stroke-miterlimit="10" stroke-linecap="round" stroke-linejoin="round"/>
<path d="M28 11.3301V21.8101C27.5011 21.2401 26.8861 20.7834 26.1962 20.4707C25.5063 20.158 24.7575 19.9965 24 19.9971C23.2996 19.9969 22.6061 20.1348 21.959 20.4027C21.3119 20.6707 20.7239 21.0635 20.2287 21.5588C19.7335 22.054 19.3406 22.642 19.0727 23.2891C18.8047 23.9361 18.6669 24.6297 18.667 25.3301C18.667 26.3301 18.947 27.2771 19.44 28.0771C19.72 28.5571 20.08 28.9841 20.493 29.3301H10.667C6 29.3301 4 26.6641 4 22.6641V11.3301C4 7.33006 6 4.66406 10.667 4.66406H21.333C26 4.66406 28 7.33006 28 11.3301Z" stroke="#5339FF" stroke-width="1.2" stroke-miterlimit="10" stroke-linecap="round" stroke-linejoin="round"/>
<path d="M15.9926 18.2656H16.0046M11.0586 18.2656H11.0696M11.0586 22.2656H11.0696" stroke="#5339FF" stroke-width="1.2" stroke-linecap="round" stroke-linejoin="round"/>
</svg>
