<svg width="34" height="34" viewBox="0 0 34 34" fill="none" xmlns="http://www.w3.org/2000/svg">
<path d="M33.4855 26.3914L20.2868 3.86951C19.6008 2.69884 18.372 2 17 2C15.628 2 14.3992 2.69891 13.7131 3.86951L0.514534 26.3914C-0.171511 27.5621 -0.171511 28.9598 0.514534 30.1305C1.20058 31.3011 2.4293 32 3.80139 32H30.1987C31.5707 32 32.7995 31.3011 33.4855 30.1305C34.1715 28.9598 34.1715 27.5621 33.4855 26.3914ZM31.759 29.1484C31.4332 29.7041 30.85 30.0358 30.1987 30.0358H3.80139C3.15007 30.0358 2.56676 29.7041 2.2411 29.1484C1.91544 28.5927 1.91544 27.9291 2.2411 27.3734L15.4397 4.8515C15.7654 4.2958 16.3487 3.96404 17 3.96404C17.6513 3.96404 18.2346 4.2958 18.5603 4.8515L31.759 27.3734C32.0846 27.9291 32.0846 28.5927 31.759 29.1484Z" fill="url(#paint0_linear_44367_881)"/>
<path d="M17.001 23.5834C16.2681 23.5834 15.6719 24.1797 15.6719 24.9126C15.6719 25.6454 16.2681 26.2417 17.001 26.2417C17.7339 26.2417 18.3301 25.6454 18.3301 24.9126C18.3301 24.1797 17.7339 23.5834 17.001 23.5834ZM16.0041 11.2891H17.9978V21.5897H16.0041V11.2891Z" fill="url(#paint1_linear_44367_881)"/>
<defs>
<linearGradient id="paint0_linear_44367_881" x1="16.9017" y1="2" x2="16.9017" y2="32" gradientUnits="userSpaceOnUse">
<stop stop-color="#FF7800"/>
<stop offset="1" stop-color="#FF4200"/>
</linearGradient>
<linearGradient id="paint1_linear_44367_881" x1="16.9933" y1="11.2891" x2="16.9933" y2="26.2417" gradientUnits="userSpaceOnUse">
<stop stop-color="#FF7800"/>
<stop offset="1" stop-color="#FF4200"/>
</linearGradient>
</defs>
</svg>
