<svg width="32" height="32" viewBox="0 0 32 32" fill="none" xmlns="http://www.w3.org/2000/svg">
<g clip-path="url(#clip0_44367_865)">
<path d="M30.8193 19.3866L29.7155 18.7492C29.9009 17.8273 29.9947 16.904 29.9947 16C29.9947 15.0828 29.9024 14.1587 29.7201 13.248L30.8193 12.6134C31.1597 12.4169 31.4032 12.0995 31.5049 11.7198C31.6066 11.3401 31.5545 10.9436 31.3579 10.6031L28.352 5.39679C28.2558 5.2291 28.1273 5.08215 27.9739 4.96446C27.8205 4.84677 27.6453 4.76066 27.4585 4.71114C27.2718 4.6606 27.077 4.64757 26.8854 4.67281C26.6937 4.69805 26.5089 4.76105 26.3417 4.85818L25.2417 5.49329C23.8522 4.27084 22.2168 3.32474 20.4761 2.73609V1.47162C20.4761 0.660164 19.8159 0 19.0044 0H12.9927C12.1812 0 11.5211 0.660164 11.5211 1.47162V2.73616C9.78958 3.32243 8.15651 4.26978 6.76185 5.49705L5.65538 4.85818C5.48821 4.76104 5.30343 4.69803 5.11173 4.67279C4.92004 4.64755 4.72525 4.66058 4.53863 4.71114C4.35176 4.76068 4.17656 4.84678 4.02319 4.96447C3.86981 5.08217 3.74129 5.22911 3.64508 5.39679L0.639205 10.6031C0.442633 10.9436 0.390469 11.3401 0.492168 11.7198C0.593866 12.0995 0.837404 12.4169 1.17782 12.6134L2.2816 13.2507C2.09636 14.1727 2.00249 15.0959 2.00249 16C2.00249 16.917 2.0948 17.8412 2.27703 18.7519L1.17788 19.3866C0.475134 19.7923 0.233537 20.694 0.639205 21.3969L3.64508 26.6032C4.05081 27.3059 4.95257 27.5476 5.65538 27.1418L6.75534 26.5067C8.14493 27.7292 9.78018 28.6753 11.5211 29.264V30.5284C11.5211 31.3398 12.1812 32 12.9927 32H19.0044C19.8159 32 20.4761 31.3398 20.4761 30.5284V29.2638C22.2076 28.6776 23.8407 27.7302 25.2354 26.503L26.3418 27.1418C27.0445 27.5476 27.9464 27.3059 28.3521 26.6032L31.358 21.3969C31.7636 20.694 31.522 19.7923 30.8193 19.3866ZM30.5444 20.9272L27.5386 26.1335C27.3918 26.3877 27.0656 26.4751 26.8114 26.3283L25.4092 25.5187C25.3224 25.4686 25.2218 25.4476 25.1222 25.4587C25.0226 25.4699 24.9291 25.5126 24.8555 25.5806C23.4219 26.9066 21.697 27.9069 19.8674 28.4737C19.7716 28.5034 19.6879 28.563 19.6284 28.6437C19.5688 28.7244 19.5367 28.8221 19.5367 28.9224V30.5284C19.5367 30.8219 19.298 31.0607 19.0044 31.0607H12.9927C12.6992 31.0607 12.4604 30.8219 12.4604 30.5284V28.9224C12.4604 28.8221 12.4283 28.7245 12.3688 28.6438C12.3093 28.5631 12.2256 28.5035 12.1298 28.4738C10.2889 27.9035 8.56193 26.9044 7.13533 25.5845C7.06176 25.5163 6.9683 25.4735 6.86864 25.4624C6.76899 25.4512 6.66838 25.4723 6.58156 25.5225L5.18571 26.3283C4.93146 26.475 4.60533 26.3877 4.4586 26.1335L1.45273 20.9272C1.30601 20.673 1.39343 20.3468 1.64755 20.2L3.04227 19.3948C3.12904 19.3447 3.19752 19.2681 3.2377 19.1764C3.27788 19.0846 3.28765 18.9824 3.26558 18.8846C3.05073 17.9323 2.94183 16.9618 2.94183 16C2.94183 15.0544 3.05236 14.0848 3.27041 13.118C3.29244 13.0203 3.28266 12.9181 3.24248 12.8263C3.20231 12.7345 3.13385 12.658 3.0471 12.6079L1.64755 11.7999C1.5869 11.7651 1.53376 11.7186 1.49119 11.6632C1.44862 11.6077 1.41748 11.5443 1.39956 11.4767C1.38129 11.4092 1.37658 11.3388 1.38571 11.2694C1.39483 11.2001 1.41761 11.1333 1.45273 11.0728L4.4586 5.86646C4.4934 5.80579 4.53989 5.75263 4.59538 5.71007C4.65086 5.6675 4.71425 5.63637 4.78186 5.61847C4.84936 5.60019 4.91981 5.59547 4.98914 5.6046C5.05847 5.61372 5.12531 5.63651 5.18577 5.67164L6.58801 6.48122C6.67483 6.53136 6.77541 6.5524 6.87504 6.54126C6.97468 6.53011 7.06813 6.48737 7.14172 6.41929C8.57539 5.09339 10.3002 4.09299 12.1298 3.5262C12.2256 3.49653 12.3094 3.43697 12.3689 3.35624C12.4284 3.27552 12.4605 3.17786 12.4605 3.07757V1.47162C12.4605 1.17811 12.6993 0.939335 12.9928 0.939335H19.0045C19.298 0.939335 19.5368 1.17811 19.5368 1.47162V3.07757C19.5368 3.17785 19.5689 3.2755 19.6284 3.35622C19.6879 3.43694 19.7717 3.49651 19.8674 3.5262C21.7082 4.09644 23.4352 5.09558 24.8619 6.41553C24.9355 6.48362 25.0289 6.52637 25.1286 6.53752C25.2282 6.54868 25.3288 6.52766 25.4157 6.47753L26.8115 5.67164C26.872 5.63651 26.9388 5.61373 27.0081 5.6046C27.0775 5.59548 27.1479 5.60019 27.2154 5.61847C27.283 5.6364 27.3464 5.66754 27.4019 5.71011C27.4574 5.75267 27.5039 5.80581 27.5387 5.86646L30.5446 11.0728C30.5797 11.1333 30.6025 11.2001 30.6116 11.2694C30.6207 11.3388 30.616 11.4092 30.5977 11.4767C30.5798 11.5443 30.5487 11.6077 30.5061 11.6632C30.4635 11.7186 30.4104 11.7651 30.3497 11.7999L28.955 12.6052C28.8682 12.6553 28.7998 12.7318 28.7596 12.8236C28.7194 12.9154 28.7096 13.0176 28.7317 13.1153C28.9466 14.0675 29.0555 15.0381 29.0555 16C29.0555 16.9456 28.9449 17.9152 28.7269 18.8819C28.7048 18.9797 28.7146 19.0819 28.7548 19.1736C28.795 19.2654 28.8634 19.3419 28.9502 19.392L30.3497 20.2C30.6038 20.3468 30.6912 20.673 30.5444 20.9272Z" fill="url(#paint0_linear_44367_865)"/>
<path d="M15.999 6.51562C10.7677 6.51562 6.51172 10.7716 6.51172 16.0029C6.51172 21.2342 10.7677 25.4902 15.999 25.4902C21.2303 25.4902 25.4863 21.2342 25.4863 16.0029C25.4863 10.7716 21.2303 6.51562 15.999 6.51562ZM15.999 24.5508C11.2857 24.5508 7.45105 20.7162 7.45105 16.0029C7.45105 11.2896 11.2857 7.45496 15.999 7.45496C20.7123 7.45496 24.5469 11.2896 24.5469 16.0029C24.5469 20.7162 20.7123 24.5508 15.999 24.5508Z" fill="url(#paint1_linear_44367_865)"/>
<path d="M17.7512 13.5297H15.9978C15.8733 13.5297 15.7538 13.5792 15.6657 13.6673C15.5776 13.7554 15.5282 13.8748 15.5282 13.9994V18.0072C15.5282 18.1318 15.5776 18.2512 15.6657 18.3393C15.7538 18.4274 15.8733 18.4769 15.9978 18.4769C16.1224 18.4769 16.2418 18.4274 16.3299 18.3393C16.418 18.2512 16.4675 18.1318 16.4675 18.0072V16.9739H17.7512C18.7008 16.9739 19.4734 16.2014 19.4734 15.2518C19.4734 14.3022 18.7008 13.5297 17.7512 13.5297ZM17.7512 16.0346H16.4675V14.469H17.7512C18.1829 14.469 18.534 14.8202 18.534 15.2518C18.534 15.6835 18.1829 16.0346 17.7512 16.0346ZM13.4317 13.8345C13.3981 13.745 13.338 13.6678 13.2595 13.6134C13.1809 13.5589 13.0876 13.5297 12.9919 13.5297H12.491C12.3954 13.5297 12.302 13.5589 12.2234 13.6133C12.1449 13.6678 12.0848 13.745 12.0512 13.8345L10.5483 17.8423C10.5046 17.959 10.5089 18.0882 10.5605 18.2016C10.612 18.315 10.7065 18.4033 10.8231 18.447C10.9398 18.4907 11.069 18.4864 11.1824 18.4348C11.2958 18.3833 11.3841 18.2888 11.4278 18.1722L11.6892 17.4749H13.7936L14.0551 18.1721C14.0887 18.2616 14.1487 18.3388 14.2273 18.3933C14.3059 18.4478 14.3993 18.477 14.4949 18.477C14.5708 18.477 14.6455 18.4586 14.7128 18.4234C14.78 18.3882 14.8377 18.3372 14.8809 18.2748C14.9241 18.2124 14.9516 18.1405 14.9609 18.0652C14.9703 17.9898 14.9612 17.9134 14.9346 17.8423L13.4317 13.8345ZM12.0415 16.5356L12.7415 14.669L13.4415 16.5356H12.0415ZM20.5066 13.5297C20.3821 13.5297 20.2626 13.5792 20.1745 13.6673C20.0864 13.7554 20.037 13.8748 20.037 13.9994V18.0072C20.037 18.1318 20.0864 18.2512 20.1745 18.3393C20.2626 18.4274 20.3821 18.4769 20.5066 18.4769C20.6312 18.4769 20.7506 18.4274 20.8387 18.3393C20.9268 18.2512 20.9763 18.1318 20.9763 18.0072V13.9994C20.9763 13.8748 20.9268 13.7554 20.8387 13.6673C20.7506 13.5792 20.6312 13.5297 20.5066 13.5297ZM19.3576 5.47022C19.6849 5.57463 20.0072 5.69428 20.3233 5.8288C20.3814 5.85361 20.4439 5.86641 20.5071 5.86643C20.6154 5.86652 20.7204 5.82917 20.8043 5.7607C20.8883 5.69224 20.946 5.59686 20.9676 5.49074C20.9893 5.38461 20.9736 5.27425 20.9233 5.17836C20.8729 5.08246 20.7909 5.00693 20.6912 4.96455C20.348 4.81852 19.9982 4.68862 19.6428 4.57529C19.5246 4.53907 19.3968 4.55094 19.2873 4.60831C19.1778 4.66569 19.0953 4.76394 19.0578 4.88176C19.0202 4.99957 19.0306 5.12743 19.0868 5.2376C19.1429 5.34777 19.2402 5.43136 19.3576 5.47022ZM6.28823 21.2889C6.22857 21.1795 6.12792 21.0983 6.00841 21.0632C5.88891 21.0281 5.76034 21.0418 5.65099 21.1015C5.54164 21.1612 5.46046 21.2618 5.42532 21.3813C5.39019 21.5008 5.40396 21.6294 5.46362 21.7387C5.65947 22.0975 5.87348 22.4461 6.10481 22.7831C6.14796 22.846 6.20582 22.8975 6.27335 22.933C6.34089 22.9685 6.41607 22.987 6.49238 22.9869C6.5779 22.9869 6.66179 22.9634 6.73498 22.9192C6.80817 22.8749 6.86788 22.8115 6.90769 22.7358C6.94749 22.6601 6.96587 22.575 6.96083 22.4896C6.9558 22.4043 6.92755 22.3219 6.87913 22.2514C6.66596 21.9408 6.46873 21.6195 6.28823 21.2889ZM15.0359 27.0149C12.5192 26.798 10.1303 25.7074 8.3093 23.9438C8.2651 23.9004 8.21274 23.8662 8.15526 23.8431C8.09777 23.82 8.03629 23.8086 7.97435 23.8094C7.91242 23.8101 7.85124 23.8232 7.79436 23.8477C7.73748 23.8722 7.68601 23.9077 7.64292 23.9522C7.59983 23.9967 7.56596 24.0493 7.54327 24.107C7.52059 24.1646 7.50952 24.2262 7.51073 24.2881C7.51193 24.35 7.52537 24.4111 7.55027 24.4678C7.57518 24.5245 7.61105 24.5758 7.65584 24.6186C9.63157 26.532 12.2239 27.7154 14.9553 27.9507C15.0794 27.9614 15.2026 27.9223 15.2979 27.8421C15.3932 27.7619 15.4528 27.6472 15.4635 27.5231C15.4742 27.399 15.4352 27.2758 15.355 27.1805C15.2748 27.0851 15.16 27.0256 15.0359 27.0149ZM22.7563 6.09563C22.6535 6.02534 22.5269 5.99879 22.4045 6.02181C22.2821 6.04482 22.1738 6.11553 22.1036 6.21837C22.0333 6.32121 22.0067 6.44776 22.0297 6.57018C22.0527 6.6926 22.1235 6.80086 22.2263 6.87114C24.4083 8.36237 25.9867 10.5814 26.6707 13.1193C26.6976 13.219 26.7565 13.3071 26.8385 13.3699C26.9204 13.4327 27.0207 13.4668 27.1239 13.4669C27.1961 13.4669 27.2672 13.4504 27.3319 13.4185C27.3966 13.3866 27.4531 13.3402 27.497 13.283C27.5409 13.2257 27.571 13.1591 27.585 13.0884C27.599 13.0176 27.5965 12.9446 27.5777 12.8749C26.8355 10.1208 25.1232 7.71323 22.7563 6.09563Z" fill="url(#paint2_linear_44367_865)"/>
</g>
<defs>
<linearGradient id="paint0_linear_44367_865" x1="15.9086" y1="0" x2="15.9086" y2="32" gradientUnits="userSpaceOnUse">
<stop stop-color="#FF7800"/>
<stop offset="1" stop-color="#FF4200"/>
</linearGradient>
<linearGradient id="paint1_linear_44367_865" x1="15.9442" y1="6.51562" x2="15.9442" y2="25.4902" gradientUnits="userSpaceOnUse">
<stop stop-color="#FF7800"/>
<stop offset="1" stop-color="#FF4200"/>
</linearGradient>
<linearGradient id="paint2_linear_44367_865" x1="16.4359" y1="4.55469" x2="16.4359" y2="27.9524" gradientUnits="userSpaceOnUse">
<stop stop-color="#FF7800"/>
<stop offset="1" stop-color="#FF4200"/>
</linearGradient>
<clipPath id="clip0_44367_865">
<rect width="32" height="32" fill="white"/>
</clipPath>
</defs>
</svg>
