<svg width="32" height="32" viewBox="0 0 32 32" fill="none" xmlns="http://www.w3.org/2000/svg">
<path d="M3.55512 30.211H5.77734C6.75779 30.211 7.55512 29.4128 7.55512 28.4333V25.3577C7.55512 24.3773 6.75779 23.5799 5.77734 23.5799H3.55512C2.57468 23.5799 1.77734 24.3773 1.77734 25.3577V28.4333C1.77734 29.4128 2.57468 30.211 3.55512 30.211ZM3.55512 25.3577H5.77734L5.77912 28.4333H3.55512V25.3577ZM11.1107 30.211H13.3329C14.3133 30.211 15.1107 29.4128 15.1107 28.4333V17.411C15.1107 16.4315 14.3133 15.6332 13.3329 15.6332H11.1107C10.1302 15.6332 9.3329 16.4315 9.3329 17.411V28.4333C9.3329 29.4128 10.1302 30.211 11.1107 30.211ZM11.1107 17.411H13.3329L13.3347 28.4333H11.1107V17.411ZM18.6662 18.7266C17.6858 18.7266 16.8885 19.5239 16.8885 20.5044V28.4333C16.8885 29.4128 17.6858 30.211 18.6662 30.211H20.8885C21.8689 30.211 22.6662 29.4128 22.6662 28.4333V20.5044C22.6662 19.5239 21.8689 18.7266 20.8885 18.7266H18.6662ZM18.6662 28.4333V20.5044H20.8885L20.8902 28.4333H18.6662ZM30.2218 28.4333V11.171C30.2218 10.1906 29.4245 9.39325 28.444 9.39325H26.2218C25.2413 9.39325 24.444 10.1906 24.444 11.171V28.4333C24.444 29.4128 25.2413 30.211 26.2218 30.211H28.444C29.4245 30.211 30.2218 29.4128 30.2218 28.4333ZM26.2218 11.171H28.444L28.4458 28.4333H26.2218V11.171ZM5.28579 14.875L11.9933 8.16747C12.1231 8.03834 12.2894 7.95227 12.4697 7.92094C12.6501 7.88961 12.8357 7.91455 13.0013 7.99236L18.2956 10.4821C18.792 10.7158 19.3484 10.7907 19.889 10.6965C20.4295 10.6023 20.9279 10.3437 21.316 9.95592L27.9711 3.30169C28.056 3.2197 28.1237 3.12161 28.1703 3.01316C28.2169 2.90472 28.2414 2.78808 28.2425 2.67005C28.2435 2.55202 28.221 2.43498 28.1763 2.32573C28.1316 2.21649 28.0656 2.11725 27.9821 2.03379C27.8987 1.95033 27.7994 1.88432 27.6902 1.83963C27.581 1.79494 27.4639 1.77245 27.3459 1.77347C27.2278 1.7745 27.1112 1.79902 27.0028 1.8456C26.8943 1.89219 26.7962 1.95991 26.7142 2.0448L20.0591 8.69992C19.9297 8.82901 19.7637 8.91508 19.5837 8.94642C19.4036 8.97775 19.2183 8.95282 19.0529 8.87503L13.7587 6.38347C13.2615 6.15115 12.705 6.07721 12.1644 6.17165C11.6239 6.26609 11.1254 6.52435 10.7365 6.91147L4.0289 13.619C3.944 13.701 3.87628 13.7991 3.8297 13.9076C3.78311 14.016 3.75859 14.1326 3.75757 14.2507C3.75654 14.3687 3.77903 14.4857 3.82372 14.595C3.86842 14.7042 3.93442 14.8035 4.01788 14.8869C4.10134 14.9704 4.20059 15.0364 4.30983 15.0811C4.41907 15.1258 4.53612 15.1483 4.65414 15.1473C4.77217 15.1462 4.88881 15.1217 4.99726 15.0751C5.10571 15.0285 5.20379 14.9608 5.28579 14.8759V14.875Z" fill="url(#paint0_linear_44367_890)"/>
<defs>
<linearGradient id="paint0_linear_44367_890" x1="15.9174" y1="1.77344" x2="15.9174" y2="30.211" gradientUnits="userSpaceOnUse">
<stop stop-color="#FF7800"/>
<stop offset="1" stop-color="#FF4200"/>
</linearGradient>
</defs>
</svg>
