<svg width="40" height="40" viewBox="0 0 40 40" fill="none" xmlns="http://www.w3.org/2000/svg">
<path d="M28.1295 5.56494C32.99 8.44694 36.2593 13.8329 36.2593 20.0019M28.1295 5.56494V11.6689M28.1295 5.56494H34.0846M34.0846 28.3349C31.2729 33.3169 26.0183 36.6689 19.9997 36.6689M34.0846 28.3349H28.1295M34.0846 28.3349V34.4389M11.87 34.4389C7.00853 31.5569 3.73828 26.1719 3.73828 20.0019M11.868 28.3359V34.4389H5.91487M5.91487 11.6689C8.7256 6.68694 13.9802 3.33594 19.9997 3.33594M5.91487 11.6689H11.869M5.91487 11.6689V5.56494" stroke="#5339FF" stroke-width="2.2" stroke-linecap="round" stroke-linejoin="round"/>
<path d="M34.0836 28.3369C31.2719 33.3179 26.0173 36.6699 19.9988 36.6699M34.0836 28.3369L28.1285 28.3359M34.0836 28.3369V34.4399M11.868 34.4399C7.00853 31.5579 3.73828 26.1719 3.73828 20.0029M11.868 34.4399V28.3359M11.868 34.4399H5.91389M5.91389 11.6699C8.7256 6.68794 13.9802 3.33594 19.9988 3.33594M5.91389 11.6699H11.869M5.91389 11.6699V5.56594M28.1285 5.56594C32.989 8.44794 36.2583 13.8339 36.2583 20.0029M28.1285 5.56594V11.6699M28.1285 5.56594H34.0836" stroke="#5339FF" stroke-width="2.2" stroke-linecap="round" stroke-linejoin="round"/>
</svg>
