<svg width="40" height="40" viewBox="0 0 40 40" fill="none" xmlns="http://www.w3.org/2000/svg">
<path d="M19.0187 28.1875H16.0716C15.3778 28.1898 14.7131 28.4664 14.2225 28.957C13.7319 29.4475 13.4553 30.1123 13.453 30.8061V31.1346H12.143C11.8832 31.1365 11.6345 31.2405 11.4506 31.4241C11.2667 31.6077 11.1624 31.8562 11.1602 32.1161C11.1602 32.6532 11.6059 33.0989 12.143 33.0989H27.8573C28.1175 33.0974 28.3666 32.9934 28.5506 32.8094C28.7346 32.6254 28.8387 32.3763 28.8402 32.1161C28.8383 31.856 28.7341 31.6071 28.5502 31.4232C28.3663 31.2392 28.1174 31.1351 27.8573 31.1332H26.5473V30.8061C26.545 30.1123 26.2684 29.4475 25.7778 28.957C25.2872 28.4664 24.6225 28.1898 23.9287 28.1875H20.9816V25.1875C20.6558 25.225 20.3281 25.2427 20.0002 25.2404C19.6716 25.2404 19.3459 25.2275 19.0173 25.1889L19.0187 28.1875Z" fill="#7A5AF8"/>
<path d="M28.484 19.5305C29.3205 19.203 30.0789 18.7031 30.7097 18.0634C31.9283 16.7148 32.7268 15.1034 32.7268 13.2177C32.7312 12.7745 32.6472 12.335 32.4795 11.9247C32.3119 11.5145 32.0642 11.1418 31.7507 10.8285C31.4373 10.5152 31.0645 10.2676 30.6542 10.1001C30.2439 9.93269 29.8043 9.84881 29.3611 9.85339H28.6283C28.1999 8.97092 27.5321 8.22664 26.7011 7.70552C25.87 7.18441 24.9092 6.90744 23.9283 6.90625H16.0711C15.0897 6.90691 14.1283 7.18362 13.2966 7.70477C12.465 8.22591 11.7968 8.97048 11.3683 9.85339H10.6354C10.1924 9.84881 9.75288 9.93265 9.34266 10.1C8.93243 10.2673 8.5597 10.5148 8.24628 10.828C7.93287 11.1411 7.68507 11.5136 7.51738 11.9237C7.34969 12.3338 7.26548 12.7732 7.26968 13.2162C7.26968 15.102 8.06968 16.7134 9.28682 18.062C9.88825 18.6648 10.6483 19.2005 11.5125 19.5291C12.1968 21.2182 13.3703 22.6643 14.8823 23.6817C16.3943 24.6991 18.1758 25.2415 19.9983 25.2391C21.8205 25.2416 23.602 24.6994 25.114 23.6823C26.6259 22.6651 27.7995 21.2194 28.484 19.5305ZM23.7168 15.352L22.9054 16.3477C22.7648 16.5266 22.6906 16.7487 22.6954 16.9762L22.774 18.2605C22.8268 19.0462 22.264 19.452 21.5311 19.1634L20.3383 18.692C20.1163 18.6267 19.8802 18.6267 19.6583 18.692L18.4668 19.1634C17.7325 19.452 17.1697 19.0462 17.2225 18.2591L17.3011 16.9762C17.3059 16.7487 17.2317 16.5266 17.0911 16.3477L16.2797 15.352C15.7683 14.7505 15.9911 14.082 16.7511 13.8862L17.994 13.572C18.2131 13.5001 18.4021 13.3574 18.5311 13.1662L19.2254 12.092C19.6583 11.4248 20.3397 11.4248 20.7711 12.092L21.4654 13.1662C21.5944 13.3574 21.7834 13.5001 22.0025 13.572L23.2454 13.8862C24.0054 14.082 24.2283 14.7505 23.7168 15.3534V15.352Z" fill="#7A5AF8"/>
</svg>
