<svg width="40" height="40" viewBox="0 0 40 40" fill="none" xmlns="http://www.w3.org/2000/svg">
<path d="M32.115 28.4729L29.9536 28.9843C29.717 29.0378 29.5004 29.1572 29.3287 29.3285C29.1571 29.4999 29.0374 29.7164 28.9836 29.9529L28.5264 31.8786C28.2764 32.9257 26.9407 33.2529 26.2464 32.4286L22.3321 27.9229C22.2593 27.8391 22.2089 27.7381 22.186 27.6294C22.163 27.5207 22.1682 27.408 22.2009 27.3019C22.2337 27.1958 22.2929 27.0998 22.3732 27.0229C22.4534 26.9461 22.5518 26.891 22.6593 26.8629C24.9835 26.2977 27.0636 24.9982 28.5907 23.1572C28.6472 23.0849 28.7183 23.0253 28.7993 22.9823C28.8803 22.9394 28.9695 22.9139 29.061 22.9077C29.1526 22.9015 29.2444 22.9147 29.3305 22.9464C29.4165 22.978 29.495 23.0274 29.5607 23.0915L32.4679 25.9986C33.4621 26.9929 33.1107 28.2372 32.115 28.4729Z" fill="#7A5AF8"/>
<path d="M7.82148 28.4729L9.98148 28.9843C10.2181 29.0378 10.4347 29.1572 10.6063 29.3285C10.778 29.4999 10.8976 29.7164 10.9515 29.9529L11.4086 31.8786C11.6586 32.9257 12.9943 33.2529 13.6886 32.4286L17.6029 27.9229C17.6758 27.8391 17.7261 27.7381 17.7491 27.6294C17.772 27.5207 17.7669 27.408 17.7341 27.3019C17.7014 27.1958 17.6421 27.0998 17.5619 27.0229C17.4817 26.9461 17.3832 26.891 17.2758 26.8629C14.9515 26.2977 12.8715 24.9982 11.3443 23.1572C11.2879 23.0849 11.2168 23.0253 11.1358 22.9823C11.0547 22.9394 10.9655 22.9139 10.874 22.9077C10.7825 22.9015 10.6907 22.9147 10.6046 22.9464C10.5185 22.978 10.44 23.0274 10.3743 23.0915L7.46719 25.9986C6.47291 26.9929 6.82576 28.2372 7.82148 28.4729Z" fill="#7A5AF8"/>
<path d="M19.9992 6.90625C18.7951 6.90531 17.6026 7.14179 16.49 7.60215C15.3773 8.06251 14.3664 8.73772 13.5149 9.58915C12.6635 10.4406 11.9883 11.4515 11.5279 12.5642C11.0676 13.6768 10.8311 14.8693 10.832 16.0734C10.832 17.972 11.3949 19.7134 12.3649 21.1677C13.0749 22.2266 13.9985 23.1253 15.0763 23.8063C16.1541 24.4872 17.3623 24.9354 18.6235 25.122C19.0692 25.2005 19.5277 25.2391 19.9992 25.2391C20.4706 25.2391 20.9277 25.2005 21.3735 25.122C22.6349 24.9356 23.8434 24.4875 24.9215 23.8065C25.9995 23.1256 26.9233 22.2267 27.6335 21.1677C28.6391 19.6595 29.1727 17.8861 29.1663 16.0734C29.1673 14.8693 28.9308 13.6768 28.4704 12.5642C28.0101 11.4515 27.3349 10.4406 26.4834 9.58915C25.632 8.73772 24.621 8.06251 23.5084 7.60215C22.3958 7.14179 21.2033 6.90531 19.9992 6.90625ZM24.0063 15.7848L22.9206 16.8705C22.8237 16.9773 22.7529 17.1052 22.714 17.2441C22.6751 17.3829 22.669 17.5289 22.6963 17.6705L23.0106 19.0191C23.2592 20.0805 22.6963 20.4991 21.7535 19.9363L20.4449 19.1634C20.3119 19.0925 20.1635 19.0554 20.0127 19.0554C19.862 19.0554 19.7136 19.0925 19.5806 19.1634L18.2706 19.9348C17.3277 20.4863 16.7649 20.0805 17.0135 19.0205L17.3277 17.6705C17.3508 17.529 17.3429 17.3841 17.3044 17.246C17.2659 17.1079 17.1978 16.9797 17.1049 16.8705L15.9906 15.7848C15.3506 15.142 15.5592 14.502 16.4506 14.3563L17.8506 14.122C17.9794 14.0923 18.1006 14.0363 18.2066 13.9573C18.3126 13.8784 18.401 13.7783 18.4663 13.6634L19.2392 12.1177C19.6592 11.2805 20.3392 11.2805 20.7592 12.1177L21.5306 13.6634C21.5972 13.7797 21.6876 13.8805 21.7959 13.9593C21.9043 14.0381 22.0281 14.093 22.1592 14.1205L23.5606 14.3577C24.4377 14.5005 24.6477 15.1434 24.0063 15.7848Z" fill="#7A5AF8"/>
</svg>
