<svg width="40" height="40" viewBox="0 0 40 40" fill="none" xmlns="http://www.w3.org/2000/svg">
<path d="M33.6584 18.2002L31.7155 15.9431C31.3441 15.5145 31.0441 14.7145 31.0441 14.1431V11.7145C31.0441 10.2002 29.8012 8.95737 28.2869 8.95737H25.8584C25.3012 8.95737 24.4869 8.65737 24.0584 8.28594L21.8012 6.34308C20.8155 5.50022 19.2012 5.50022 18.2012 6.34308L15.9584 8.30022C15.5298 8.65737 14.7155 8.95737 14.1584 8.95737H11.6869C10.1727 8.95737 8.9298 10.2002 8.9298 11.7145V14.1574C8.9298 14.7145 8.6298 15.5145 8.27266 15.9431L6.34408 18.2145C5.51551 19.2002 5.51551 20.8002 6.34408 21.7859L8.27266 24.0574C8.6298 24.4859 8.9298 25.2859 8.9298 25.8431V28.2859C8.9298 29.8002 10.1727 31.0431 11.6869 31.0431H14.1584C14.7155 31.0431 15.5298 31.3431 15.9584 31.7145L18.2155 33.6574C19.2012 34.5002 20.8155 34.5002 21.8155 33.6574L24.0727 31.7145C24.5012 31.3431 25.3012 31.0431 25.8727 31.0431H28.3012C29.8155 31.0431 31.0584 29.8002 31.0584 28.2859V25.8574C31.0584 25.3002 31.3584 24.4859 31.7298 24.0574L33.6727 21.8002C34.5012 20.8145 34.5012 19.1859 33.6584 18.2002ZM26.6869 20.0002L25.0155 25.0859C24.8012 25.9288 23.9012 26.6145 22.9869 26.6145H20.3441C19.8869 26.6145 19.2441 26.4574 18.9584 26.1716L16.8584 24.5288C16.8155 25.4431 16.4012 25.8288 15.3869 25.8288H14.7012C13.6441 25.8288 13.2155 25.4145 13.2155 24.4145V17.5859C13.2155 16.5859 13.6441 16.1717 14.7012 16.1717H15.4012C16.4584 16.1717 16.8869 16.5859 16.8869 17.5859V18.1002L19.6584 13.9859C19.9441 13.5431 20.6727 13.2288 21.2869 13.4717C21.9584 13.7002 22.3869 14.4431 22.2441 15.1002L21.9012 17.3288C21.8727 17.5288 21.9155 17.7145 22.0441 17.8574C22.1584 17.9859 22.3298 18.0716 22.5155 18.0716H25.3012C25.8441 18.0716 26.3012 18.2859 26.5727 18.6716C26.8155 19.0431 26.8584 19.5145 26.6869 20.0002Z" fill="#7A5AF8"/>
</svg>
