<svg width="20" height="21" viewBox="0 0 20 21" fill="none" xmlns="http://www.w3.org/2000/svg">
<path d="M17.5328 8.64062C17.2281 8.32266 16.9133 7.99453 16.7867 7.68906C16.6695 7.40547 16.6633 6.98594 16.6562 6.54219C16.6453 5.80937 16.6328 4.97969 16.0766 4.42344C15.5203 3.86719 14.6875 3.85469 13.9578 3.84375C13.5141 3.83672 13.0984 3.83047 12.8109 3.71328C12.5055 3.58672 12.1773 3.27188 11.8594 2.96719C11.3406 2.47031 10.7531 1.90625 10 1.90625C9.24687 1.90625 8.65937 2.47031 8.14062 2.96719C7.82266 3.27188 7.49453 3.58672 7.18906 3.71328C6.90547 3.83047 6.48594 3.83672 6.04219 3.84375C5.30937 3.85469 4.47969 3.86719 3.92344 4.42344C3.36719 4.97969 3.35469 5.8125 3.34375 6.54219C3.33672 6.98594 3.33047 7.40156 3.21328 7.68906C3.08672 7.99453 2.77188 8.32266 2.46719 8.64062C1.97031 9.15937 1.40625 9.74687 1.40625 10.5C1.40625 11.2531 1.97031 11.8406 2.46719 12.3594C2.77188 12.6773 3.08672 13.0055 3.21328 13.3109C3.33047 13.5945 3.33672 14.0141 3.34375 14.4578C3.35469 15.1906 3.36719 16.0203 3.92344 16.5766C4.47969 17.1328 5.3125 17.1453 6.04219 17.1562C6.48594 17.1633 6.90156 17.1695 7.18906 17.2867C7.49453 17.4133 7.82266 17.7281 8.14062 18.0328C8.65937 18.5297 9.24687 19.0938 10 19.0938C10.7531 19.0938 11.3406 18.5297 11.8594 18.0328C12.1773 17.7281 12.5055 17.4133 12.8109 17.2867C13.0945 17.1695 13.5141 17.1633 13.9578 17.1562C14.6906 17.1453 15.5203 17.1328 16.0766 16.5766C16.6328 16.0203 16.6453 15.1906 16.6562 14.4578C16.6633 14.0141 16.6695 13.5984 16.7867 13.3109C16.9133 13.0055 17.2281 12.6773 17.5328 12.3594C18.0297 11.8406 18.5938 11.2531 18.5938 10.5C18.5938 9.74687 18.0297 9.15937 17.5328 8.64062ZM16.8562 11.7109C16.4914 12.0906 16.1141 12.4844 15.9187 12.9531C15.7328 13.4016 15.725 13.9312 15.7172 14.4437C15.7086 15.025 15.6992 15.6266 15.4125 15.9141C15.1258 16.2016 14.5234 16.2102 13.9422 16.2188C13.4297 16.2266 12.9 16.2344 12.4516 16.4203C11.9828 16.6141 11.5922 16.9914 11.2086 17.3578C10.7984 17.7484 10.3742 18.1578 9.99844 18.1578C9.62266 18.1578 9.19844 17.7508 8.7875 17.3578C8.40781 16.993 8.01406 16.6156 7.54531 16.4203C7.09688 16.2344 6.56719 16.2266 6.05469 16.2188C5.47344 16.2102 4.87188 16.2008 4.58437 15.9141C4.29688 15.6273 4.28828 15.025 4.27969 14.4437C4.27187 13.9312 4.26406 13.4016 4.07812 12.9531C3.88438 12.4844 3.50703 12.0938 3.14062 11.7102C2.75078 11.3 2.34375 10.8758 2.34375 10.5C2.34375 10.1242 2.75078 9.7 3.14375 9.28906C3.50859 8.90938 3.88594 8.51562 4.08125 8.04688C4.26719 7.59844 4.275 7.06875 4.28281 6.55625C4.29141 5.975 4.30078 5.37344 4.5875 5.08594C4.87422 4.79844 5.47656 4.78984 6.05781 4.78125C6.57031 4.77344 7.1 4.76562 7.54844 4.57969C8.01719 4.38594 8.40781 4.00859 8.79141 3.64219C9.2 3.25078 9.62422 2.84375 10 2.84375C10.3758 2.84375 10.8 3.25078 11.2109 3.64375C11.5906 4.00859 11.9844 4.38594 12.4531 4.58125C12.9016 4.76719 13.4312 4.775 13.9437 4.78281C14.525 4.79141 15.1266 4.80078 15.4141 5.0875C15.7016 5.37422 15.7102 5.97656 15.7188 6.55781C15.7266 7.07031 15.7344 7.6 15.9203 8.04844C16.1141 8.51719 16.4914 8.90781 16.8578 9.29141C17.2484 9.70156 17.6578 10.1258 17.6578 10.5016C17.6578 10.8773 17.2492 11.3 16.8562 11.7109ZM13.4563 8.29375C13.544 8.38164 13.5933 8.50078 13.5933 8.625C13.5933 8.74922 13.544 8.86836 13.4563 8.95625L9.08125 13.3313C8.99336 13.419 8.87422 13.4683 8.75 13.4683C8.62578 13.4683 8.50664 13.419 8.41875 13.3313L6.54375 11.4563C6.46095 11.3674 6.41587 11.2499 6.41802 11.1284C6.42016 11.007 6.46935 10.8911 6.55524 10.8052C6.64112 10.7194 6.75699 10.6702 6.87842 10.668C6.99986 10.6659 7.11739 10.7109 7.20625 10.7937L8.75 12.3367L12.7937 8.29375C12.8816 8.20597 13.0008 8.15666 13.125 8.15666C13.2492 8.15666 13.3684 8.20597 13.4563 8.29375Z" fill="url(#paint0_linear_44138_933)"/>
<defs>
<linearGradient id="paint0_linear_44138_933" x1="9.95033" y1="1.90625" x2="9.95033" y2="19.0937" gradientUnits="userSpaceOnUse">
<stop stop-color="#FF7800"/>
<stop offset="1" stop-color="#FF4200"/>
</linearGradient>
</defs>
</svg>
