<svg width="24" height="24" viewBox="0 0 24 24" fill="none" xmlns="http://www.w3.org/2000/svg">
<path d="M17.0008 21.9766H7C6.80157 21.975 6.61172 21.8955 6.4714 21.7552C6.33109 21.6148 6.25157 21.425 6.25 21.2266C6.25157 21.0281 6.33109 20.8383 6.4714 20.698C6.61172 20.5577 6.80157 20.4781 7 20.4766H17.0008C17.1992 20.4781 17.3891 20.5577 17.5294 20.698C17.6697 20.8383 17.7492 21.0281 17.7508 21.2266C17.7492 21.425 17.6697 21.6148 17.5294 21.7552C17.3891 21.8955 17.1992 21.975 17.0008 21.9766Z" fill="#7A5AF8"/>
<path d="M20.3518 5.51906L16.3522 8.37866C16.2271 8.46707 16.0835 8.52578 15.9323 8.55032C15.7811 8.57485 15.6263 8.56457 15.4797 8.52025C15.3331 8.47593 15.1985 8.39874 15.0863 8.29456C14.974 8.19038 14.8869 8.06196 14.8318 7.91906L12.9418 2.87906C12.6226 2.00906 11.3926 2.00906 11.0722 2.87906L9.17259 7.90706C9.12054 8.05127 9.03559 8.18136 8.92449 8.287C8.81339 8.39265 8.67919 8.47094 8.53254 8.51567C8.3859 8.5604 8.23085 8.57033 8.0797 8.54467C7.92855 8.51901 7.78546 8.45848 7.66179 8.36786L3.66219 5.50706C2.86179 4.94786 1.80219 5.73746 2.13219 6.66746L6.29259 18.3171C6.43179 18.7179 6.81219 18.9771 7.23219 18.9771H16.7626C17.1826 18.9771 17.5618 18.7071 17.7022 18.3171L21.8626 6.66746C22.2022 5.73746 21.1426 4.94906 20.3518 5.51906ZM14.5018 14.7483H9.50259C9.30416 14.7467 9.11431 14.6672 8.97399 14.5269C8.83368 14.3865 8.75416 14.1967 8.75259 13.9983C8.75416 13.7998 8.83368 13.61 8.97399 13.4697C9.11431 13.3294 9.30416 13.2498 9.50259 13.2483H14.5018C14.7002 13.2498 14.8901 13.3294 15.0304 13.4697C15.1707 13.61 15.2502 13.7998 15.2518 13.9983C15.2502 14.1967 15.1707 14.3865 15.0304 14.5269C14.8901 14.6672 14.7002 14.7467 14.5018 14.7483Z" fill="#7A5AF8"/>
</svg>
