<svg width="24" height="24" viewBox="0 0 24 24" fill="none" xmlns="http://www.w3.org/2000/svg">
<path d="M19.5008 7.50245L18.0117 8.99263L15.0117 5.99263L16.5019 4.50245C16.9219 4.08245 17.4619 3.88281 18.0019 3.88281C18.5419 3.88281 19.0819 4.08245 19.5019 4.50245C20.331 5.33263 20.3299 6.67336 19.5008 7.50245Z" fill="#7A5AF8"/>
<path d="M17.31 9.70312L6.50023 20.5031C6.1024 20.901 5.56284 21.1244 5.00023 21.1244C4.43762 21.1244 3.89805 20.901 3.50023 20.5031C3.1024 20.1053 2.87891 19.5657 2.87891 19.0031C2.87891 18.4405 3.1024 17.901 3.50023 17.5031L14.3111 6.70312L17.3111 9.70312H17.31Z" fill="#7A5AF8"/>
<path d="M9.9494 3.50043L10.3607 2.11061C10.3789 2.04623 10.3802 1.97822 10.3643 1.91322C10.3484 1.84822 10.316 1.78843 10.2701 1.7397C10.2218 1.69024 10.161 1.65487 10.0941 1.63739C10.0272 1.6199 9.95682 1.62095 9.89049 1.64043L8.50067 2.05061L7.11085 1.64043C7.04657 1.62205 6.97862 1.62063 6.91362 1.63631C6.84862 1.65198 6.78879 1.68422 6.73994 1.72988C6.69221 1.7774 6.65858 1.83721 6.64279 1.90269C6.627 1.96817 6.62966 2.03674 6.65049 2.10079L7.05085 3.50043L6.64067 4.89024C6.60031 5.02115 6.64067 5.16079 6.73013 5.26115C6.83049 5.36043 6.97013 5.38988 7.10103 5.35061L8.50067 4.95024L9.89049 5.36043C9.93085 5.37133 9.96031 5.38006 9.99958 5.38006C10.1002 5.37859 10.1966 5.3397 10.2701 5.27097C10.318 5.22357 10.3519 5.16381 10.3679 5.09833C10.3839 5.03284 10.3814 4.96421 10.3607 4.90006L9.9494 3.50043Z" fill="#7A5AF8"/>
<path d="M5.95049 9.49991L6.36067 8.1101C6.37891 8.04572 6.38015 7.97771 6.36428 7.91271C6.34841 7.8477 6.31597 7.78792 6.27013 7.73919C6.22271 7.69165 6.16308 7.65814 6.09782 7.64235C6.03256 7.62657 5.96421 7.62912 5.90031 7.64973L4.50067 8.0501L3.11085 7.63991C3.04657 7.62154 2.97862 7.62012 2.91362 7.63579C2.84862 7.65147 2.78879 7.68371 2.73994 7.72937C2.69221 7.77688 2.65858 7.8367 2.64279 7.90218C2.627 7.96765 2.62966 8.03623 2.65049 8.10028L3.05085 9.49991L2.64067 10.8897C2.60031 11.0206 2.64067 11.1603 2.73013 11.2606C2.83049 11.3599 2.97013 11.3905 3.10103 11.3501L4.49085 10.9399L5.88067 11.3501C5.91636 11.3587 5.95311 11.362 5.98976 11.3599C6.09037 11.3584 6.18682 11.3196 6.26031 11.2508C6.30823 11.2034 6.34207 11.1437 6.35805 11.0782C6.37404 11.0127 6.37155 10.9441 6.35085 10.8799L5.95049 9.49991Z" fill="#7A5AF8"/>
<path d="M20.9484 14.5009L21.3586 13.111C21.377 13.0467 21.3784 12.9788 21.3627 12.9138C21.347 12.8488 21.3148 12.789 21.2691 12.7401C21.2216 12.6924 21.1618 12.6588 21.0963 12.643C21.0308 12.6272 20.9623 12.6298 20.8982 12.6507L19.5084 13.0609L18.1186 12.6507C18.0542 12.6324 17.9862 12.6312 17.9212 12.6471C17.8562 12.6629 17.7964 12.6954 17.7477 12.7412C17.7001 12.7886 17.6666 12.8483 17.6508 12.9135C17.6351 12.9788 17.6376 13.0471 17.6582 13.111L18.0684 14.5009L17.6582 15.8907C17.6189 16.0216 17.6582 16.1612 17.7488 16.2616C17.848 16.3609 17.9888 16.3914 18.1186 16.351L19.5084 15.9409L20.8982 16.351C20.9288 16.3619 20.968 16.3619 21.0084 16.3619C21.1093 16.3599 21.2058 16.3202 21.2789 16.2507C21.3265 16.2033 21.36 16.1436 21.3758 16.0784C21.3916 16.0131 21.389 15.9448 21.3684 15.8809L20.9484 14.5009Z" fill="#7A5AF8"/>
</svg>
