<svg width="20" height="20" viewBox="0 0 20 20" fill="none" xmlns="http://www.w3.org/2000/svg">
<g clip-path="url(#clip0_43996_26)">
<path d="M11.0423 9.9977C11.3186 9.9977 11.5836 9.88794 11.779 9.69256C11.9744 9.49718 12.0841 9.23219 12.0841 8.95588C12.0841 8.67957 11.9744 8.41458 11.779 8.2192C11.5836 8.02382 11.3186 7.91406 11.0423 7.91406C10.7714 7.92207 10.5144 8.03529 10.3256 8.22971C10.1368 8.42413 10.0312 8.68445 10.0312 8.95543C10.0312 9.22641 10.1368 9.48672 10.3256 9.68114C10.5144 9.87556 10.7714 9.98879 11.0423 9.99679V9.9977Z" fill="#7A5AF8"/>
<path d="M14.1967 0H5.81204C2.17092 0 0 2.16986 0 5.8092V14.1799C0 17.8301 2.17092 20 5.81204 20H14.1868C17.829 20 20 17.8291 20 14.1897V5.8092C20.0098 2.16986 17.8389 0 14.1967 0ZM13.8965 11.47C13.4078 11.9566 12.7953 12.3003 12.1253 12.4641C11.4553 12.6279 10.7532 12.6056 10.0949 12.3995L9.03404 13.4501C8.98612 13.4932 8.92391 13.5171 8.8594 13.5171C8.7949 13.5171 8.73269 13.4932 8.68477 13.4501L7.71337 12.4791C7.64153 12.4117 7.54669 12.3742 7.44814 12.3742C7.3496 12.3742 7.25476 12.4117 7.18292 12.4791C7.03339 12.6199 7.04321 12.8599 7.18292 13.0093L8.15432 13.9803C8.17782 14.0029 8.19652 14.03 8.2093 14.06C8.22207 14.0899 8.22865 14.1222 8.22865 14.1548C8.22865 14.1874 8.22207 14.2197 8.2093 14.2497C8.19652 14.2796 8.17782 14.3068 8.15432 14.3294L7.74284 14.7395C7.64453 14.8322 7.52789 14.9033 7.40044 14.9482C7.27299 14.9931 7.13755 15.0108 7.00283 15.0003L5.91245 14.8497C5.55227 14.7995 5.22156 14.4603 5.16153 14.0992L5.012 13.0093C4.97161 12.7693 5.09167 12.4399 5.25212 12.2697L7.60313 9.91982C7.39891 9.26088 7.3786 8.5587 7.54441 7.88907C7.71022 7.21944 8.05584 6.60779 8.54397 6.12011C9.2555 5.41395 10.2175 5.01765 11.2202 5.01765C12.2229 5.01765 13.185 5.41395 13.8965 6.12011C14.2486 6.47105 14.5279 6.88797 14.7185 7.34699C14.9091 7.806 15.0072 8.2981 15.0072 8.79507C15.0072 9.29204 14.9091 9.78413 14.7185 10.2431C14.5279 10.7022 14.2486 11.1191 13.8965 11.47Z" fill="#7A5AF8"/>
</g>
<defs>
<clipPath id="clip0_43996_26">
<rect width="20" height="20" fill="white"/>
</clipPath>
</defs>
</svg>
