<svg width="24" height="24" viewBox="0 0 24 24" fill="none" xmlns="http://www.w3.org/2000/svg">
<path d="M8.99731 2C7.7376 2.00127 6.52985 2.50225 5.6391 3.393C4.74835 4.28375 4.24736 5.4915 4.24609 6.75121C4.24609 9.32249 6.25678 11.4028 8.87727 11.4928C8.95015 11.4828 9.02406 11.4828 9.09694 11.4928H9.16777C10.3974 11.4517 11.5629 10.934 12.4178 10.0491C13.2726 9.16421 13.7498 7.98157 13.7485 6.75121C13.7473 5.4915 13.2463 4.28375 12.3555 3.393C11.4648 2.50225 10.257 2.00127 8.99731 2Z" fill="#7A5AF8"/>
<path d="M14.0812 14.1455C11.2902 12.2848 6.73946 12.2848 3.9281 14.1455C2.65807 14.9978 1.95703 16.1478 1.95703 17.3782C1.95703 18.6086 2.65807 19.749 3.9185 20.5893C5.31817 21.5292 7.1596 21.9997 8.99983 21.9997C10.8401 21.9997 12.6815 21.5292 14.0812 20.5893C15.3416 19.7382 16.0426 18.5978 16.0426 17.3578C16.0318 16.1273 15.3416 14.987 14.0812 14.1467V14.1455Z" fill="#7A5AF8"/>
<path d="M19.9914 7.33714C20.0737 8.26248 19.7931 9.18357 19.2089 9.90592C18.6248 10.6283 17.7828 11.0953 16.8607 11.2085H16.8103C16.7503 11.2085 16.6903 11.2085 16.641 11.2289C15.7218 11.2871 14.8154 10.9896 14.1094 10.3982C14.6369 9.92403 15.047 9.33381 15.3074 8.67406C15.5678 8.01432 15.6713 7.30309 15.6099 6.59649C15.5413 5.81658 15.2766 5.06668 14.8404 4.41655C15.3646 4.16166 15.9429 4.03809 16.5255 4.05648C17.108 4.07487 17.6774 4.23467 18.1845 4.5221C18.6915 4.80954 19.1211 5.21598 19.4361 5.70639C19.751 6.19681 19.9408 6.75647 19.9914 7.33714Z" fill="#7A5AF8"/>
<path d="M21.9914 16.5913C21.911 17.5625 21.2904 18.4016 20.2508 18.9717C19.2497 19.5227 17.9904 19.7832 16.7396 19.752C17.4599 19.1026 17.88 18.2923 17.9604 17.4316C18.0601 16.1916 17.4695 15.0008 16.2895 14.0513C15.5944 13.5113 14.8176 13.0858 13.9883 12.7908C16.1994 12.1498 18.9808 12.5808 20.6902 13.9612C21.6109 14.7007 22.0814 15.631 21.9914 16.5913Z" fill="#7A5AF8"/>
</svg>
