<svg width="24" height="24" viewBox="0 0 24 24" fill="none" xmlns="http://www.w3.org/2000/svg">
<path d="M6.6692 14H3.9992C2.9 14 2 14.9 2 16.0004V20.9996C2 21.5504 2.45 22.0004 2.9996 22.0004H6.6692C6.93443 21.9998 7.18862 21.8941 7.37617 21.7066C7.56372 21.519 7.66937 21.2648 7.67 20.9996V14.9996C7.66905 14.7346 7.56326 14.4807 7.37575 14.2934C7.18823 14.1061 6.93423 14.0006 6.6692 14Z" fill="#7A5AF8"/>
<path d="M13.3294 10H10.6594C9.56016 10 8.66016 10.9 8.66016 12.0004V21.0004C8.66016 21.55 9.11016 22 9.65976 22H14.3302C14.595 21.9991 14.8487 21.8934 15.0359 21.7062C15.2232 21.5189 15.3288 21.2652 15.3298 21.0004V12.0004C15.3298 10.9 14.4394 10 13.3294 10Z" fill="#7A5AF8"/>
<path d="M19.9989 17H17.3289C17.0639 17.0006 16.8099 17.1061 16.6224 17.2934C16.4349 17.4807 16.3291 17.7346 16.3281 17.9996V20.9996C16.3281 21.5504 16.7781 22.0004 17.3289 22.0004H20.9985C21.2636 21.9995 21.5174 21.8937 21.7047 21.7062C21.892 21.5186 21.9975 21.2646 21.9981 20.9996V19.0004C21.9981 17.9 21.0981 17 19.9989 17Z" fill="#7A5AF8"/>
<path d="M15.0091 4.84616C15.3199 4.53656 15.4399 4.16696 15.3391 3.84656C15.2395 3.52616 14.9299 3.29696 14.4895 3.22616L13.5295 3.06656C13.4899 3.06656 13.3999 2.99696 13.3795 2.95616L12.8491 1.89656C12.4495 1.08656 11.5399 1.08656 11.1391 1.89656L10.6099 2.95616C10.5991 2.99696 10.5091 3.06656 10.4695 3.06656L9.50948 3.22616C9.06908 3.29696 8.76908 3.52616 8.65988 3.84656C8.55908 4.16696 8.67908 4.53656 8.98988 4.84616L9.72908 5.59616C9.76988 5.62616 9.79988 5.74616 9.78908 5.78696L9.57908 6.70616C9.41948 7.39616 9.67988 7.70696 9.84908 7.82696C10.0195 7.94696 10.3891 8.10656 10.9999 7.74656L11.8999 7.21616C11.9395 7.18616 12.0691 7.18616 12.1099 7.21616L12.9991 7.74656C13.2799 7.91696 13.5091 7.96616 13.6891 7.96616C13.8991 7.96616 14.0491 7.88696 14.1391 7.82696C14.3095 7.70696 14.5699 7.39616 14.4091 6.70616L14.1991 5.78696C14.1895 5.73656 14.2195 5.62616 14.2591 5.59616L15.0091 4.84616Z" fill="#7A5AF8"/>
</svg>
