<svg width="35" height="35" viewBox="0 0 35 35" fill="none" xmlns="http://www.w3.org/2000/svg">
<path d="M25.0195 27.0703C24.6422 27.0703 24.3359 27.3766 24.3359 27.7539C24.3359 28.1313 24.6422 28.4375 25.0195 28.4375C25.3969 28.4375 25.7031 28.1313 25.7031 27.7539C25.7031 27.3766 25.3969 27.0703 25.0195 27.0703Z" fill="url(#paint0_linear_44220_525)"/>
<path d="M26.7027 24.8598L23.4536 23.777L22.2871 21.4441C23.338 20.3745 24.0676 18.9593 24.3136 17.4833L24.4591 16.6113H25.7031C26.8339 16.6113 27.7539 15.6913 27.7539 14.5605V10.2539C27.7539 4.5999 23.154 0 17.5 0C11.8315 0 7.24609 4.58671 7.24609 10.2539V14.5605C7.24609 15.4517 7.81765 16.2116 8.61328 16.4937V17.2949C8.61328 18.4257 9.53326 19.3457 10.6641 19.3457H11.2644C11.5599 19.9893 11.946 20.5872 12.4111 21.1213C12.5081 21.2324 12.6085 21.3405 12.7122 21.4454L11.5464 23.777L8.29726 24.8598C4.51937 26.1196 1.77734 30.0967 1.77734 34.3164C1.77734 34.694 2.08339 35 2.46094 35H32.5391C32.9165 35 33.2227 34.694 33.2227 34.3164C33.2227 30.0967 30.4807 26.1196 26.7027 24.8598ZM26.3867 14.5605C26.3867 14.9375 26.0801 15.2441 25.7031 15.2441H24.6598C24.8336 13.8981 24.9494 12.4658 24.9959 11.0551C24.9973 11.0153 24.9984 10.9766 24.9996 10.9375H26.3867V14.5605ZM9.29688 15.2441C8.91994 15.2441 8.61328 14.9375 8.61328 14.5605V10.9375H10.0008C10.0031 11.0088 10.0055 11.0804 10.0082 11.1526L10.0084 11.1599V11.1605C10.0563 12.5326 10.1706 13.9277 10.3404 15.2441H9.29688V15.2441ZM10.6641 17.9785C10.2871 17.9785 9.98047 17.6719 9.98047 17.2949V16.6113H10.5409L10.6863 17.4835C10.7143 17.6497 10.7481 17.8148 10.7877 17.9785H10.6641ZM9.98163 9.57031H8.63926C8.9855 4.9888 12.809 1.36719 17.5 1.36719C22.1702 1.36719 26.0105 4.98832 26.3607 9.57031H25.0184C24.9692 5.79503 21.8949 2.73438 18.1119 2.73438H16.8883C13.1053 2.73438 10.0308 5.79503 9.98163 9.57031ZM16.8882 4.10156H18.1118C21.1749 4.10156 23.6541 6.607 23.6523 9.6667C23.6523 9.88183 23.6506 10.0691 23.647 10.2396L23.6469 10.2463L22.7919 10.1241C20.4691 9.79241 18.2758 8.69579 16.6162 7.03616C16.488 6.90798 16.3141 6.83596 16.1328 6.83594C14.297 6.83594 12.5396 7.67238 11.3779 9.08551C11.6642 6.30198 14.0173 4.10156 16.8882 4.10156ZM12.2049 17.9785C11.8627 16.8401 11.4711 13.4905 11.3846 11.344L12.3046 10.1173C13.1496 8.99097 14.4642 8.29117 15.8627 8.21085C17.7027 9.96194 20.0831 11.1183 22.5986 11.4775L23.605 11.6213C23.5377 13.049 23.4002 14.4817 23.2033 15.7993L23.2031 15.8007C23.1405 16.2243 23.0911 16.4969 22.9651 17.2583C22.603 19.4298 20.9828 21.3934 18.8439 21.9282C17.9615 22.1479 17.0388 22.1479 16.1565 21.9282C14.8209 21.5943 13.5963 20.6702 12.806 19.3457H14.1996C14.4818 20.1413 15.2416 20.7129 16.1328 20.7129H17.5C18.6331 20.7129 19.5508 19.7952 19.5508 18.6621C19.5508 17.5313 18.6308 16.6113 17.5 16.6113H16.1328C15.2218 16.6113 14.4732 17.1998 14.1984 17.9785H12.2049ZM16.0753 23.3116C16.5438 23.4106 17.0212 23.4606 17.5 23.4609C17.874 23.4609 18.2481 23.4296 18.6179 23.3689L17.41 24.6464L16.0753 23.3116ZM16.4702 25.6402L14.3019 27.9331C13.7046 26.7896 13.193 25.6033 12.7714 24.3841L13.5857 22.7556L16.4702 25.6402ZM21.2985 22.524L22.2284 24.384C21.8069 25.6037 21.2952 26.7903 20.6977 27.9341L18.3771 25.6134L21.2985 22.524ZM15.4492 18.6621C15.4492 18.2847 15.7553 17.9785 16.1328 17.9785H17.5C17.8769 17.9785 18.1836 18.2852 18.1836 18.6621C18.1836 19.0396 17.8774 19.3457 17.5 19.3457H16.1328C15.7559 19.3457 15.4492 19.039 15.4492 18.6621ZM3.17188 33.6328C3.44278 30.2464 5.69652 27.1683 8.72963 26.1568L11.6071 25.1979C12.135 26.6573 12.7859 28.0692 13.5529 29.4184L13.5567 29.4253L13.5568 29.4254C14.1205 30.4159 14.7454 31.3702 15.4279 32.2828L16.2688 33.6328H3.17188ZM17.5 33.0235L16.5729 31.5351C16.5625 31.5184 16.5514 31.5022 16.5397 31.4865C15.9859 30.7473 15.4717 29.9791 14.9994 29.1854L17.4373 26.6072L20.0061 29.1761C19.5324 29.9731 19.0164 30.7443 18.4604 31.4863C18.427 31.531 18.4745 31.4606 17.5 33.0235ZM18.7312 33.6328L19.572 32.2829C20.2599 31.3632 20.8892 30.4013 21.4563 29.4027C21.4597 29.3967 21.4629 29.3906 21.4663 29.3846L21.4676 29.3824C22.2257 28.0441 22.8698 26.6443 23.3929 25.1979L26.2703 26.1568C29.3035 27.1683 31.5572 30.2464 31.8281 33.6328H18.7312Z" fill="url(#paint1_linear_44220_525)"/>
<path d="M29.7739 30.8662C29.3171 29.9517 28.6479 29.1394 27.8387 28.5169C27.5394 28.2866 27.1103 28.3426 26.8801 28.6418C26.6499 28.9411 26.7059 29.3703 27.0051 29.6005C27.6513 30.0977 28.1858 30.7466 28.5507 31.4772C28.7198 31.8155 29.1306 31.9517 29.4678 31.7832C29.8055 31.6145 29.9425 31.204 29.7739 30.8662Z" fill="url(#paint2_linear_44220_525)"/>
<defs>
<linearGradient id="paint0_linear_44220_525" x1="25.0156" y1="27.0703" x2="25.0156" y2="28.4375" gradientUnits="userSpaceOnUse">
<stop stop-color="#FF7800"/>
<stop offset="1" stop-color="#FF4200"/>
</linearGradient>
<linearGradient id="paint1_linear_44220_525" x1="17.4091" y1="0" x2="17.4091" y2="35" gradientUnits="userSpaceOnUse">
<stop stop-color="#FF7800"/>
<stop offset="1" stop-color="#FF4200"/>
</linearGradient>
<linearGradient id="paint2_linear_44220_525" x1="28.2832" y1="28.375" x2="28.2832" y2="31.8554" gradientUnits="userSpaceOnUse">
<stop stop-color="#FF7800"/>
<stop offset="1" stop-color="#FF4200"/>
</linearGradient>
</defs>
</svg>
