<svg width="36" height="36" viewBox="0 0 36 36" fill="none" xmlns="http://www.w3.org/2000/svg">
<path d="M27.6455 8.35133L24.672 10.6934L21.6984 8.35133C21.5156 8.20719 21.2498 8.23883 21.1057 8.42164C20.9616 8.60445 20.9932 8.87023 21.176 9.01438L21.8011 9.50656C21.6253 9.79695 21.5318 10.1302 21.5318 10.479C21.5318 11.5182 22.377 12.3634 23.4162 12.3634C23.883 12.3634 24.3295 12.1862 24.6712 11.8824C25.013 12.1862 25.4595 12.3634 25.9263 12.3634C26.9655 12.3634 27.8107 11.5182 27.8107 10.479C27.8107 10.1302 27.7172 9.79695 27.5414 9.50656L28.1665 9.01438C28.2543 8.94505 28.3111 8.84369 28.3243 8.73255C28.3375 8.62142 28.306 8.5096 28.2368 8.42164C28.0941 8.23883 27.829 8.20719 27.6455 8.35133ZM22.3762 10.4783C22.3762 10.3229 22.4114 10.1731 22.4754 10.0367L24.068 11.2911C23.8866 11.4373 23.6595 11.5189 23.4169 11.5189C22.8431 11.5196 22.3762 11.0527 22.3762 10.4783ZM26.9684 10.4783C26.9684 11.052 26.5015 11.5189 25.9277 11.5189C25.6852 11.5189 25.458 11.4366 25.2766 11.2911L26.8692 10.0367C26.9332 10.1731 26.9684 10.3229 26.9684 10.4783ZM31.8959 10.7342C32.0801 11.3867 32.6805 11.8663 33.3914 11.8663C34.2485 11.8663 34.9453 11.1695 34.9453 10.3123C34.9453 9.45523 34.2478 8.75844 33.3914 8.75844C32.6805 8.75844 32.0801 9.23797 31.8959 9.89047H30.3729C30.2934 8.80766 29.9116 7.80781 29.3105 6.97461H32.1237C32.3564 6.97461 32.5455 6.78547 32.5455 6.55273V4.70211C33.2051 4.52281 33.6916 3.91883 33.6916 3.20305C33.6916 2.34594 32.9948 1.64914 32.1377 1.64914C31.2806 1.64914 30.5838 2.34594 30.5838 3.20305C30.5838 3.90828 31.0563 4.50523 31.7018 4.69437V6.13086H28.5666C27.5449 5.17883 26.1759 4.59383 24.672 4.59383C23.168 4.59383 21.799 5.17812 20.7773 6.13086H17.6421V4.69367C18.2876 4.50453 18.7601 3.90758 18.7601 3.20234C18.7601 2.34523 18.0626 1.64844 17.2062 1.64844C16.3498 1.64844 15.6523 2.34523 15.6523 3.20234C15.6523 3.91812 16.1388 4.52211 16.7984 4.70141V6.55273C16.7984 6.78547 16.9875 6.97461 17.2202 6.97461H20.0334C19.4155 7.82908 19.0476 8.83873 18.971 9.89047H17.448C17.2638 9.23797 16.6634 8.75844 15.9525 8.75844C15.2501 8.75844 14.6559 9.22672 14.464 9.86727H2.60156C1.74867 9.86727 1.05469 10.5612 1.05469 11.4141V28.1387C1.05469 28.9916 1.74867 29.6855 2.60156 29.6855H10.8998L10.4562 31.9067H9.87047C9.19688 31.9067 8.64844 32.4552 8.64844 33.1287C8.64844 33.8023 9.19688 34.3508 9.87047 34.3508H19.5666C20.2402 34.3508 20.7886 33.8023 20.7886 33.1287C20.7886 32.4552 20.2402 31.9067 19.5666 31.9067H18.9809L18.5372 29.6855H26.8355C27.6884 29.6855 28.3823 28.9916 28.3823 28.1387V16.6095C28.6664 16.3522 28.8457 15.9823 28.8457 15.5703V14.4938H31.7025V15.931C31.057 16.1202 30.5845 16.7171 30.5845 17.4223C30.5845 18.2795 31.282 18.9763 32.1384 18.9763C32.9948 18.9763 33.6923 18.2795 33.6923 17.4223C33.6923 16.7066 33.2058 16.1026 32.5462 15.9233V14.0727C32.5462 13.8399 32.3571 13.6508 32.1244 13.6508H29.3161C29.9327 12.7972 30.2977 11.7945 30.3743 10.7349H31.8959V10.7342ZM33.3914 9.60148C33.783 9.60148 34.1016 9.92 34.1016 10.3116C34.1016 10.7033 33.783 11.0218 33.3914 11.0218C32.9998 11.0218 32.6812 10.7033 32.6812 10.3116C32.6812 9.92 32.9998 9.60148 33.3914 9.60148ZM31.4276 3.20234C31.4276 2.8107 31.7461 2.49219 32.1377 2.49219C32.5294 2.49219 32.8479 2.8107 32.8479 3.20234C32.8479 3.59398 32.5294 3.9125 32.1377 3.9125C31.7461 3.9125 31.4276 3.59398 31.4276 3.20234ZM16.496 3.20234C16.496 2.8107 16.8145 2.49219 17.2062 2.49219C17.5978 2.49219 17.9163 2.8107 17.9163 3.20234C17.9163 3.59398 17.5978 3.9125 17.2062 3.9125C16.8145 3.9125 16.496 3.59398 16.496 3.20234ZM32.8479 17.4216C32.8479 17.8133 32.5294 18.1318 32.1377 18.1318C31.7461 18.1318 31.4276 17.8133 31.4276 17.4216C31.4276 17.03 31.7461 16.7115 32.1377 16.7115C32.5294 16.7115 32.8479 17.03 32.8479 17.4216ZM15.9525 9.60148C16.3441 9.60148 16.6627 9.92 16.6627 10.3116C16.6627 10.7033 16.3441 11.0218 15.9525 11.0218C15.5609 11.0218 15.2423 10.7033 15.2423 10.3116C15.2423 9.92 15.5616 9.60148 15.9525 9.60148ZM19.9448 33.1287C19.9448 33.3376 19.7747 33.507 19.5666 33.507H9.87047C9.66164 33.507 9.49219 33.3369 9.49219 33.1287C9.49219 32.9199 9.66234 32.7505 9.87047 32.7505H19.5666C19.7747 32.7498 19.9448 32.9199 19.9448 33.1287ZM18.1195 31.906H11.3168L11.7605 29.6848H17.6759L18.1195 31.906ZM26.8348 28.8411H2.60156C2.21414 28.8411 1.89844 28.5254 1.89844 28.138V27.5888H27.5379V28.138C27.5379 28.5254 27.2222 28.8411 26.8348 28.8411ZM27.5379 26.7451H1.89844V11.4134C1.89844 11.026 2.21414 10.7103 2.60156 10.7103H14.4506C14.6271 11.3748 15.2332 11.8655 15.9525 11.8655C16.6634 11.8655 17.2638 11.386 17.448 10.7335H18.971C19.0167 11.3621 19.1637 11.9703 19.4048 12.5398H14.0899C13.9317 12.5398 13.8052 12.4963 13.68 12.3992L12.5016 11.4838C12.2302 11.2728 11.918 11.1659 11.5741 11.1659H7.6507C6.91734 11.1659 6.32039 11.7629 6.32039 12.4963V24.9366C6.32039 25.682 6.92648 26.288 7.6718 26.288H21.7638C22.5091 26.288 23.1152 25.682 23.1152 24.9366V16.9745H27.4402C27.4732 16.9745 27.5048 16.9716 27.5372 16.9695V26.7451H27.5379ZM7.16414 16.3487C7.16414 16.0688 7.39195 15.841 7.6718 15.841H16.7984V15.9226C16.1388 16.1019 15.6523 16.7059 15.6523 17.4216C15.6523 18.2787 16.3498 18.9755 17.2062 18.9755C18.0626 18.9755 18.7601 18.2787 18.7601 17.4216C18.7601 16.7164 18.2876 16.1195 17.6421 15.9303V15.8403H20.5256C20.6522 16.4858 21.2217 16.9745 21.903 16.9745H22.2715V24.9373C22.2715 25.2172 22.0437 25.445 21.7638 25.445H7.6718C7.39195 25.445 7.16414 25.2172 7.16414 24.9373V16.3487ZM17.2062 16.7115C17.5978 16.7115 17.9163 17.03 17.9163 17.4216C17.9163 17.8133 17.5978 18.1318 17.2062 18.1318C16.8145 18.1318 16.496 17.8133 16.496 17.4216C16.496 17.03 16.8145 16.7115 17.2062 16.7115ZM20.4989 14.9966H17.6421V14.4931H20.4989V14.9966ZM17.2209 13.6494C16.9882 13.6494 16.7991 13.8385 16.7991 14.0713V14.9966H7.6725C7.4925 14.9966 7.32164 15.0324 7.16484 15.0964V12.497C7.16484 12.2291 7.38281 12.0104 7.65141 12.0104H11.5748C11.733 12.0104 11.8596 12.054 11.9848 12.151L13.1632 13.0665C13.4346 13.2774 13.7468 13.3843 14.0906 13.3843H19.8485C19.9062 13.4743 19.9673 13.5629 20.0299 13.6501H17.2209V13.6494ZM28.1243 13.7534C28.0454 13.8326 28.0012 13.9398 28.0012 14.0516V15.571C28.0012 15.8804 27.7495 16.1314 27.4409 16.1314H27.012V14.4313C27.012 14.1985 26.8228 14.0094 26.5901 14.0094C26.3573 14.0094 26.1682 14.1985 26.1682 14.4313V16.1314H25.0938V14.4313C25.0938 14.1985 24.9047 14.0094 24.672 14.0094C24.4392 14.0094 24.2501 14.1985 24.2501 14.4313V16.1314H23.1757V14.4313C23.1757 14.1985 22.9866 14.0094 22.7538 14.0094C22.5211 14.0094 22.332 14.1985 22.332 14.4313V16.1314H21.9037C21.5944 16.1314 21.3434 15.8797 21.3434 15.571V14.0516C21.3434 13.9398 21.2991 13.8329 21.2203 13.7534C20.3034 12.8338 19.7986 11.6117 19.7986 10.3123C19.7986 7.6243 21.9853 5.43828 24.6727 5.43828C27.36 5.43828 29.5467 7.625 29.5467 10.3123C29.5467 11.611 29.0412 12.833 28.1243 13.7534Z" fill="url(#paint0_linear_44206_507)"/>
<defs>
<linearGradient id="paint0_linear_44206_507" x1="17.9021" y1="1.64844" x2="17.9021" y2="34.3508" gradientUnits="userSpaceOnUse">
<stop stop-color="#FF7800"/>
<stop offset="1" stop-color="#FF4200"/>
</linearGradient>
</defs>
</svg>
