<svg width="36" height="36" viewBox="0 0 36 36" fill="none" xmlns="http://www.w3.org/2000/svg">
<path fill-rule="evenodd" clip-rule="evenodd" d="M32.6468 15.7096C33.913 15.7096 34.941 16.7375 34.941 18.0037C34.941 19.2698 33.913 20.2978 32.6468 20.2978C31.3807 20.2978 30.3527 19.2698 30.3527 18.0037C30.3527 16.7375 31.3807 15.7096 32.6468 15.7096ZM17.9998 30.3566C19.2659 30.3566 20.2939 31.3846 20.2939 32.6507C20.2939 33.9169 19.2659 34.9449 17.9998 34.9449C16.7336 34.9449 15.7057 33.9169 15.7057 32.6507C15.7057 31.3846 16.7336 30.3566 17.9998 30.3566ZM4.1037 14.0845C4.06809 14.2106 3.98388 14.3174 3.86956 14.3814C3.75524 14.4455 3.62017 14.4615 3.49403 14.4261C3.36794 14.3904 3.26114 14.3062 3.19711 14.1919C3.13307 14.0776 3.11704 13.9425 3.15252 13.8164C4.60403 8.66641 8.66568 4.60568 13.8161 3.15537C13.9423 3.11993 14.0774 3.13602 14.1917 3.20009C14.306 3.26416 14.3902 3.37098 14.4257 3.49709C14.4612 3.62323 14.4451 3.75829 14.3811 3.87258C14.317 3.98688 14.2101 4.07105 14.084 4.10662C9.26356 5.46396 5.46224 9.2645 4.1037 14.0845ZM21.9155 4.10662C21.7894 4.07105 21.6826 3.98688 21.6185 3.87258C21.5544 3.75829 21.5383 3.62323 21.5738 3.49709C21.6094 3.37098 21.6936 3.26416 21.8079 3.20009C21.9222 3.13602 22.0572 3.11993 22.1834 3.15537C27.3351 4.60603 31.3974 8.66831 32.8481 13.8201C32.8835 13.9462 32.8674 14.0813 32.8034 14.1956C32.7393 14.3099 32.6325 14.3941 32.5064 14.4297C32.3802 14.4651 32.2452 14.449 32.1309 14.385C32.0166 14.3209 31.9324 14.214 31.8968 14.0879C30.5391 9.26634 26.7371 5.46431 21.9155 4.10662ZM31.8968 21.9194C31.9324 21.7933 32.0166 21.6865 32.1309 21.6224C32.2452 21.5583 32.3802 21.5422 32.5064 21.5777C32.6325 21.6133 32.7393 21.6975 32.8034 21.8118C32.8674 21.9261 32.8835 22.0612 32.8481 22.1873C31.3974 27.339 27.3351 31.4013 22.1834 32.852C22.0572 32.8874 21.9222 32.8713 21.8079 32.8073C21.6936 32.7432 21.6094 32.6364 21.5738 32.5103C21.5383 32.3841 21.5544 32.2491 21.6185 32.1348C21.6826 32.0205 21.7894 31.9363 21.9155 31.9007C26.7371 30.543 30.5391 26.741 31.8968 21.9194ZM14.084 31.9007C14.2101 31.9363 14.317 32.0205 14.3811 32.1348C14.4451 32.2491 14.4612 32.3841 14.4257 32.5103C14.3902 32.6364 14.306 32.7432 14.1917 32.8073C14.0774 32.8713 13.9423 32.8874 13.8161 32.852C8.66568 31.4017 4.60403 27.341 3.15252 22.191C3.11704 22.0648 3.13307 21.9298 3.19711 21.8155C3.26114 21.7011 3.36794 21.6169 3.49403 21.5813C3.62017 21.5458 3.75524 21.5619 3.86956 21.6259C3.98388 21.69 4.06809 21.7968 4.1037 21.9229C5.46224 26.7429 9.26356 30.5434 14.084 31.9007ZM17.9998 10.5213C22.1294 10.5213 25.4821 13.8741 25.4821 18.0037C25.4821 22.1333 22.1294 25.486 17.9998 25.486C13.8701 25.486 10.5174 22.1333 10.5174 18.0037C10.5174 13.8741 13.8701 10.5213 17.9998 10.5213ZM17.9998 11.5096C14.4156 11.5096 11.5057 14.4195 11.5057 18.0037C11.5057 21.5879 14.4156 24.4978 17.9998 24.4978C21.584 24.4978 24.4939 21.5879 24.4939 18.0037C24.4939 14.4195 21.584 11.5096 17.9998 11.5096ZM21.7054 21.2953C21.7054 23.3418 14.2942 23.3418 14.2942 21.2953C14.2942 19.2488 15.9536 17.5894 18.0001 17.5894C20.0465 17.5894 21.7054 19.2488 21.7054 21.2953ZM16.2871 14.8896C16.2871 13.9439 17.0537 13.1772 18.0001 13.1772C18.9458 13.1772 19.7125 13.9439 19.7125 14.8896C19.7125 15.8359 18.9458 16.6026 18.0001 16.6026C17.0537 16.6026 16.2871 15.8359 16.2871 14.8896ZM3.35271 15.7096C4.61885 15.7096 5.64683 16.7375 5.64683 18.0037C5.64683 19.2698 4.61885 20.2978 3.35271 20.2978C2.08657 20.2978 1.05859 19.2698 1.05859 18.0037C1.05859 16.7375 2.08657 15.7096 3.35271 15.7096ZM17.9998 1.0625C19.2659 1.0625 20.2939 2.09048 20.2939 3.35662C20.2939 4.62276 19.2659 5.65074 17.9998 5.65074C16.7336 5.65074 15.7057 4.62276 15.7057 3.35662C15.7057 2.09048 16.7336 1.0625 17.9998 1.0625Z" fill="url(#paint0_linear_44206_488)"/>
<defs>
<linearGradient id="paint0_linear_44206_488" x1="17.9018" y1="1.0625" x2="17.9019" y2="34.9449" gradientUnits="userSpaceOnUse">
<stop stop-color="#FF7800"/>
<stop offset="1" stop-color="#FF4200"/>
</linearGradient>
</defs>
</svg>
