<svg width="36" height="36" viewBox="0 0 36 36" fill="none" xmlns="http://www.w3.org/2000/svg">
<g clip-path="url(#clip0_44206_499)">
<path d="M26.2729 23.4943C28.4025 21.7817 29.9481 19.4503 30.6964 16.8219C31.4446 14.1935 31.3586 11.3977 30.4502 8.82023C29.5419 6.24278 27.8559 4.01081 25.625 2.43234C23.3942 0.853869 20.7283 0.0067228 17.9955 0.00781355C15.2627 0.00890431 12.5976 0.858178 10.3679 2.43843C8.13832 4.01868 6.45414 6.252 5.54782 8.83017C4.6415 11.4083 4.55774 14.2043 5.30808 16.8321C6.05842 19.4599 7.60588 21.79 9.73689 23.5009C10.1965 23.8711 10.578 24.329 10.8591 24.8479C11.1402 25.3669 11.3153 25.9365 11.3743 26.5237C11.0598 26.6391 10.784 26.8404 10.5782 27.1048C10.3724 27.3692 10.2449 27.686 10.2102 28.0192C10.1755 28.3524 10.235 28.6886 10.3819 28.9897C10.5288 29.2908 10.7573 29.5446 11.0413 29.7223C10.8858 29.9902 10.8028 30.294 10.8007 30.6037C10.8007 31.0811 10.9903 31.5389 11.3279 31.8765C11.6655 32.2141 12.1233 32.4037 12.6007 32.4037H13.2553C13.5901 34.4353 15.5875 36.0037 18.0007 36.0037C20.4139 36.0037 22.4113 34.4353 22.7461 32.4037H23.4007C23.8781 32.4037 24.3359 32.2141 24.6735 31.8765C25.011 31.5389 25.2007 31.0811 25.2007 30.6037C25.1989 30.2936 25.1162 29.9894 24.9607 29.7211C25.2447 29.5434 25.4731 29.2896 25.62 28.9885C25.767 28.6874 25.8265 28.3512 25.7918 28.018C25.7571 27.6848 25.6296 27.368 25.4238 27.1036C25.218 26.8392 24.9422 26.6379 24.6277 26.5225C24.6883 25.9341 24.865 25.3636 25.1473 24.8438C25.4297 24.3241 25.8123 23.8654 26.2729 23.4943ZM29.9707 12.6037H27.3505C27.6154 11.9951 27.6725 11.3161 27.5131 10.6717C27.383 10.1401 27.1085 9.65474 26.72 9.26932C26.3314 8.8839 25.8438 8.61341 25.3111 8.48772C24.8695 8.38009 24.4092 8.37421 23.965 8.47051C23.5208 8.56682 23.1043 8.7628 22.747 9.04365C22.3896 9.3245 22.1007 9.68289 21.9021 10.0917C21.7036 10.5006 21.6005 10.9492 21.6007 11.4037C21.6001 11.8172 21.687 12.2262 21.8557 12.6037H18.6007V9.34812C18.6005 9.1491 18.5506 8.95328 18.4556 8.77837C18.3607 8.60347 18.2236 8.45501 18.0568 8.34642C17.89 8.23783 17.6988 8.17254 17.5004 8.15646C17.302 8.14038 17.1028 8.17401 16.9207 8.25432C16.5517 8.41367 16.1405 8.44699 15.7507 8.34912C15.46 8.2743 15.1926 8.12796 14.9729 7.92343C14.7531 7.71889 14.5881 7.46265 14.4927 7.17803C14.3972 6.89341 14.3745 6.58945 14.4266 6.29381C14.4786 5.99817 14.6038 5.72024 14.7907 5.48532C15.0395 5.17966 15.3803 4.96242 15.7624 4.86589C16.1445 4.76936 16.5476 4.79869 16.9117 4.94952C17.0966 5.03079 17.2989 5.06468 17.5003 5.04813C17.7016 5.03158 17.8957 4.96511 18.0649 4.85472C18.23 4.74639 18.3655 4.59857 18.4591 4.42465C18.5526 4.25073 18.6013 4.05621 18.6007 3.85872V1.21872C21.5715 1.36497 24.3815 2.61184 26.4834 4.71646C28.5852 6.82107 29.8284 9.63271 29.9707 12.6037ZM17.3575 1.22052H17.4007L17.3905 3.84852C16.9336 3.65024 16.4345 3.56883 15.9383 3.61165C15.442 3.65447 14.9643 3.82017 14.5481 4.09379C14.1319 4.36742 13.7904 4.74036 13.5544 5.17896C13.3184 5.61757 13.1953 6.10803 13.1962 6.60611C13.1971 7.10418 13.322 7.59419 13.5597 8.03192C13.7973 8.46964 14.1402 8.84131 14.5574 9.11339C14.9746 9.38547 15.453 9.54939 15.9494 9.59037C16.4457 9.63135 16.9445 9.5481 17.4007 9.34812V12.6037H14.1451C13.9466 12.6032 13.7511 12.6523 13.5764 12.7466C13.4017 12.8409 13.2534 12.9774 13.1449 13.1437C13.0354 13.3115 12.9695 13.504 12.9531 13.7037C12.9368 13.9033 12.9705 14.104 13.0513 14.2873C13.2107 14.6563 13.244 15.0675 13.1461 15.4573C13.081 15.6943 12.9681 15.9154 12.8143 16.107C12.6605 16.2987 12.4692 16.4568 12.2519 16.5717C12.0347 16.6866 11.7963 16.7558 11.5513 16.775C11.3064 16.7943 11.0601 16.7632 10.8276 16.6836C10.5951 16.604 10.3813 16.4777 10.1995 16.3124C10.0177 16.1471 9.87167 15.9464 9.77038 15.7225C9.6691 15.4986 9.61473 15.2564 9.61063 15.0107C9.60652 14.765 9.65275 14.5211 9.74649 14.2939C9.82803 14.109 9.86207 13.9067 9.84551 13.7053C9.82895 13.5039 9.76233 13.3098 9.65169 13.1407C9.5435 12.9754 9.39574 12.8397 9.22181 12.7459C9.04788 12.6521 8.85329 12.6032 8.65569 12.6037H6.03009C6.21276 9.65397 7.46326 6.87166 9.5479 4.77675C11.6325 2.68184 14.4087 1.41768 17.3575 1.22052ZM10.4887 22.5637C9.16407 21.5048 8.0802 20.1759 7.30924 18.6655C6.53829 17.155 6.09793 15.4976 6.01749 13.8037L8.64549 13.8139C8.44826 14.2704 8.36761 14.7688 8.4108 15.2642C8.45398 15.7596 8.61964 16.2365 8.89287 16.652C9.1661 17.0676 9.53834 17.4086 9.9761 17.6446C10.4139 17.8805 10.9034 18.0039 11.4007 18.0037C11.639 18.0035 11.8766 17.9761 12.1087 17.9221C12.535 17.8199 12.9336 17.6252 13.2763 17.3518C13.6189 17.0783 13.8973 16.7329 14.0916 16.3399C14.2859 15.947 14.3914 15.5161 14.4007 15.0778C14.4099 14.6395 14.3227 14.2045 14.1451 13.8037H17.4007V17.0587C17.4001 17.2563 17.4489 17.4508 17.5426 17.6247C17.6363 17.7987 17.7719 17.9465 17.9371 18.0547C18.1059 18.1654 18.2998 18.2321 18.501 18.2488C18.7022 18.2654 18.9043 18.2315 19.0891 18.1501C19.4532 17.9984 19.8566 17.9686 20.2391 18.0651C20.6216 18.1615 20.9626 18.3791 21.2113 18.6853C21.3982 18.92 21.5234 19.1978 21.5757 19.4932C21.6279 19.7887 21.6055 20.0925 21.5104 20.3771C21.4153 20.6616 21.2506 20.9179 21.0312 21.1226C20.8118 21.3273 20.5448 21.4739 20.2543 21.5491C19.8641 21.6468 19.4525 21.6135 19.0831 21.4543C18.9002 21.3742 18.7003 21.3409 18.5013 21.3572C18.3023 21.3735 18.1105 21.4391 17.9431 21.5479C17.7768 21.6564 17.6403 21.8047 17.546 21.9794C17.4517 22.1541 17.4026 22.3496 17.4031 22.5481V26.4037H12.5677C12.4933 25.6577 12.2712 24.934 11.9143 24.2747C11.5573 23.6154 11.0727 23.0338 10.4887 22.5637ZM24.0007 27.6037C24.1598 27.6037 24.3124 27.6669 24.425 27.7795C24.5375 27.892 24.6007 28.0446 24.6007 28.2037C24.6007 28.3628 24.5375 28.5155 24.425 28.628C24.3124 28.7405 24.1598 28.8037 24.0007 28.8037H12.0007C11.8416 28.8037 11.6889 28.7405 11.5764 28.628C11.4639 28.5155 11.4007 28.3628 11.4007 28.2037C11.4007 28.0446 11.4639 27.892 11.5764 27.7795C11.6889 27.6669 11.8416 27.6037 12.0007 27.6037H24.0007ZM18.0007 34.8037C16.2607 34.8037 14.8081 33.7711 14.4733 32.4037H21.5281C21.1933 33.7711 19.7407 34.8037 18.0007 34.8037ZM23.4007 31.2037H12.6007C12.4416 31.2037 12.2889 31.1405 12.1764 31.028C12.0639 30.9155 12.0007 30.7628 12.0007 30.6037C12.0007 30.4446 12.0639 30.292 12.1764 30.1795C12.2889 30.0669 12.4416 30.0037 12.6007 30.0037H23.4007C23.5598 30.0037 23.7124 30.0669 23.825 30.1795C23.9375 30.292 24.0007 30.4446 24.0007 30.6037C24.0007 30.7628 23.9375 30.9155 23.825 31.028C23.7124 31.1405 23.5598 31.2037 23.4007 31.2037ZM23.4337 26.4037H18.6007V22.5535C19.2094 22.8183 19.8883 22.8755 20.5327 22.7161C21.0643 22.5861 21.5497 22.3116 21.9351 21.923C22.3205 21.5344 22.591 21.0468 22.7167 20.5141C22.8481 19.9712 22.8254 19.4024 22.651 18.8718C22.4767 18.3411 22.1577 17.8696 21.7298 17.5105C21.302 17.1513 20.7825 16.9188 20.2296 16.8389C19.6768 16.7591 19.1126 16.8352 18.6007 17.0587V13.8037H21.8557C22.0532 13.8043 22.2478 13.7555 22.4217 13.6618C22.5956 13.5682 22.7434 13.4326 22.8517 13.2673C22.9622 13.0984 23.0288 12.9046 23.0455 12.7034C23.0622 12.5023 23.0283 12.3001 22.9471 12.1153C22.8533 11.8882 22.8069 11.6443 22.8109 11.3987C22.8149 11.153 22.8691 10.9107 22.9703 10.6868C23.0715 10.4629 23.2174 10.262 23.3991 10.0967C23.5809 9.93128 23.7945 9.80486 24.027 9.72518C24.2594 9.6455 24.5057 9.61425 24.7506 9.63336C24.9956 9.65246 25.2341 9.72153 25.4513 9.83628C25.6686 9.95104 25.8601 10.1091 26.014 10.3006C26.1678 10.4922 26.2809 10.7132 26.3461 10.9501C26.444 11.3403 26.4107 11.7519 26.2513 12.1213C26.1708 12.3041 26.1372 12.5041 26.1535 12.7032C26.1699 12.9023 26.2356 13.0941 26.3449 13.2613C26.4534 13.4276 26.6017 13.5641 26.7764 13.6584C26.9511 13.7527 27.1466 13.8019 27.3451 13.8013H29.9851C29.9042 15.4945 29.4643 17.1511 28.6946 18.6613C27.9249 20.1715 26.8429 21.5009 25.5205 22.5613C24.9355 23.0317 24.4499 23.6136 24.0916 24.2732C23.7334 24.9328 23.5098 25.657 23.4337 26.4037Z" fill="url(#paint0_linear_44206_499)"/>
</g>
<defs>
<linearGradient id="paint0_linear_44206_499" x1="17.9245" y1="0.0078125" x2="17.9245" y2="36.0037" gradientUnits="userSpaceOnUse">
<stop stop-color="#FF7800"/>
<stop offset="1" stop-color="#FF4200"/>
</linearGradient>
<clipPath id="clip0_44206_499">
<rect width="36" height="36" fill="white"/>
</clipPath>
</defs>
</svg>
