<svg width="36" height="36" viewBox="0 0 36 36" fill="none" xmlns="http://www.w3.org/2000/svg">
<path d="M21.4095 12.504V11.6784C21.4095 11.5481 21.4613 11.4231 21.5534 11.331C21.6456 11.2389 21.7706 11.1871 21.9009 11.1871C22.0312 11.1871 22.1562 11.2389 22.2483 11.331C22.3404 11.4231 22.3922 11.5481 22.3922 11.6784V12.504C22.3922 12.6343 22.3404 12.7593 22.2483 12.8514C22.1562 12.9435 22.0312 12.9953 21.9009 12.9953C21.7706 12.9953 21.6456 12.9435 21.5534 12.8514C21.4613 12.7593 21.4095 12.6343 21.4095 12.504ZM21.9009 29.4424C22.0312 29.4424 22.1562 29.3906 22.2483 29.2985C22.3404 29.2063 22.3922 29.0814 22.3922 28.951V28.1235C22.3922 27.9932 22.3404 27.8683 22.2483 27.7761C22.1562 27.684 22.0312 27.6322 21.9009 27.6322C21.7706 27.6322 21.6456 27.684 21.5534 27.7761C21.4613 27.8683 21.4095 27.9932 21.4095 28.1235V28.951C21.4095 29.0156 21.4222 29.0795 21.4469 29.1391C21.4716 29.1987 21.5078 29.2529 21.5534 29.2985C21.599 29.3441 21.6532 29.3803 21.7128 29.405C21.7724 29.4297 21.8363 29.4424 21.9009 29.4424ZM14.8916 23.7932L14.1756 24.207C14.0819 24.2612 14.0088 24.3447 13.9675 24.4447C13.9262 24.5446 13.919 24.6554 13.9471 24.7599C13.9751 24.8643 14.0369 24.9566 14.1227 25.0224C14.2086 25.0882 14.3137 25.1239 14.4219 25.1239C14.508 25.1239 14.5927 25.1011 14.6672 25.0578L15.3832 24.6441C15.4961 24.5788 15.5784 24.4715 15.6121 24.3456C15.6457 24.2197 15.6281 24.0856 15.5629 23.9728C15.4977 23.86 15.3903 23.7777 15.2644 23.744C15.1386 23.7103 15.0045 23.728 14.8916 23.7932ZM33.7599 12.784C35.1917 15.0342 35.947 17.6286 35.947 20.3138C35.947 28.0588 29.6459 34.3598 21.9009 34.3598C18.1484 34.3598 14.6209 32.899 11.9683 30.2464C11.0035 29.2816 10.1972 28.2005 9.56067 27.0355H3.72916C3.59885 27.0355 3.47388 26.9838 3.38173 26.8916C3.28959 26.7995 3.23782 26.6745 3.23782 26.5442C3.23782 26.4139 3.28959 26.2889 3.38173 26.1967C3.47388 26.1046 3.59885 26.0528 3.72916 26.0528H9.07263C8.79506 25.4328 8.56343 24.7932 8.37963 24.1391H2.85195C2.72163 24.1391 2.59666 24.0874 2.50451 23.9952C2.41237 23.9031 2.3606 23.7781 2.3606 23.6478C2.3606 23.5175 2.41237 23.3925 2.50451 23.3004C2.59666 23.2082 2.72163 23.1565 2.85195 23.1565H8.14155C8.01284 22.5258 7.92745 21.8871 7.88597 21.2449H0.5265C0.396188 21.2449 0.271212 21.1931 0.179068 21.101C0.0869227 21.0088 0.0351563 20.8838 0.0351562 20.7535C0.0351563 20.6232 0.0869227 20.4982 0.179068 20.4061C0.271212 20.3139 0.396188 20.2622 0.5265 20.2622H7.85545C7.85784 19.6131 7.90495 18.9744 7.99298 18.3486H2.85195C2.72163 18.3486 2.59666 18.2969 2.50451 18.2047C2.41237 18.1126 2.3606 17.9876 2.3606 17.8573C2.3606 17.727 2.41237 17.602 2.50451 17.5098C2.59666 17.4177 2.72163 17.3659 2.85195 17.3659H8.16715C8.30623 16.7163 8.49165 16.0775 8.72198 15.4544H3.72916C3.59885 15.4544 3.47388 15.4026 3.38173 15.3104C3.28959 15.2183 3.23782 15.0933 3.23782 14.963C3.23782 14.8327 3.28959 14.7077 3.38173 14.6156C3.47388 14.5234 3.59885 14.4717 3.72916 14.4717H9.12895C9.97151 12.6371 11.1975 11.0137 12.7045 9.7056L11.3297 7.81989L10.2369 8.61653C10.153 8.67786 10.0518 8.71088 9.94788 8.71082C9.84415 8.71091 9.74306 8.67816 9.65907 8.61727C9.57509 8.55639 9.51254 8.47048 9.48036 8.37187C9.44819 8.27325 9.44806 8.16698 9.47997 8.06829C9.51189 7.96959 9.57423 7.88352 9.65805 7.82242L12.638 5.65019C12.7433 5.57444 12.8744 5.54345 13.0025 5.56397C13.1306 5.58449 13.2454 5.65486 13.3218 5.75972C13.3983 5.86458 13.4301 5.99541 13.4104 6.12367C13.3908 6.25192 13.3211 6.36718 13.2168 6.4443L12.1238 7.24101L13.4696 9.08706C15.2909 7.7159 17.4549 6.77702 19.8082 6.42398V4.9728H18.2307C18.1004 4.9728 17.9754 4.92103 17.8833 4.82889C17.7911 4.73674 17.7394 4.61177 17.7394 4.48145V2.12416C17.7394 1.99384 17.7911 1.86887 17.8833 1.77672C17.9754 1.68458 18.1004 1.63281 18.2307 1.63281H25.571C25.7014 1.63281 25.8263 1.68458 25.9185 1.77672C26.0106 1.86887 26.0624 1.99384 26.0624 2.12416V4.48145C26.0624 4.61177 26.0106 4.73674 25.9185 4.82889C25.8263 4.92103 25.7014 4.9728 25.571 4.9728H23.9936V6.42651C26.9872 6.88037 29.7826 8.29675 31.9219 10.4741L33.9946 8.68473C34.0909 8.60161 34.2156 8.55906 34.3426 8.56602C34.4696 8.57298 34.5889 8.62892 34.6755 8.72207L35.8333 9.96737C35.9189 10.0595 35.9659 10.1809 35.9648 10.3066C35.9636 10.4323 35.9142 10.5528 35.8269 10.6432L33.7599 12.784ZM23.0813 19.4046C22.9948 19.4793 22.8848 19.5216 22.7704 19.5239C22.6561 19.5263 22.5445 19.4886 22.4549 19.4175L19.8658 17.363L18.5705 17.3872L22.2385 23.3019L32.7805 12.3837L32.784 12.3801L34.7967 10.2956L34.2784 9.73809L23.0813 19.4046ZM17.2661 16.6772C17.3076 16.601 17.3685 16.5371 17.4427 16.4921C17.5169 16.4471 17.6017 16.4225 17.6884 16.4209L20.0238 16.3772C20.1378 16.3757 20.2488 16.4132 20.3385 16.4836L22.7471 18.3949L29.0706 12.9358C27.1569 11.0804 24.5723 10.0255 21.9009 10.0255C16.2278 10.0255 11.6125 14.6408 11.6125 20.3138C11.6125 25.9868 16.2278 30.6021 21.9009 30.6021C27.5739 30.6021 32.1892 25.9868 32.1892 20.3138C32.1892 18.668 31.7949 17.0501 31.0451 15.5957L22.507 24.4385C22.4551 24.4923 22.3915 24.5335 22.3212 24.559C22.251 24.5846 22.1758 24.5937 22.1014 24.5858C22.0271 24.5778 21.9555 24.553 21.8922 24.5133C21.8288 24.4735 21.7754 24.4198 21.736 24.3563L17.2801 17.1712C17.2343 17.0974 17.209 17.0128 17.2065 16.9261C17.204 16.8393 17.2246 16.7535 17.2661 16.6772ZM18.7221 3.99004H25.0797V2.6155H18.7221V3.99004ZM20.7909 6.31148C21.1602 6.28238 21.5305 6.26777 21.9009 6.26767C22.2725 6.26767 22.6427 6.28265 23.0109 6.31211V4.9728H20.791V6.31148H20.7909ZM33.0563 13.5127L31.7627 14.8525C32.6873 16.5242 33.1722 18.4034 33.1719 20.3138C33.1719 26.5287 28.1157 31.5849 21.9009 31.5849C15.686 31.5849 10.6298 26.5287 10.6298 20.3138C10.6298 14.0989 15.6859 9.0427 21.9009 9.0427C24.8564 9.0427 27.7144 10.2218 29.8166 12.2917L31.1764 11.1178C28.7324 8.65443 25.381 7.25043 21.9009 7.25043C14.6978 7.25043 8.83758 13.1106 8.83758 20.3138C8.83758 27.5169 14.6978 33.3771 21.9009 33.3771C29.104 33.3771 34.9642 27.5169 34.9642 20.3138C34.9642 17.8962 34.3061 15.5579 33.0563 13.5127ZM28.4185 24.6441L29.1346 25.0578C29.1905 25.0901 29.2522 25.1111 29.3161 25.1196C29.3801 25.128 29.4451 25.1238 29.5075 25.1071C29.5698 25.0904 29.6282 25.0616 29.6794 25.0224C29.7306 24.9831 29.7736 24.9341 29.8059 24.8783C29.8382 24.8224 29.8591 24.7607 29.8676 24.6967C29.876 24.6328 29.8718 24.5678 29.8551 24.5054C29.8384 24.4431 29.8096 24.3846 29.7704 24.3334C29.7311 24.2822 29.6821 24.2393 29.6262 24.207L28.9101 23.7932C28.6751 23.6574 28.3746 23.7378 28.2388 23.9729C28.1031 24.2079 28.1836 24.5083 28.4185 24.6441ZM15.3832 15.9835L14.6672 15.5697C14.6113 15.5374 14.5496 15.5164 14.4857 15.5079C14.4217 15.4995 14.3567 15.5037 14.2943 15.5204C14.232 15.5371 14.1735 15.5659 14.1223 15.6052C14.0711 15.6444 14.0282 15.6934 13.9959 15.7493C13.9636 15.8052 13.9427 15.8669 13.9342 15.9308C13.9258 15.9948 13.93 16.0598 13.9467 16.1222C13.9634 16.1845 13.9922 16.2429 14.0314 16.2941C14.0707 16.3453 14.1197 16.3883 14.1756 16.4206L14.8916 16.8344C14.9475 16.8667 15.0092 16.8876 15.0731 16.8961C15.1371 16.9045 15.2021 16.9003 15.2645 16.8836C15.3268 16.8669 15.3852 16.8382 15.4364 16.7989C15.4876 16.7596 15.5306 16.7107 15.5629 16.6548C15.5952 16.5989 15.6162 16.5372 15.6246 16.4733C15.6331 16.4093 15.6288 16.3443 15.6121 16.2819C15.5955 16.2196 15.5667 16.1611 15.5274 16.1099C15.4881 16.0587 15.4391 16.0157 15.3832 15.9835Z" fill="url(#paint0_linear_44206_515)"/>
<defs>
<linearGradient id="paint0_linear_44206_515" x1="17.8961" y1="1.63281" x2="17.8961" y2="34.3598" gradientUnits="userSpaceOnUse">
<stop stop-color="#FF7800"/>
<stop offset="1" stop-color="#FF4200"/>
</linearGradient>
</defs>
</svg>
