<svg width="34" height="34" viewBox="0 0 34 34" fill="none" xmlns="http://www.w3.org/2000/svg">
<g clip-path="url(#clip0_44206_463)">
<path d="M10.3683 15.8728L3.85618 19.2236C3.46286 19.4262 3.13296 19.7333 2.90269 20.1111C2.67243 20.489 2.5507 20.9229 2.55087 21.3654V22.6177C2.55087 23.2564 2.8046 23.869 3.25625 24.3207C3.7079 24.7723 4.32047 25.026 4.9592 25.026C5.17211 25.026 5.3763 25.1106 5.52685 25.2612C5.6774 25.4117 5.76198 25.6159 5.76198 25.8288C5.76198 26.0417 5.6774 26.2459 5.52685 26.3965C5.3763 26.547 5.17211 26.6316 4.9592 26.6316C3.89465 26.6316 2.8737 26.2087 2.12095 25.456C1.3682 24.7032 0.945313 23.6823 0.945313 22.6177V21.3654C0.945282 20.6279 1.14845 19.9046 1.53251 19.275C1.91657 18.6454 2.46668 18.1337 3.12245 17.7962L8.5139 15.0218C7.65415 14.2716 6.96421 13.3467 6.49007 12.3089C6.01593 11.271 5.76849 10.144 5.76424 9.00294C5.76 7.86191 5.99905 6.73307 6.46546 5.6917C6.93186 4.65033 7.61491 3.72036 8.46906 2.96377C9.32321 2.20719 10.3288 1.64139 11.4189 1.30408C12.5089 0.96678 13.6584 0.865727 14.7905 1.00766C15.9227 1.1496 17.0117 1.53126 17.9847 2.1272C18.9578 2.72315 19.7926 3.51968 20.4335 4.4637C20.5494 4.63983 20.5913 4.85446 20.5502 5.06123C20.5092 5.26801 20.3884 5.45033 20.2141 5.56883C20.0397 5.68732 19.8257 5.73247 19.6184 5.69452C19.411 5.65657 19.2269 5.53858 19.1058 5.36602C18.5671 4.57257 17.8576 3.90982 17.0293 3.42644C16.201 2.94305 15.275 2.6513 14.3192 2.57261C13.3635 2.49391 12.4022 2.63026 11.506 2.97166C10.6098 3.31306 9.80147 3.85082 9.1403 4.54549C8.47912 5.24015 7.98192 6.07406 7.68518 6.98601C7.38845 7.89796 7.29971 8.86479 7.4255 9.81552C7.55128 10.7662 7.88839 11.6767 8.41208 12.4801C8.93577 13.2835 9.63273 13.9595 10.4518 14.4583C10.5756 14.5343 10.6764 14.6425 10.7436 14.7713C10.8107 14.9001 10.8417 15.0447 10.8331 15.1897C10.8245 15.3347 10.7768 15.4747 10.6949 15.5947C10.6131 15.7147 10.5002 15.8119 10.3683 15.8728ZM16.9383 22.7253L10.386 25.7036C9.96469 25.8948 9.6074 26.2034 9.35684 26.5923C9.10628 26.9812 8.97305 27.4341 8.97309 27.8968V29.0399C8.97309 29.6787 9.22682 30.2912 9.67847 30.7429C10.1301 31.1945 10.7427 31.4483 11.3814 31.4483H29.0425C29.6813 31.4483 30.2938 31.1945 30.7455 30.7429C31.1971 30.2912 31.4509 29.6787 31.4509 29.0399V27.8968C31.4509 27.4341 31.3177 26.9812 31.0671 26.5923C30.8166 26.2034 30.4593 25.8948 30.038 25.7036L23.4857 22.7253C22.4854 23.1716 21.3776 23.4205 20.212 23.4205C19.0463 23.4205 17.9385 23.1716 16.9383 22.7253ZM15.2701 21.7202C13.9529 20.6913 12.9897 19.2769 12.5149 17.6743C12.0401 16.0717 12.0774 14.3609 12.6215 12.7806C13.1656 11.2002 14.1894 9.82903 15.5501 8.8584C16.9108 7.88777 18.5406 7.36607 20.212 7.36607C21.8834 7.36607 23.5131 7.88777 24.8739 8.8584C26.2346 9.82903 27.2584 11.2002 27.8025 12.7806C28.3466 14.3609 28.3838 16.0717 27.909 17.6743C27.4342 19.2769 26.4711 20.6913 25.1539 21.7202L30.7043 24.2409C31.4063 24.5602 32.0014 25.0749 32.4185 25.7235C32.8357 26.3722 33.0571 27.1272 33.0564 27.8984V29.0415C33.0564 29.5686 32.9526 30.0906 32.7509 30.5776C32.5492 31.0646 32.2535 31.5071 31.8808 31.8798C31.5081 32.2525 31.0656 32.5482 30.5786 32.7499C30.0916 32.9516 29.5696 33.0554 29.0425 33.0554H11.3814C10.8542 33.0554 10.3321 32.9515 9.845 32.7497C9.35791 32.5479 8.91535 32.2521 8.54261 31.8792C8.16986 31.5063 7.87423 31.0636 7.67261 30.5765C7.47099 30.0893 7.36732 29.5672 7.36753 29.0399V27.8968C7.36744 27.1261 7.58918 26.3718 8.00628 25.7238C8.42338 25.0758 9.01819 24.5616 9.71967 24.2425L15.2701 21.7202ZM20.212 21.8149C21.9153 21.8149 23.5488 21.1383 24.7532 19.9339C25.9576 18.7295 26.6342 17.096 26.6342 15.3927C26.6342 13.6894 25.9576 12.0559 24.7532 10.8515C23.5488 9.64711 21.9153 8.97049 20.212 8.97049C18.5087 8.97049 16.8752 9.64711 15.6708 10.8515C14.4664 12.0559 13.7898 13.6894 13.7898 15.3927C13.7898 17.096 14.4664 18.7295 15.6708 19.9339C16.8752 21.1383 18.5087 21.8149 20.212 21.8149Z" fill="url(#paint0_linear_44206_463)"/>
</g>
<defs>
<linearGradient id="paint0_linear_44206_463" x1="16.9081" y1="0.945312" x2="16.9081" y2="33.0554" gradientUnits="userSpaceOnUse">
<stop stop-color="#FF7800"/>
<stop offset="1" stop-color="#FF4200"/>
</linearGradient>
<clipPath id="clip0_44206_463">
<rect width="34" height="34" fill="white"/>
</clipPath>
</defs>
</svg>
