<svg width="40" height="40" viewBox="0 0 40 40" fill="none" xmlns="http://www.w3.org/2000/svg">
<g clip-path="url(#clip0_44273_379)">
<path d="M16.4313 30H23.5703V30.7143C23.5703 31.1162 23.2618 31.4286 22.856 31.4286H17.1418C17.0478 31.4297 16.9546 31.412 16.8676 31.3765C16.7806 31.341 16.7017 31.2883 16.6354 31.2217C16.5692 31.1551 16.517 31.0759 16.4819 30.9887C16.4468 30.9015 16.4296 30.8082 16.4313 30.7143V30ZM27.856 16.7267L34.9989 23.8695V25.7143H27.856V16.7267ZM12.1418 16.7267V25.7143H4.9989V23.8695L12.1418 16.7267ZM13.5703 11.4286H26.4275V26.4248C26.4294 26.7069 26.3753 26.9865 26.2683 27.2476C26.1613 27.5087 26.0036 27.7459 25.8043 27.9455C25.605 28.1452 25.368 28.3033 25.1072 28.4108C24.8463 28.5182 24.5667 28.5728 24.2846 28.5714H15.7132C14.5227 28.5714 13.5703 27.619 13.5703 26.4248V11.4286ZM19.9989 1.93809L25.7541 10H14.2399L19.9989 1.93809ZM19.9989 1.20794e-07C19.8852 -6.62821e-05 19.7731 0.0272456 19.6721 0.0796277C19.5712 0.13201 19.4843 0.207923 19.4189 0.300952L12.276 10.2981C12.1767 10.4347 12.1291 10.6021 12.1418 10.7705V14.699L3.7789 23.0695C3.71253 23.1359 3.65993 23.2148 3.62414 23.3016C3.58834 23.3883 3.57006 23.4814 3.57033 23.5752V26.4248C3.5697 26.5189 3.58772 26.6123 3.62334 26.6994C3.65897 26.7866 3.7115 26.8658 3.7779 26.9326C3.84431 26.9993 3.92327 27.0523 4.01024 27.0884C4.0972 27.1245 4.19046 27.143 4.28461 27.1428H12.216C12.3587 27.8276 12.698 28.4559 13.1922 28.9508C13.6865 29.4458 14.3143 29.7859 14.9989 29.9295V30.7143C14.9989 31.8857 15.9665 32.8571 17.1418 32.8571H22.856C24.0313 32.8571 24.9989 31.8857 24.9989 30.7143V29.9295C25.684 29.7861 26.3124 29.4461 26.8073 28.9512C27.3022 28.4563 27.6421 27.8279 27.7856 27.1428H35.7132C35.8073 27.143 35.9006 27.1245 35.9876 27.0884C36.0745 27.0523 36.1535 26.9993 36.2199 26.9326C36.2863 26.8658 36.3388 26.7866 36.3744 26.6994C36.4101 26.6123 36.4281 26.5189 36.4275 26.4248V23.5752C36.4277 23.4814 36.4095 23.3883 36.3737 23.3016C36.3379 23.2148 36.2853 23.1359 36.2189 23.0695L27.8522 15.4171L27.856 10.7924C27.8749 10.6166 27.8269 10.4402 27.7218 10.2981L20.5789 0.300952C20.5135 0.207923 20.4266 0.13201 20.3257 0.0796277C20.2247 0.0272456 20.1126 -6.62821e-05 19.9989 1.20794e-07Z" fill="#4F4AE6"/>
<path d="M19.9993 35.7188C19.9055 35.7183 19.8126 35.7362 19.7257 35.7717C19.6389 35.8071 19.5598 35.8593 19.4931 35.9253C19.4265 35.9912 19.3734 36.0697 19.3371 36.1562C19.3007 36.2426 19.2817 36.3354 19.2812 36.4292V39.2864C19.2812 39.4758 19.3565 39.6575 19.4905 39.7915C19.6244 39.9254 19.8061 40.0007 19.9955 40.0007C20.185 40.0007 20.3667 39.9254 20.5006 39.7915C20.6346 39.6575 20.7098 39.4758 20.7098 39.2864V36.4292C20.7098 36.2408 20.635 36.0601 20.5017 35.9269C20.3685 35.7936 20.1878 35.7188 19.9993 35.7188Z" fill="#4F4AE6"/>
<path d="M17.1402 34.2891C17.0468 34.2887 16.9542 34.3068 16.8678 34.3424C16.7815 34.378 16.703 34.4303 16.6369 34.4963C16.5709 34.5624 16.5186 34.6409 16.483 34.7272C16.4474 34.8136 16.4293 34.9062 16.4297 34.9996V37.8567C16.4297 38.0461 16.5049 38.2278 16.6389 38.3618C16.7729 38.4957 16.9545 38.571 17.144 38.571C17.3334 38.571 17.5151 38.4957 17.6491 38.3618C17.783 38.2278 17.8583 38.0461 17.8583 37.8567V34.9996C17.8578 34.9058 17.8388 34.813 17.8024 34.7265C17.7661 34.64 17.713 34.5616 17.6464 34.4956C17.5797 34.4296 17.5007 34.3774 17.4138 34.342C17.327 34.3066 17.234 34.2886 17.1402 34.2891ZM22.8545 34.2891C22.7608 34.2883 22.6679 34.3062 22.5811 34.3416C22.4943 34.3769 22.4155 34.4292 22.349 34.4953C22.2826 34.5613 22.23 34.6399 22.1941 34.7265C22.1582 34.8131 22.1399 34.9059 22.1402 34.9996V37.8567C22.1402 38.251 22.4602 38.571 22.8545 38.5672C23.0432 38.5672 23.2243 38.4925 23.3582 38.3593C23.492 38.2262 23.5677 38.0455 23.5687 37.8567V34.9996C23.5677 34.8108 23.492 34.6301 23.3582 34.4969C23.2243 34.3638 23.0432 34.2891 22.8545 34.2891Z" fill="#4F4AE6"/>
<path d="M19.9973 13.5703C19.9029 13.5701 19.8094 13.5885 19.7222 13.6245C19.635 13.6605 19.5557 13.7133 19.489 13.7801C19.4222 13.8468 19.3694 13.9261 19.3334 14.0133C19.2974 14.1005 19.279 14.194 19.2792 14.2884V14.9989H18.5687C18.002 15.0009 17.4591 15.2269 17.0584 15.6276C16.6577 16.0283 16.4317 16.5712 16.4297 17.1379V18.5703C16.4322 19.1372 16.6582 19.6802 17.0587 20.0814C17.4592 20.4827 18.0018 20.7097 18.5687 20.7132H21.4259C21.8278 20.7132 22.1402 21.0217 22.1402 21.4275V22.856C22.1414 22.9504 22.1239 23.044 22.0885 23.1314C22.0531 23.2189 22.0006 23.2984 21.934 23.3653C21.8675 23.4322 21.7883 23.4851 21.701 23.521C21.6138 23.5568 21.5202 23.5749 21.4259 23.5741H18.5687C18.4746 23.5749 18.3812 23.5568 18.2942 23.5209C18.2071 23.485 18.1281 23.432 18.0619 23.3651C17.9957 23.2981 17.9435 23.2186 17.9086 23.1312C17.8736 23.0437 17.8565 22.9502 17.8583 22.856C17.8568 22.6664 17.7805 22.485 17.646 22.3513C17.5116 22.2175 17.3298 22.1422 17.1402 22.1417C16.9515 22.1433 16.7711 22.2191 16.6381 22.3528C16.5051 22.4866 16.4302 22.6674 16.4297 22.856C16.4322 23.4233 16.6581 23.9667 17.0585 24.3685C17.4589 24.7703 18.0015 24.9982 18.5687 25.0027H19.2792V25.7132C19.2792 25.9026 19.3545 26.0843 19.4884 26.2183C19.6224 26.3522 19.8041 26.4275 19.9935 26.4275C20.1829 26.4275 20.3646 26.3522 20.4986 26.2183C20.6325 26.0843 20.7078 25.9026 20.7078 25.7132V25.0027H21.4259C21.9935 24.9985 22.5367 24.7708 22.9378 24.369C23.3388 23.9673 23.5655 23.4237 23.5687 22.856V21.4275C23.566 20.86 23.3393 20.3165 22.9381 19.9153C22.5368 19.514 21.9933 19.2874 21.4259 19.2846H18.5687C18.4748 19.2858 18.3816 19.2681 18.2946 19.2325C18.2076 19.197 18.1287 19.1444 18.0624 19.0777C17.9961 19.0111 17.9439 18.9319 17.9089 18.8447C17.8738 18.7576 17.8566 18.6643 17.8583 18.5703V17.1379C17.8583 16.736 18.1668 16.4275 18.5687 16.4275H21.4259C21.8278 16.4275 22.1402 16.736 22.1402 17.1379C22.1352 17.2348 22.1499 17.3317 22.1836 17.4228C22.2172 17.5138 22.269 17.597 22.3358 17.6674C22.4026 17.7377 22.4831 17.7938 22.5722 17.832C22.6614 17.8703 22.7574 17.8901 22.8544 17.8901C22.9515 17.8901 23.0475 17.8703 23.1367 17.832C23.2258 17.7938 23.3063 17.7377 23.3731 17.6674C23.4399 17.597 23.4917 17.5138 23.5253 17.4228C23.559 17.3317 23.5737 17.2348 23.5687 17.1379C23.5657 16.5709 23.3389 16.028 22.9376 15.6274C22.5362 15.2268 21.9929 15.0009 21.4259 14.9989H20.7078V14.2884C20.7085 14.1945 20.6907 14.1014 20.6554 14.0145C20.62 13.9275 20.5679 13.8484 20.5018 13.7817C20.4358 13.7149 20.3572 13.6619 20.2707 13.6256C20.1841 13.5894 20.0912 13.5706 19.9973 13.5703Z" fill="#4F4AE6"/>
</g>
<defs>
<clipPath id="clip0_44273_379">
<rect width="40" height="40" fill="white"/>
</clipPath>
</defs>
</svg>
