<svg width="40" height="40" viewBox="0 0 40 40" fill="none" xmlns="http://www.w3.org/2000/svg">
<path fill-rule="evenodd" clip-rule="evenodd" d="M25.601 36.1597C23.4122 37.6648 21.1113 38.7556 19.027 39.3146C18.9339 39.3396 18.836 39.3396 18.743 39.3146C15.3373 38.401 11.352 36.063 8.22132 32.8257C5.06602 29.5629 2.78516 25.3916 2.78516 20.8659V7.27792C2.78516 7.14009 2.8371 7.00732 2.93064 6.90609C3.02417 6.80485 3.15242 6.74258 3.28981 6.73169C7.55972 6.39314 15.7545 2.77435 18.5665 0.766135C18.6482 0.707781 18.7443 0.672991 18.8444 0.665564C18.9445 0.658137 19.0447 0.678359 19.1341 0.724022C19.1341 0.724022 30.1895 6.3915 34.4802 6.73169C34.6176 6.74256 34.7458 6.80483 34.8394 6.90607C34.9329 7.00731 34.9848 7.14009 34.9848 7.27792V20.8659C34.9848 22.1852 34.7916 23.4739 34.4394 24.7189C36.1055 26.0433 37.1739 28.0875 37.1739 30.3812C37.1739 34.3736 33.9371 37.6095 29.9448 37.6095C28.3145 37.6095 26.8104 37.0699 25.601 36.1597ZM33.4784 24.0732C33.744 23.0327 33.8889 21.9608 33.8889 20.8659V7.76543C29.6495 7.13381 20.6643 2.7151 18.9293 1.84762C15.9091 3.8769 8.27674 7.21827 3.88105 7.77185V20.8659C3.88105 25.1088 6.05099 29.005 9.00911 32.0639C11.9484 35.1033 15.6722 37.3204 18.885 38.2173C20.7532 37.6958 22.794 36.7271 24.753 35.4111C24.4526 35.1012 24.1804 34.7652 23.9398 34.407C22.2852 35.4497 20.5858 36.2128 19.027 36.6308C18.9339 36.6558 18.836 36.6558 18.743 36.6308C15.8123 35.8446 12.3824 33.8335 9.6884 31.0477C6.96981 28.2365 5.00684 24.6414 5.00684 20.7421V9.09514C5.00684 8.95731 5.05879 8.82454 5.15232 8.72331C5.24585 8.62207 5.3741 8.5598 5.5115 8.54891C9.16058 8.2596 16.1634 5.16614 18.5665 3.44989C18.6482 3.39156 18.7443 3.35679 18.8444 3.34936C18.9445 3.34193 19.0447 3.36214 19.1341 3.40778C19.1341 3.40778 28.5886 8.25795 32.2584 8.54891C32.3958 8.5598 32.5241 8.62207 32.6176 8.72331C32.7111 8.82454 32.7631 8.95731 32.7631 9.09514V20.7421C32.7631 21.7117 32.6421 22.6621 32.4185 23.5865C32.7844 23.7198 33.1388 23.8826 33.4784 24.0732ZM23.3988 33.4525C22.9606 32.5204 22.7157 31.4794 22.7157 30.3812C22.7157 26.3888 25.9524 23.1521 29.9448 23.1521C30.4299 23.1521 30.904 23.1999 31.3624 23.2911C31.56 22.4623 31.6672 21.6106 31.6672 20.7421V9.57999C28.0299 9.0048 20.5036 5.31659 18.9287 4.53091C16.3227 6.26672 9.87298 9.08747 6.10273 9.58735V20.7421C6.10273 24.3585 7.95478 27.6785 10.4762 30.2858C12.9788 32.8737 16.1473 34.764 18.885 35.5333C20.3236 35.1291 21.8813 34.4143 23.3988 33.4525ZM29.9448 24.2611C26.5649 24.2611 23.8246 27.0013 23.8246 30.3812C23.8246 33.7611 26.5649 36.5005 29.9448 36.5005C33.3246 36.5005 36.0649 33.7611 36.0649 30.3812C36.0649 27.0013 33.3247 24.2611 29.9448 24.2611ZM32.5354 27.4155C33.1742 26.8968 34.1125 26.9941 34.6313 27.6329C35.15 28.2717 35.0527 29.21 34.4139 29.7288L28.8017 34.2862C28.6409 34.4167 28.4548 34.5123 28.2551 34.5669C28.0553 34.6214 27.8464 34.6338 27.6417 34.6031C27.4369 34.5724 27.2408 34.4994 27.0658 34.3887C26.8909 34.278 26.7409 34.1321 26.6255 33.9602L24.6139 30.9645C24.1552 30.2814 24.3372 29.3556 25.0203 28.8969C25.7035 28.4382 26.6291 28.6201 27.0879 29.3033L28.1898 30.9444L32.5354 27.4155ZM33.2345 28.2764L28.4175 32.188C28.3577 32.2366 28.2884 32.2722 28.2141 32.2925C28.1397 32.3128 28.062 32.3174 27.9858 32.306C27.9096 32.2946 27.8366 32.2674 27.7715 32.2262C27.7063 32.185 27.6505 32.1306 27.6076 32.0666L26.1672 29.9215C26.1397 29.8792 26.104 29.8428 26.0622 29.8144C26.0205 29.786 25.9735 29.7662 25.924 29.7561C25.8746 29.746 25.8236 29.7459 25.774 29.7557C25.7245 29.7655 25.6774 29.785 25.6355 29.8131C25.5936 29.8413 25.5577 29.8775 25.5299 29.9196C25.5021 29.9618 25.4829 30.009 25.4735 30.0586C25.4641 30.1082 25.4647 30.1592 25.4752 30.2086C25.4857 30.258 25.5059 30.3048 25.5346 30.3463L27.5461 33.342C27.5756 33.386 27.614 33.4233 27.6587 33.4516C27.7035 33.4799 27.7536 33.4986 27.806 33.5064C27.8584 33.5143 27.9118 33.5111 27.9629 33.4972C28.0139 33.4832 28.0615 33.4588 28.1027 33.4254L33.7149 28.8679C33.7537 28.8364 33.786 28.7975 33.8098 28.7535C33.8336 28.7095 33.8485 28.6612 33.8537 28.6114C33.8588 28.5617 33.8541 28.5114 33.8398 28.4634C33.8256 28.4154 33.802 28.3708 33.7704 28.3319C33.7389 28.2931 33.7 28.2608 33.656 28.237C33.612 28.2132 33.5637 28.1983 33.514 28.1931C33.4642 28.188 33.4139 28.1927 33.3659 28.2069C33.318 28.2212 33.2733 28.2448 33.2345 28.2764ZM13.8346 30.2326C14.2613 28.7145 16.1163 23.2347 16.6154 21.7653L13.0462 18.9143C12.9833 18.8641 12.9323 18.8007 12.8967 18.7285C12.8611 18.6563 12.8419 18.5772 12.8403 18.4968C12.8388 18.4163 12.855 18.3365 12.8877 18.263C12.9205 18.1895 12.9691 18.1242 13.0299 18.0716L23.2969 9.20191C23.3896 9.12187 23.5064 9.07518 23.6287 9.06929C23.751 9.06339 23.8718 9.09864 23.9717 9.1694C24.0717 9.24017 24.145 9.34237 24.1801 9.45969C24.2152 9.57702 24.2099 9.70271 24.1652 9.8167L20.9543 17.9995L24.7032 20.7146C24.769 20.7622 24.8233 20.8239 24.8623 20.8951C24.9014 20.9663 24.9241 21.0453 24.9288 21.1263C24.9336 21.2074 24.9203 21.2885 24.8898 21.3638C24.8594 21.439 24.8126 21.5066 24.7529 21.5616L14.7332 30.784C14.6454 30.8647 14.5338 30.9146 14.4151 30.9261C14.2964 30.9377 14.1772 30.9101 14.0756 30.8478C13.9739 30.7854 13.8954 30.6916 13.852 30.5806C13.8085 30.4696 13.8024 30.3474 13.8346 30.2326ZM15.4907 28.5974L23.5176 21.2091L19.9679 18.6382C19.8695 18.5669 19.7976 18.465 19.7634 18.3485C19.7292 18.2319 19.7348 18.1073 19.7791 17.9942L22.3348 11.4813L14.2454 18.4697L17.6 21.1492C17.6881 21.2196 17.7524 21.3155 17.784 21.4237C17.8156 21.532 17.813 21.6474 17.7766 21.7542C17.7766 21.7542 16.3693 25.8823 15.4907 28.5974Z" fill="#4F4AE6"/>
</svg>
