<svg width="40" height="40" viewBox="0 0 40 40" fill="none" xmlns="http://www.w3.org/2000/svg">
<path d="M39.1654 23.3359C39.1654 21.323 37.967 19.5884 36.2487 18.7964V18.3359C36.2487 9.37552 28.9591 2.08594 19.9987 2.08594C11.0383 2.08594 3.7487 9.37552 3.7487 18.3359V18.7964C2.03036 19.5884 0.832031 21.3234 0.832031 23.3359C0.832031 26.093 3.07495 28.3359 5.83203 28.3359H7.4987C7.71971 28.3359 7.93167 28.2481 8.08795 28.0919C8.24424 27.9356 8.33203 27.7236 8.33203 27.5026V19.1693C8.33203 18.9483 8.24424 18.7363 8.08795 18.58C7.93167 18.4237 7.71971 18.3359 7.4987 18.3359H5.83203C5.6912 18.3359 5.55287 18.3455 5.41537 18.3568V18.3359C5.41537 10.2947 11.9574 3.7526 19.9987 3.7526C28.04 3.7526 34.582 10.2947 34.582 18.3359V18.3568C34.4445 18.3455 34.3062 18.3359 34.1654 18.3359H32.4987C32.2777 18.3359 32.0657 18.4237 31.9094 18.58C31.7532 18.7363 31.6654 18.9483 31.6654 19.1693V27.5026C31.6654 27.7236 31.7532 27.9356 31.9094 28.0919C32.0657 28.2481 32.2777 28.3359 32.4987 28.3359H34.1654C34.3062 28.3359 34.4445 28.3264 34.582 28.3151V29.5859C34.582 32.343 32.3391 34.5859 29.582 34.5859H23.332C23.332 33.6668 22.5845 32.9193 21.6654 32.9193H17.4987C16.5795 32.9193 15.832 33.6668 15.832 34.5859V36.2526C15.832 37.1718 16.5795 37.9193 17.4987 37.9193H21.6654C22.5845 37.9193 23.332 37.1718 23.332 36.2526H29.582C33.2579 36.2526 36.2487 33.2618 36.2487 29.5859V27.8755C37.967 27.0834 39.1654 25.3489 39.1654 23.3359ZM6.66537 20.0026V26.6693H5.83203C3.99412 26.6693 2.4987 25.1739 2.4987 23.3359C2.4987 21.498 3.99412 20.0026 5.83203 20.0026H6.66537ZM17.4987 36.2526V34.5859H21.6654L21.6658 35.4134L21.6654 35.4193L21.6658 35.4255L21.6666 36.2526H17.4987ZM34.1654 26.6693H33.332V20.0026H34.1654C36.0033 20.0026 37.4987 21.498 37.4987 23.3359C37.4987 25.1739 36.0033 26.6693 34.1654 26.6693ZM19.9987 28.7526C25.0529 28.7526 29.1654 24.6401 29.1654 19.5859C29.1654 14.5318 25.0529 10.4193 19.9987 10.4193C14.9445 10.4193 10.832 14.5318 10.832 19.5859C10.832 21.2214 11.2704 22.8193 12.1029 24.2301L11.2637 28.5955C11.2352 28.7443 11.2477 28.898 11.3 29.0402C11.3523 29.1824 11.4423 29.3076 11.5605 29.4024C11.6786 29.4972 11.8203 29.5581 11.9705 29.5784C12.1206 29.5987 12.2734 29.5777 12.4124 29.5176L16.1541 27.9026C17.3577 28.4648 18.6703 28.755 19.9987 28.7526ZM13.1979 27.3634L13.8004 24.2268C13.8406 24.0171 13.7989 23.7999 13.6837 23.6201C12.9104 22.4167 12.4991 21.0164 12.4987 19.5859C12.4987 15.4505 15.8633 12.0859 19.9987 12.0859C24.1341 12.0859 27.4987 15.4505 27.4987 19.5859C27.4987 23.7214 24.1341 27.0859 19.9987 27.0859C18.7937 27.0859 17.6366 26.803 16.5591 26.2455C16.4495 26.1887 16.3287 26.1569 16.2053 26.1526C16.0819 26.1483 15.9591 26.1715 15.8458 26.2205L13.1979 27.3634ZM19.9987 22.0859H15.832C15.611 22.0859 15.3991 21.9981 15.2428 21.8419C15.0865 21.6856 14.9987 21.4736 14.9987 21.2526C14.9987 21.0316 15.0865 20.8196 15.2428 20.6634C15.3991 20.5071 15.611 20.4193 15.832 20.4193H19.9987C20.2197 20.4193 20.4317 20.5071 20.588 20.6634C20.7442 20.8196 20.832 21.0316 20.832 21.2526C20.832 21.4736 20.7442 21.6856 20.588 21.8419C20.4317 21.9981 20.2197 22.0859 19.9987 22.0859ZM14.9987 17.9193C14.9987 17.6983 15.0865 17.4863 15.2428 17.33C15.3991 17.1737 15.611 17.0859 15.832 17.0859H24.1654C24.3864 17.0859 24.5983 17.1737 24.7546 17.33C24.9109 17.4863 24.9987 17.6983 24.9987 17.9193C24.9987 18.1403 24.9109 18.3522 24.7546 18.5085C24.5983 18.6648 24.3864 18.7526 24.1654 18.7526H15.832C15.611 18.7526 15.3991 18.6648 15.2428 18.5085C15.0865 18.3522 14.9987 18.1403 14.9987 17.9193Z" fill="#4F4AE6"/>
</svg>
