<svg width="38" height="38" viewBox="0 0 38 38" fill="none" xmlns="http://www.w3.org/2000/svg">
<g clip-path="url(#clip0_44273_393)">
<path d="M12.4246 23.3882C12.5014 23.4202 12.5837 23.4368 12.6669 23.437C12.7501 23.4372 12.8325 23.4211 12.9094 23.3894C12.9863 23.3578 13.0563 23.3113 13.1152 23.2526C13.1742 23.194 13.221 23.1243 13.253 23.0475L14.146 20.9037H17.5242L18.4172 23.0475C18.5519 23.3704 18.9228 23.5229 19.2456 23.3882C19.5685 23.2536 19.721 22.8827 19.5864 22.5599L16.4197 14.9599C16.3716 14.8445 16.2904 14.7459 16.1864 14.6766C16.0824 14.6073 15.9602 14.5703 15.8352 14.5703C15.7102 14.5703 15.588 14.6073 15.484 14.6766C15.3799 14.7459 15.2988 14.8445 15.2506 14.9599L12.084 22.5599C12.052 22.6366 12.0354 22.7189 12.0352 22.8021C12.0349 22.8853 12.0511 22.9677 12.0827 23.0446C12.1144 23.1215 12.1609 23.1914 12.2195 23.2504C12.2782 23.3093 12.3479 23.3562 12.4246 23.3882ZM15.8351 16.8503L16.996 19.637H14.6742L15.8351 16.8503Z" fill="#4F4AE6"/>
<path fill-rule="evenodd" clip-rule="evenodd" d="M20.899 22.1703C20.5492 22.1703 20.2656 22.4539 20.2656 22.8037C20.2656 23.1535 20.5492 23.437 20.899 23.437H24.699C25.0488 23.437 25.3323 23.1535 25.3323 22.8037C25.3323 22.4539 25.0488 22.1703 24.699 22.1703H23.4323V15.837H24.699C25.0488 15.837 25.3323 15.5535 25.3323 15.2037C25.3323 14.8539 25.0488 14.5703 24.699 14.5703H20.899C20.5492 14.5703 20.2656 14.8539 20.2656 15.2037C20.2656 15.5535 20.5492 15.837 20.899 15.837H22.1657V22.1703H20.899Z" fill="#4F4AE6"/>
<path d="M0.633479 27.8667C0.633479 29.2658 1.76772 30.4 3.1668 30.4C3.48412 30.3988 3.79834 30.3373 4.09272 30.2189C5.58991 31.3652 7.70274 31.9631 10.2994 31.9631C10.6908 31.9631 11.0974 31.9447 11.5097 31.9181C13.3489 35.6763 16.0025 38 19.0001 38C21.9977 38 24.6513 35.6763 26.4912 31.92C26.9041 31.9466 27.3101 31.9649 27.7014 31.9649C30.2981 31.9649 32.4109 31.367 33.9081 30.2207C34.2024 30.3385 34.5164 30.3993 34.8334 30.4C35.9516 30.3968 36.9354 29.6609 37.2543 28.5891C37.5732 27.5174 37.1517 26.3634 36.2172 25.7494C36.3059 23.7101 35.5174 21.3958 33.9125 19C35.5174 16.6047 36.3059 14.2905 36.2172 12.2505C37.3121 11.5439 37.6904 10.1207 37.0909 8.96375C36.4913 7.80676 35.1103 7.29521 33.9017 7.78233C32.181 6.46565 29.6401 5.88236 26.4917 6.08755C24.654 2.32625 21.999 0 19.0002 0C16.0013 0 13.3464 2.32625 11.5066 6.08761C8.35952 5.88367 5.81985 6.46758 4.09652 7.78239C2.88867 7.2992 1.51129 7.8115 0.912722 8.96656C0.314158 10.1216 0.689826 11.5424 1.78105 12.2506C1.69367 14.2893 2.48278 16.6035 4.08767 19C2.48278 21.3959 1.69367 23.7101 1.78299 25.7495C1.43041 25.9789 1.14065 26.2927 0.939928 26.6624C0.73921 27.0321 0.63388 27.446 0.633479 27.8667ZM1.90017 27.8667C1.90017 27.1671 2.46726 26.6 3.16686 26.6C3.86646 26.6 4.43355 27.1671 4.43355 27.8667C4.43355 28.5663 3.86646 29.1334 3.16686 29.1334C2.83091 29.1334 2.50872 28.9999 2.27117 28.7624C2.03362 28.5248 1.90017 28.2026 1.90017 27.8667ZM12.2925 7.42268C13.9786 7.62457 15.6397 7.99742 17.2503 8.53547C16.1166 9.04141 15.0096 9.60497 13.9335 10.224C12.8537 10.8472 11.8076 11.5273 10.7998 12.2614C11.1318 10.602 11.632 8.98073 12.2925 7.42268ZM27.1999 12.2614C26.1924 11.5272 25.1465 10.8471 24.0668 10.224C22.9923 9.6057 21.8872 9.04215 20.7557 8.53547C22.3646 7.9977 24.0241 7.62486 25.7084 7.42268C26.3685 8.98077 26.8683 10.602 27.1999 12.2614ZM25.7078 30.5774C24.0218 30.3755 22.3606 30.0026 20.75 29.4646C21.8837 28.9587 22.9907 28.3951 24.0668 27.7761C25.1467 27.1529 26.1927 26.4728 27.2005 25.7387C26.8685 27.3981 26.3683 29.0193 25.7078 30.5774ZM23.4335 11.3215C24.8617 12.1434 26.2271 13.07 27.5185 14.0936C27.7514 15.7187 27.8678 17.3583 27.8668 19C27.868 20.6417 27.7518 22.2814 27.5191 23.9065C26.2275 24.93 24.8619 25.8566 23.4335 26.6786C22.0097 27.5021 20.528 28.2213 19.0002 28.8306C17.4722 28.221 15.9906 27.5013 14.5668 26.6773C13.1386 25.8553 11.7732 24.9288 10.4818 23.9052C10.0182 20.6506 10.0182 17.3468 10.4818 14.0923C11.7733 13.0692 13.1387 12.143 14.5668 11.3214C15.9918 10.4973 17.4748 9.77761 19.004 9.16807C20.5306 9.7779 22.011 10.4976 23.4335 11.3215ZM28.9435 15.2906C30.2067 16.4089 31.354 17.6516 32.368 19C31.3554 20.3482 30.2096 21.5909 28.948 22.7095C29.0724 21.4769 29.1343 20.2388 29.1336 19C29.1339 17.7612 29.0716 16.5231 28.9467 15.2906H28.9435ZM9.05682 22.7095C7.7933 21.5915 6.64599 20.3487 5.63236 19C6.64492 17.6519 7.7907 16.4091 9.05233 15.2906C8.8032 17.7573 8.8032 20.2428 9.05233 22.7095H9.05682ZM13.9373 27.7761C15.0118 28.3944 16.1169 28.9579 17.2484 29.4646C15.6394 30.0024 13.98 30.3752 12.2957 30.5774C11.6353 29.0193 11.1354 27.3981 10.8035 25.7387C11.81 26.4728 12.8548 27.1528 13.9335 27.7761H13.9373ZM19.0002 36.7334C16.6214 36.7334 14.4598 34.8467 12.8657 31.7864C14.9647 31.4888 17.0229 30.9525 19.0002 30.1879C20.9782 30.9528 23.0373 31.4892 25.1371 31.7864C23.5399 34.8467 21.379 36.7334 19.0002 36.7334ZM34.8335 29.1334C34.134 29.1334 33.5668 28.5663 33.5668 27.8667C33.5668 27.1671 34.1339 26.6 34.8335 26.6C35.5331 26.6 36.1002 27.1671 36.1002 27.8667C36.1002 28.5663 35.5331 29.1334 34.8335 29.1334ZM34.9665 25.3466C34.9215 25.3466 34.8791 25.3334 34.8335 25.3334C33.4343 25.3334 32.3002 26.4676 32.3002 27.8667C32.3025 28.433 32.4965 28.9819 32.8505 29.424C31.4712 30.3341 29.4577 30.7667 27.046 30.6761C27.8313 28.7144 28.3878 26.6688 28.7047 24.5796C30.3428 23.2606 31.8253 21.7592 33.1235 20.1045C34.1928 21.657 34.829 23.4665 34.9665 25.3466ZM36.1002 10.1333C36.1002 10.8329 35.5331 11.4 34.8335 11.4C34.1339 11.4 33.5668 10.8329 33.5668 10.1333C33.5668 9.43373 34.1339 8.86664 34.8335 8.86664C35.5331 8.86664 36.1002 9.43379 36.1002 10.1333ZM32.8505 8.57599C32.4966 9.0181 32.3026 9.56697 32.3002 10.1333C32.3002 11.5325 33.4344 12.6666 34.8335 12.6666C34.8791 12.6666 34.9215 12.6559 34.9665 12.6534C34.8292 14.5335 34.193 16.3431 33.1235 17.8955C31.8251 16.2408 30.3424 14.7394 28.7041 13.4204C28.3868 11.3311 27.8295 9.28545 27.0435 7.32389C29.4572 7.2327 31.4718 7.66334 32.8505 8.57599ZM19.0002 1.26669C21.379 1.26669 23.5405 3.15338 25.1347 6.21365C23.0367 6.51145 20.9796 7.04777 19.0033 7.81219C17.0253 7.04722 14.9663 6.51089 12.8664 6.21365C14.4604 3.15338 16.6214 1.26669 19.0002 1.26669ZM3.1668 8.8667C3.86634 8.8667 4.43348 9.43379 4.43348 10.1334C4.43348 10.833 3.8664 11.4001 3.1668 11.4001C2.46719 11.4001 1.90011 10.833 1.90011 10.1334C1.90011 9.43379 2.46726 8.8667 3.1668 8.8667ZM3.03384 12.6534C3.07878 12.6534 3.12123 12.6666 3.16686 12.6666C4.566 12.6666 5.70017 11.5324 5.70017 10.1333C5.69781 9.56696 5.50382 9.01807 5.14979 8.57599C6.52855 7.6659 8.5419 7.23394 10.9543 7.32389C10.1691 9.28559 9.61253 11.3312 9.29561 13.4204C7.65767 14.7393 6.17521 16.2405 4.87684 17.8948C3.80713 16.3428 3.17091 14.5334 3.03384 12.6534ZM4.87684 20.1052C6.17581 21.7594 7.65868 23.2605 9.29686 24.5796C9.61411 26.669 10.1711 28.7149 10.9569 30.6767C8.54639 30.7679 6.53173 30.3341 5.15235 29.424C5.50544 28.9816 5.69851 28.4327 5.70017 27.8667C5.70017 26.4675 4.56594 25.3334 3.16686 25.3334C3.12123 25.3334 3.07885 25.3448 3.03384 25.3466C3.17114 23.4667 3.80734 21.6573 4.87684 20.1052Z" fill="#4F4AE6"/>
</g>
<defs>
<clipPath id="clip0_44273_393">
<rect width="38" height="38" fill="white"/>
</clipPath>
</defs>
</svg>
