<svg width="40" height="40" viewBox="0 0 40 40" fill="none" xmlns="http://www.w3.org/2000/svg">
<g clip-path="url(#clip0_44273_428)">
<path d="M13.125 30.7809C14.1591 30.7809 15 29.94 15 28.9059C15 27.8719 14.1591 27.0309 13.125 27.0309C12.091 27.0309 11.25 27.8719 11.25 28.9059C11.25 29.94 12.091 30.7809 13.125 30.7809ZM13.125 28.2809C13.4697 28.2809 13.75 28.5613 13.75 28.9059C13.75 29.2506 13.4697 29.5309 13.125 29.5309C12.7803 29.5309 12.5 29.2506 12.5 28.9059C12.5 28.5613 12.7803 28.2809 13.125 28.2809ZM8.41816 22.5834L12.5038 20.5403L13.6416 23.0066L14.19 23.0284L15.4622 23.0794L19.77 4.84594L24.6869 6.02094L24.4247 7.13063L22.8238 6.74812C22.7435 6.72777 22.66 6.72357 22.5781 6.73576C22.4962 6.74795 22.4176 6.77629 22.3467 6.81913C22.2759 6.86197 22.2143 6.91847 22.1654 6.98533C22.1166 7.0522 22.0815 7.12809 22.0623 7.20862C22.043 7.28915 22.04 7.3727 22.0533 7.45442C22.0666 7.53614 22.096 7.6144 22.1398 7.68465C22.1836 7.75491 22.241 7.81576 22.3085 7.86367C22.376 7.91158 22.4524 7.9456 22.5332 7.96375L24.1375 8.34719L23.851 9.55969L23.156 9.39344C23.0757 9.37308 22.9922 9.36888 22.9103 9.38107C22.8284 9.39326 22.7498 9.4216 22.6789 9.46444C22.6081 9.50729 22.5464 9.56378 22.4976 9.63064C22.4488 9.69751 22.4137 9.77341 22.3945 9.85393C22.3752 9.93446 22.3722 10.018 22.3855 10.0997C22.3988 10.1814 22.4282 10.2597 22.472 10.33C22.5158 10.4002 22.5731 10.4611 22.6407 10.509C22.7082 10.5569 22.7846 10.5909 22.8653 10.6091L23.5635 10.7759L23.2772 11.9888L21.676 11.6062C21.5157 11.5702 21.3477 11.5988 21.2083 11.6857C21.0689 11.7726 20.9693 11.911 20.9311 12.0707C20.8929 12.2305 20.9192 12.3989 21.0042 12.5395C21.0892 12.68 21.2261 12.7815 21.3853 12.8219L22.9897 13.2053L22.7032 14.4178L22.0082 14.2513C21.8469 14.2127 21.677 14.2398 21.5357 14.3266C21.3944 14.4133 21.2934 14.5527 21.2549 14.7139C21.2163 14.8751 21.2434 15.0451 21.3302 15.1864C21.417 15.3276 21.5563 15.4286 21.7175 15.4672L22.416 15.6341L22.1294 16.8466L20.5278 16.4644C20.3692 16.4328 20.2045 16.4639 20.0683 16.5512C19.9321 16.6385 19.835 16.7752 19.7975 16.9325C19.76 17.0899 19.7849 17.2557 19.867 17.3951C19.9491 17.5344 20.082 17.6366 20.2378 17.68L21.8422 18.0631L21.5557 19.2756L20.86 19.11C20.7013 19.0781 20.5363 19.109 20.3999 19.1963C20.2635 19.2835 20.1662 19.4203 20.1286 19.5778C20.091 19.7353 20.116 19.9013 20.1982 20.0407C20.2805 20.1802 20.4137 20.2823 20.5697 20.3256L21.2682 20.4922L21.23 20.6544L19.735 21.4072L19.3803 21.3222C19.2191 21.2837 19.0492 21.3107 18.908 21.3975C18.7668 21.4842 18.6658 21.6235 18.6272 21.7847C18.613 21.8461 18.6084 21.9094 18.6135 21.9722L16.3438 23.115L18.9182 23.2178L33.0147 16.1191L37.2425 15.9544L34.5707 18.9494L25.2328 23.4703L27.8819 23.5766L35.3385 19.9663L38.5 16.4222L38.57 16.3269C38.7825 15.9716 38.8085 15.5816 38.6407 15.2563C38.4722 14.9294 38.1363 14.7225 37.7188 14.6894L37.6816 14.6863L32.6953 14.8806L22.6878 19.9203L25.9035 6.30844C26.0622 5.63781 25.6497 4.96469 24.9825 4.80531L20.0497 3.62781C19.9554 3.60515 19.8586 3.59372 19.7616 3.59375C19.4817 3.59468 19.2103 3.68999 18.9913 3.86425C18.7723 4.03851 18.6185 4.28155 18.5547 4.55406L14.4738 21.8269L13.4188 19.5403C13.4082 19.4944 13.3925 19.4499 13.3719 19.4075C13.3569 19.3791 13.3396 19.3519 13.3203 19.3263L6.47034 4.48094C6.26378 4.03219 5.82941 3.76969 5.37659 3.76969C5.20284 3.76969 5.02659 3.80844 4.85941 3.88969L0.691907 5.91875C0.0881572 6.21312 -0.169343 6.95438 0.116907 7.57437L1.25128 10.0331C1.25597 10.1162 1.27628 10.2 1.31597 10.2794C1.34816 10.3441 1.39253 10.3975 1.44128 10.445L8.01722 24.6975C8.2523 24.3032 8.5594 23.9565 8.92253 23.6756L8.41816 22.5834ZM1.25191 7.05062C1.25011 7.04638 1.24967 7.04169 1.25066 7.03719L5.35191 5.04031L6.29753 7.08969L2.21253 9.13219L1.25191 7.05062ZM2.73628 10.2678L6.82159 8.22531L7.76222 10.2638L3.67659 12.3063L2.73628 10.2678ZM4.20066 13.4422L8.28628 11.3994L9.22659 13.4372L5.14128 15.48L4.20066 13.4422ZM5.66503 16.6159L9.75066 14.5734L10.6325 16.4847L6.54691 18.5272L5.66503 16.6159ZM7.89441 21.4472L7.07097 19.6628L11.1566 17.6203L11.9797 19.4047L7.89441 21.4472Z" fill="#4F4AE6"/>
<path d="M40 27.8111C40 26.4361 38.876 25.2661 37.5019 25.2111L11.46 24.1695C11.46 24.1695 11.0266 24.1608 10.9663 24.1654C10.3618 24.2089 9.7965 24.4806 9.38495 24.9255C8.9734 25.3703 8.74642 25.955 8.75004 26.5611V33.7486C8.75004 35.0486 9.75129 36.0345 11.0172 36.0345C11.0907 36.0345 11.165 36.0314 11.24 36.0245L37.51 33.6601C38.8797 33.5367 40 32.3111 40 30.9361V29.9986C40 29.9439 39.996 29.8901 39.9925 29.8361C39.9957 29.7861 40 29.7367 40 29.6861V27.8111ZM37.3982 32.4148L11.1279 34.7798C11.0904 34.7836 11.0538 34.7848 11.0172 34.7848C10.4279 34.7848 10 34.3492 10 33.7489V33.3495C10.3829 33.5528 10.814 33.6478 11.2469 33.6242L37.5032 32.3111C37.6432 32.3042 37.7797 32.2829 37.9138 32.2536C37.7546 32.3417 37.5792 32.3964 37.3982 32.4148ZM38.75 29.6861C38.75 30.3964 38.1504 31.027 37.4407 31.0623L11.1847 32.3751C11.1639 32.3763 11.1431 32.3768 11.1222 32.3767C10.4929 32.3767 10 31.8811 10 31.2486V26.5611C10 25.9151 10.5044 25.4089 11.1482 25.4089C11.165 25.4089 37.4522 26.4604 37.4522 26.4604C38.1557 26.4886 38.75 27.1073 38.75 27.8111V29.6861Z" fill="#4F4AE6"/>
</g>
<defs>
<clipPath id="clip0_44273_428">
<rect width="40" height="40" fill="white"/>
</clipPath>
</defs>
</svg>
