<svg width="40" height="40" viewBox="0 0 40 40" fill="none" xmlns="http://www.w3.org/2000/svg">
<path fill-rule="evenodd" clip-rule="evenodd" d="M10.1356 26.2404H6.64322C3.76903 26.2404 1.41797 23.8892 1.41797 21.0168C1.41797 18.9943 2.58275 17.2307 4.27397 16.363L4.27389 16.3361C4.27389 11.9317 7.84338 8.36068 12.2477 8.36068C12.4642 8.36068 12.6788 8.36931 12.8911 8.38625C13.777 4.94758 16.8978 2.40625 20.6131 2.40625C22.629 2.40625 24.4715 3.15488 25.876 4.38994C26.5521 4.18805 27.2539 4.08577 27.9595 4.08633C31.5613 4.08633 34.5483 6.70813 35.1202 10.1473C37.1715 10.887 38.5794 12.8517 38.5794 15.0624C38.5794 17.9348 36.2283 20.286 33.3541 20.286H30.1623C30.1964 20.5256 30.214 20.7697 30.214 21.0168C30.214 23.8892 27.863 26.2404 24.9888 26.2404H21.4964V32.0376H23.5936C23.8714 30.9808 24.834 30.2004 25.9776 30.2004C27.338 30.2004 28.4424 31.3048 28.4424 32.6651C28.4424 34.0255 27.338 35.1299 25.9776 35.1299C24.834 35.1299 23.8714 34.3494 23.5936 33.2925H20.8689C20.7025 33.2925 20.5429 33.2264 20.4253 33.1087C20.3076 32.9911 20.2415 32.8315 20.2415 32.6651V26.2404H16.4435V32.747C17.5003 33.0248 18.2807 33.9874 18.2807 35.131C18.2807 36.4913 17.1763 37.5957 15.816 37.5957C14.4557 37.5957 13.3512 36.4913 13.3512 35.131C13.3512 33.9874 14.1317 33.0248 15.1886 32.747V26.2404H11.3905V32.6651C11.3905 32.8315 11.3244 32.9911 11.2067 33.1087C11.0891 33.2264 10.9295 33.2925 10.7631 33.2925H8.03844C7.76064 34.3494 6.79797 35.1299 5.65444 35.1299C4.29405 35.1299 3.18966 34.0255 3.18966 32.6651C3.18966 31.3048 4.29405 30.2004 5.65444 30.2004C6.79797 30.2004 7.76064 30.9808 8.03844 32.0376H10.1356V26.2404ZM14.1366 8.58578C15.4074 8.89456 16.5595 9.5079 17.5107 10.3443C18.1867 10.1424 18.8885 10.0401 19.594 10.0407C23.1959 10.0407 26.183 12.6626 26.7549 16.1016C28.1599 16.6083 29.2631 17.6897 29.8187 19.0311H33.3541C35.538 19.0311 37.3245 17.2448 37.3245 15.0624C37.3245 13.2745 36.1119 11.699 34.3884 11.2312C34.2666 11.1981 34.1576 11.1291 34.0756 11.0331C33.9936 10.9371 33.9425 10.8186 33.9289 10.6932C33.6035 7.6835 31.0559 5.34123 27.9595 5.34123C27.2689 5.34044 26.5833 5.45897 25.9331 5.69158C25.8228 5.73109 25.7036 5.73892 25.5891 5.71419C25.4746 5.68946 25.3693 5.63316 25.2851 5.55166C24.0759 4.38107 22.4278 3.66115 20.6131 3.66115C17.5237 3.66115 14.9217 5.74617 14.1366 8.58578ZM24.9888 24.9855C27.1726 24.9855 28.9591 23.1993 28.9591 21.0168C28.9591 19.2288 27.7464 17.6533 26.0231 17.1856C25.9012 17.1526 25.7922 17.0835 25.7103 16.9875C25.6283 16.8915 25.5772 16.773 25.5636 16.6475C25.2382 13.6379 22.6906 11.2956 19.594 11.2956C18.9035 11.2948 18.218 11.4134 17.5678 11.6459C17.4575 11.6855 17.3383 11.6933 17.2238 11.6686C17.1093 11.6439 17.004 11.5876 16.9198 11.5061C15.7105 10.3354 14.0624 9.61558 12.2477 9.61558C8.53648 9.61558 5.52879 12.6248 5.52879 16.3361C5.52879 16.4654 5.53169 16.5947 5.53914 16.7226C5.54672 16.853 5.51338 16.9826 5.44378 17.0931C5.37418 17.2037 5.2718 17.2898 5.15091 17.3394C3.70244 17.9337 2.67287 19.3604 2.67287 21.0168C2.67287 23.1993 4.45938 24.9855 6.64322 24.9855H24.9888ZM25.9776 31.4553C25.3099 31.4553 24.7678 31.9974 24.7678 32.6651C24.7678 33.3328 25.3099 33.875 25.9776 33.875C26.6453 33.875 27.1875 33.3328 27.1875 32.6651C27.1875 31.9974 26.6453 31.4553 25.9776 31.4553ZM15.816 33.9211C15.1482 33.9211 14.6061 34.4632 14.6061 35.131C14.6061 35.7987 15.1482 36.3408 15.816 36.3408C16.4838 36.3408 17.0258 35.7987 17.0258 35.131C17.0258 34.4632 16.4838 33.9211 15.816 33.9211ZM5.65444 31.4553C4.98667 31.4553 4.44456 31.9974 4.44456 32.6651C4.44456 33.3328 4.98667 33.875 5.65444 33.875C6.32213 33.875 6.86424 33.3328 6.86424 32.6651C6.86424 31.9974 6.32213 31.4553 5.65444 31.4553ZM27.9838 9.33041V7.95747C27.9838 7.61119 28.2649 7.33001 28.6112 7.33001C28.9576 7.33001 29.2387 7.61119 29.2387 7.95747V9.33041H30.6116C30.9579 9.33041 31.2391 9.61151 31.2391 9.95786C31.2391 10.3041 30.9579 10.5853 30.6116 10.5853H29.2387V11.9582C29.2387 12.3044 28.9576 12.5856 28.6112 12.5856C28.2649 12.5856 27.9838 12.3044 27.9838 11.9582V10.5853H26.6109C26.2646 10.5853 25.9835 10.3041 25.9835 9.95786C25.9835 9.61151 26.2646 9.33041 26.6109 9.33041H27.9838Z" fill="#4F4AE6"/>
</svg>
