<svg width="15" height="20" viewBox="0 0 15 20" fill="none" xmlns="http://www.w3.org/2000/svg">
<path d="M7.5 19C11.0684 19 14 16.0636 14 12.2944C14 11.3692 13.9538 10.3768 13.4604 8.8348C12.9669 7.294 12.8676 7.0948 12.3452 6.142C12.1222 8.086 10.9285 8.8948 10.6246 9.1372C10.6246 8.8852 9.9024 6.1012 8.80809 4.4356C7.73342 2.8 6.27049 1.7272 5.41307 1C5.41307 2.3812 5.03982 4.4356 4.50364 5.482C3.96747 6.5284 3.86809 6.5668 3.19787 7.3456C2.52764 8.1244 2.22142 8.3644 1.66098 9.3088C1.10169 10.2544 1 11.5132 1 12.4384C1 16.2064 3.93164 19 7.5 19Z" stroke="white" stroke-linejoin="round"/>
</svg>
