<svg width="40" height="40" viewBox="0 0 40 40" fill="none" xmlns="http://www.w3.org/2000/svg">
<path d="M33.553 33.0797L23.7718 17.7078L33.4234 7.09063C33.6416 6.84457 33.7541 6.52239 33.7365 6.19394C33.7188 5.86549 33.5724 5.55724 33.329 5.33602C33.0855 5.11481 32.7647 4.99845 32.4361 5.01218C32.1075 5.02591 31.7975 5.16862 31.5734 5.40937L22.3796 15.5219L16.053 5.57969C15.9402 5.40212 15.7844 5.25589 15.6001 5.15456C15.4157 5.05323 15.2087 5.00007 14.9984 5H7.49836C7.27424 4.99989 7.05421 5.06004 6.86131 5.17416C6.66841 5.28827 6.50974 5.45215 6.40192 5.64863C6.29409 5.84511 6.24108 6.06697 6.24842 6.29097C6.25577 6.51497 6.32321 6.73288 6.44367 6.92187L16.2249 22.2922L6.57336 32.9172C6.46065 33.0383 6.3731 33.1805 6.31576 33.3357C6.25843 33.4908 6.23247 33.6558 6.23937 33.8211C6.24628 33.9864 6.28592 34.1486 6.35599 34.2984C6.42606 34.4483 6.52518 34.5827 6.6476 34.694C6.77001 34.8052 6.91329 34.8911 7.06913 34.9465C7.22496 35.002 7.39026 35.026 7.55543 35.0171C7.72061 35.0082 7.88237 34.9666 8.03136 34.8948C8.18035 34.8229 8.31359 34.7222 8.42336 34.5984L17.6171 24.4859L23.9437 34.4281C24.0574 34.6042 24.2136 34.7489 24.3979 34.8489C24.5822 34.9488 24.7887 35.0008 24.9984 35H32.4984C32.7222 34.9999 32.942 34.9397 33.1347 34.8257C33.3273 34.7117 33.4858 34.548 33.5936 34.3517C33.7014 34.1555 33.7545 33.9339 33.7473 33.7102C33.7402 33.4864 33.6731 33.2687 33.553 33.0797ZM25.6843 32.5L9.77492 7.5H14.3062L30.2218 32.5H25.6843Z" fill="url(#paint0_linear_44138_770)"/>
<defs>
<linearGradient id="paint0_linear_44138_770" x1="19.9136" y1="5" x2="19.9136" y2="35.0189" gradientUnits="userSpaceOnUse">
<stop stop-color="#FF7800"/>
<stop offset="1" stop-color="#FF4200"/>
</linearGradient>
</defs>
</svg>
