<svg width="40" height="40" viewBox="0 0 40 40" fill="none" xmlns="http://www.w3.org/2000/svg">
<path d="M33.75 6.25H26.25C25.9185 6.25 25.6005 6.3817 25.3661 6.61612C25.1317 6.85054 25 7.16848 25 7.5C25 7.83152 25.1317 8.14946 25.3661 8.38388C25.6005 8.6183 25.9185 8.75 26.25 8.75H28.75V27.6328L17.3438 6.89687C17.2359 6.70112 17.0776 6.53786 16.8852 6.42409C16.6928 6.31032 16.4735 6.2502 16.25 6.25H6.25C5.91848 6.25 5.60054 6.3817 5.36612 6.61612C5.1317 6.85054 5 7.16848 5 7.5C5 7.83152 5.1317 8.14946 5.36612 8.38388C5.60054 8.6183 5.91848 8.75 6.25 8.75H8.75V31.25H6.25C5.91848 31.25 5.60054 31.3817 5.36612 31.6161C5.1317 31.8505 5 32.1685 5 32.5C5 32.8315 5.1317 33.1495 5.36612 33.3839C5.60054 33.6183 5.91848 33.75 6.25 33.75H13.75C14.0815 33.75 14.3995 33.6183 14.6339 33.3839C14.8683 33.1495 15 32.8315 15 32.5C15 32.1685 14.8683 31.8505 14.6339 31.6161C14.3995 31.3817 14.0815 31.25 13.75 31.25H11.25V12.3672L22.6562 33.1031C22.7641 33.2989 22.9224 33.4621 23.1148 33.5759C23.3072 33.6897 23.5265 33.7498 23.75 33.75H30C30.3315 33.75 30.6495 33.6183 30.8839 33.3839C31.1183 33.1495 31.25 32.8315 31.25 32.5V8.75H33.75C34.0815 8.75 34.3995 8.6183 34.6339 8.38388C34.8683 8.14946 35 7.83152 35 7.5C35 7.16848 34.8683 6.85054 34.6339 6.61612C34.3995 6.3817 34.0815 6.25 33.75 6.25ZM12.1141 8.75H15.5109L27.8859 31.25H24.4891L12.1141 8.75Z" fill="url(#paint0_linear_44138_754)"/>
<defs>
<linearGradient id="paint0_linear_44138_754" x1="19.9133" y1="6.25" x2="19.9133" y2="33.75" gradientUnits="userSpaceOnUse">
<stop stop-color="#FF7800"/>
<stop offset="1" stop-color="#FF4200"/>
</linearGradient>
</defs>
</svg>
