<svg width="40" height="40" viewBox="0 0 40 40" fill="none" xmlns="http://www.w3.org/2000/svg">
<path d="M35.0501 17.8484C35.6342 16.4184 35.8294 14.8594 35.6159 13.3296C35.4023 11.7998 34.7876 10.3538 33.8342 9.1385C32.8808 7.92322 31.6227 6.98197 30.1877 6.41041C28.7527 5.83884 27.192 5.65732 25.6641 5.8843C24.7173 4.66464 23.4645 3.71725 22.0331 3.13832C20.6017 2.5594 19.0426 2.36955 17.5141 2.58807C15.9856 2.80659 14.5421 3.42568 13.3302 4.38249C12.1184 5.3393 11.1813 6.59975 10.6141 8.03586C9.0837 8.24535 7.63602 8.85624 6.41818 9.80646C5.20034 10.7567 4.25575 12.0124 3.6804 13.4459C3.10505 14.8794 2.91945 16.4397 3.14245 17.9682C3.36545 19.4967 3.98911 20.939 4.95005 22.1484C4.48112 23.2975 4.26204 24.5333 4.30734 25.7736C4.35264 27.0139 4.6613 28.2304 5.21281 29.3423C5.76432 30.4542 6.54607 31.4361 7.50614 32.2227C8.46622 33.0092 9.58265 33.5826 10.7813 33.9046C11.5243 34.108 12.2907 34.213 13.061 34.2171C13.4883 34.2167 13.9149 34.1848 14.3376 34.1218C15.2846 35.341 16.5373 36.288 17.9687 36.8665C19.4 37.4451 20.9589 37.6347 22.4871 37.416C24.0154 37.1974 25.4586 36.5782 26.6702 35.6215C27.8819 34.6648 28.8188 33.4045 29.386 31.9687C30.9164 31.7592 32.3641 31.1483 33.5819 30.1981C34.7998 29.2478 35.7444 27.9922 36.3197 26.5586C36.8951 25.1251 37.0807 23.5648 36.8577 22.0363C36.6347 20.5078 36.011 19.0656 35.0501 17.8562V17.8484ZM28.5704 8.50305C30.1455 8.92412 31.4937 9.94403 32.3274 11.3452C33.1611 12.7464 33.4143 14.4178 33.0329 16.003C32.8844 15.9046 32.7344 15.8093 32.5782 15.7202L25.6251 11.6984C25.435 11.5886 25.2195 11.5309 25.0001 11.5309C24.7806 11.5309 24.5651 11.5886 24.3751 11.6984L17.5001 15.6687V12.7812L23.8282 9.12805C24.5381 8.71569 25.3227 8.44814 26.1367 8.34086C26.9507 8.23358 27.7778 8.28871 28.5704 8.50305ZM22.5001 21.4421L20.0001 22.8859L17.5001 21.4421V18.5546L20.0001 17.1109L22.5001 18.5546V21.4421ZM12.5001 11.2484C12.5006 10.0265 12.8594 8.83158 13.5318 7.81143C14.2043 6.79127 15.1611 5.99061 16.2838 5.50847C17.4066 5.02633 18.646 4.88385 19.8488 5.09866C21.0517 5.31348 22.1652 5.87616 23.0516 6.71711C22.8954 6.7968 22.7391 6.87336 22.5829 6.97024L15.6251 10.978C15.4352 11.0876 15.2775 11.2452 15.1678 11.435C15.0581 11.6248 15.0003 11.8401 15.0001 12.0593V19.9984L12.5001 18.5546V11.2484ZM6.38443 13.5812C7.18084 12.1922 8.48287 11.1645 10.0188 10.7124C10.0079 10.8905 10.0001 11.0687 10.0001 11.2484V19.2765C10 19.496 10.0577 19.7116 10.1674 19.9016C10.2772 20.0917 10.435 20.2496 10.6251 20.3593L17.5001 24.328L15.0001 25.7796L8.67193 22.1187C7.23647 21.2898 6.18904 19.9247 5.76006 18.3237C5.33107 16.7226 5.55566 15.0167 6.38443 13.5812ZM11.4297 31.4937C9.85461 31.0726 8.50639 30.0527 7.67269 28.6515C6.839 27.2504 6.58584 25.5789 6.96724 23.9937C7.11568 24.0921 7.26568 24.1874 7.42193 24.2765L14.3751 28.2984C14.5651 28.4081 14.7806 28.4658 15.0001 28.4658C15.2195 28.4658 15.435 28.4081 15.6251 28.2984L22.5001 24.328V27.2155L16.1719 30.8687C15.462 31.281 14.6774 31.5486 13.8634 31.6559C13.0494 31.7631 12.2223 31.708 11.4297 31.4937ZM27.5001 28.7484C27.5007 29.9706 27.143 31.1662 26.4712 32.1872C25.7993 33.2082 24.8429 34.0099 23.7202 34.4929C22.5974 34.9759 21.3577 35.1192 20.1544 34.9049C18.9511 34.6907 17.837 34.1283 16.9501 33.2874C17.1063 33.2077 17.2626 33.1234 17.4188 33.0327L24.3751 29.0187C24.5649 28.9091 24.7226 28.7515 24.8323 28.5617C24.942 28.3719 24.9998 28.1566 25.0001 27.9374V19.9984L27.5001 21.4421V28.7484ZM33.6157 26.4155C32.8193 27.8045 31.5172 28.8322 29.9813 29.2843C29.9922 29.1062 30.0001 28.928 30.0001 28.7484V20.7202C30.0001 20.5008 29.9424 20.2852 29.8327 20.0951C29.7229 19.905 29.5651 19.7472 29.3751 19.6374L22.5001 15.6687L25.0001 14.2249L31.3282 17.878C32.7636 18.7069 33.8111 20.072 34.24 21.6731C34.669 23.2741 34.4444 24.9801 33.6157 26.4155Z" fill="url(#paint0_linear_44132_670)"/>
<defs>
<linearGradient id="paint0_linear_44132_670" x1="19.9021" y1="2.5" x2="19.9021" y2="37.5042" gradientUnits="userSpaceOnUse">
<stop stop-color="#FF7800"/>
<stop offset="1" stop-color="#FF4200"/>
</linearGradient>
</defs>
</svg>
