<svg width="26" height="26" viewBox="0 0 26 26" fill="none" xmlns="http://www.w3.org/2000/svg">
<path d="M5.81196 16.2689C5.81048 16.9595 5.53549 17.6213 5.04717 18.1097C4.55884 18.598 3.89696 18.873 3.20636 18.8745C2.51591 18.8728 1.85423 18.5977 1.36608 18.1094C0.877925 17.6211 0.603041 16.9593 0.601562 16.2689C0.603252 15.5785 0.878228 14.917 1.36636 14.4289C1.85449 13.9407 2.51605 13.6658 3.20636 13.6641H5.81196V16.2689ZM7.12396 16.2689C7.12565 15.5784 7.40074 14.9167 7.88904 14.4286C8.37734 13.9404 9.03911 13.6655 9.72956 13.6641C10.4199 13.6658 11.0814 13.9407 11.5696 14.4289C12.0577 14.917 12.3327 15.5785 12.3344 16.2689V22.7921C12.3327 23.4824 12.0577 24.1439 11.5696 24.6321C11.0814 25.1202 10.4199 25.3952 9.72956 25.3969C9.03911 25.3954 8.37734 25.1205 7.88904 24.6323C7.40074 24.1442 7.12565 23.4825 7.12396 22.7921V16.2689Z" fill="#E01E5A"/>
<path d="M9.72876 5.81196C9.03831 5.81027 8.37663 5.53518 7.88848 5.04688C7.40032 4.55858 7.12544 3.89682 7.12396 3.20636C7.12565 2.51591 7.40074 1.85423 7.88904 1.36607C8.37734 0.877923 9.03911 0.603041 9.72956 0.601562C10.4199 0.603252 11.0814 0.878228 11.5696 1.36636C12.0577 1.85449 12.3327 2.51605 12.3344 3.20636V5.81196H9.72876ZM9.72876 7.12316C10.4194 7.12464 11.0812 7.39963 11.5696 7.88796C12.0579 8.37628 12.3329 9.03817 12.3344 9.72876C12.3327 10.4191 12.0577 11.0806 11.5696 11.5688C11.0814 12.0569 10.4199 12.3319 9.72956 12.3336H3.20636C2.51605 12.3319 1.85449 12.0569 1.36636 11.5688C0.878228 11.0806 0.603252 10.4191 0.601562 9.72876C0.603041 9.03831 0.877925 8.37654 1.36608 7.88824C1.85423 7.39994 2.51591 7.12485 3.20636 7.12316H9.72876Z" fill="#36C5F0"/>
<path d="M20.1912 9.72876C20.1926 9.03817 20.4676 8.37628 20.956 7.88796C21.4443 7.39963 22.1062 7.12464 22.7968 7.12316C23.4874 7.12485 24.1492 7.40005 24.6373 7.88852C25.1255 8.377 25.4003 9.03897 25.4016 9.72956C25.3999 10.4199 25.1249 11.0814 24.6368 11.5696C24.1486 12.0577 23.4871 12.3327 22.7968 12.3344H20.1912V9.72876ZM18.8784 9.72956C18.8767 10.42 18.6016 11.0817 18.1133 11.5698C17.625 12.058 16.9632 12.3329 16.2728 12.3344C15.5825 12.3327 14.9209 12.0577 14.4328 11.5696C13.9446 11.0814 13.6697 10.4199 13.668 9.72956V3.20636C13.6697 2.51605 13.9446 1.85449 14.4328 1.36636C14.9209 0.878228 15.5825 0.603252 16.2728 0.601562C16.9632 0.603041 17.625 0.877923 18.1133 1.36608C18.6016 1.85423 18.8767 2.51591 18.8784 3.20636V9.72956Z" fill="#2EB67D"/>
<path d="M16.2736 20.1857C16.964 20.1874 17.6257 20.4624 18.1139 20.9507C18.602 21.439 18.8769 22.1008 18.8784 22.7913C18.8767 23.4817 18.6016 24.1434 18.1133 24.6315C17.625 25.1197 16.9632 25.3946 16.2728 25.3961C15.5825 25.3944 14.9209 25.1194 14.4328 24.6313C13.9446 24.1431 13.6697 23.4816 13.668 22.7913V20.1857H16.2736ZM16.2736 18.8737C15.5831 18.8722 14.9213 18.5973 14.433 18.1091C13.9447 17.621 13.6697 16.9593 13.668 16.2689C13.6697 15.5785 13.9446 14.917 14.4328 14.4289C14.9209 13.9407 15.5825 13.6658 16.2728 13.6641H22.796C23.4863 13.6658 24.1478 13.9407 24.636 14.4289C25.1241 14.917 25.3991 15.5785 25.4008 16.2689C25.3993 16.9593 25.1244 17.6211 24.6363 18.1094C24.1481 18.5977 23.4864 18.8728 22.796 18.8745H16.2728L16.2736 18.8737Z" fill="#ECB22E"/>
</svg>
