<svg width="29" height="30" viewBox="0 0 29 30" fill="none" xmlns="http://www.w3.org/2000/svg">
<path d="M28.8286 15.3295C28.8286 14.3076 28.7371 13.3257 28.5667 12.3828H15V17.9542H22.7524C22.419 19.7552 21.4038 21.2809 19.8781 22.3028V25.9171H24.5333C27.2571 23.4095 28.8286 19.7161 28.8286 15.3295Z" fill="#4285F4"/>
<path d="M15.0013 29.402C18.8908 29.402 22.1518 28.1125 24.5346 25.9125L19.8803 22.2982C18.5899 23.1629 16.9403 23.6734 15.0022 23.6734C11.2499 23.6734 8.07462 21.1401 6.94224 17.7344H2.12891V21.4668C4.50033 26.1744 9.36986 29.402 15.0013 29.402Z" fill="#34A853"/>
<path d="M6.93851 17.7301C6.64191 16.8479 6.48948 15.9237 6.48708 14.993C6.48708 14.0434 6.64994 13.1196 6.93851 12.2558V8.52344H2.12613C1.11765 10.5309 0.592867 12.7464 0.593751 14.993C0.593751 17.3168 1.14994 19.5168 2.12613 21.4615L6.93851 17.7301Z" fill="#FBBC05"/>
<path d="M15.0013 6.32232C17.1165 6.32232 19.0156 7.04994 20.508 8.47661L24.6403 4.34518C22.1451 2.02137 18.8841 0.59375 15.0022 0.59375C9.37081 0.59375 4.49938 3.82232 2.12891 8.52899L6.94129 12.2623C8.07462 8.85661 11.2499 6.32327 15.0022 6.32327L15.0013 6.32232Z" fill="#EA4335"/>
</svg>
