<svg width="24" height="28" viewBox="0 0 24 28" fill="none" xmlns="http://www.w3.org/2000/svg">
<path fill-rule="evenodd" clip-rule="evenodd" d="M16.9515 27.3043L16.8907 3.68219C16.7317 3.52327 16.4228 3.57111 16.302 3.60678L15.4969 3.85813C15.3976 3.52983 15.2687 3.21122 15.1117 2.90624C14.5401 1.81165 13.7058 1.23192 12.6955 1.2303H12.6915C12.6242 1.2303 12.5577 1.23678 12.4904 1.24246L12.4823 1.24327C12.4531 1.20719 12.4228 1.17204 12.3915 1.13786C11.952 0.665161 11.3869 0.434081 10.7107 0.454352C9.40606 0.491649 8.10795 1.43868 7.0539 3.1203C6.31282 4.30408 5.75012 5.7903 5.58876 6.94084L3.02093 7.7403C2.26525 7.97949 2.24174 8.003 2.14201 8.71894C2.06741 9.26057 0.0898438 24.6352 0.0898438 24.6352L16.6677 27.516L16.9515 27.3043ZM11.5198 1.53354C11.3001 1.38759 11.0415 1.3203 10.7358 1.32678C8.72255 1.38516 6.96552 4.5457 6.51795 6.65219L8.44687 6.05219L8.79147 5.94435C9.04363 4.60651 9.67768 3.22003 10.5071 2.32651C10.7974 2.00624 11.1396 1.73786 11.5198 1.53354ZM9.74417 5.64759L12.5131 4.7857C12.5212 4.06165 12.4434 2.99057 12.0817 2.23408C11.6974 2.393 11.3739 2.67192 11.142 2.92165C10.5201 3.59381 10.0109 4.61867 9.74417 5.64759ZM13.3798 4.51651L14.6666 4.11597C14.4615 3.44462 13.9734 2.32003 12.9834 2.13111C13.2915 2.92895 13.3693 3.85246 13.3798 4.51651Z" fill="#95BF47"/>
<path d="M20.6661 5.44218C20.5672 5.43407 18.6512 5.40488 18.6512 5.40488C18.6512 5.40488 17.0482 3.84002 16.8901 3.68029C16.8288 3.62354 16.751 3.58776 16.668 3.57812V27.5141L23.8518 25.7189L20.9004 5.66272C20.8915 5.60513 20.8636 5.55216 20.8211 5.51222C20.7787 5.47227 20.7241 5.44762 20.6661 5.44218Z" fill="#5E8E3E"/>
<path d="M12.6881 9.1602L11.8529 12.298C11.8529 12.298 10.9229 11.8716 9.81862 11.9413C8.20106 12.0443 8.18403 13.0707 8.20024 13.3278C8.28781 14.7305 11.9608 15.0378 12.1675 18.324C12.3297 20.9105 10.8029 22.6797 8.60241 22.8183C5.96241 22.9861 4.50781 21.4205 4.50781 21.4205L5.06727 19.0278C5.06727 19.0278 6.5316 20.1378 7.70241 20.0624C8.46781 20.0145 8.74025 19.3894 8.71349 18.9467C8.59835 17.1167 5.60727 17.2237 5.41754 14.2164C5.25943 11.6843 6.91268 9.12047 10.5621 8.88939C11.9681 8.79939 12.6881 9.1602 12.6881 9.1602Z" fill="white"/>
</svg>
