<svg width="26" height="27" viewBox="0 0 26 27" fill="none" xmlns="http://www.w3.org/2000/svg">
<path d="M1.66339 1.2761L16.6643 0.160283C18.4849 -0.0116572 18.9622 0.117298 20.1326 0.932223L24.9452 4.27968C25.7252 4.83759 25.9858 5.00954 25.9858 5.65342V23.9785C25.9858 25.1373 25.5523 25.8242 24.0783 25.9101L6.64876 26.94C5.52219 26.983 5.001 26.854 4.43771 26.1251L0.926372 21.6188C0.275327 20.76 0.015625 20.1582 0.015625 19.4283V3.12088C0.015625 2.1761 0.449058 1.36207 1.66339 1.2761Z" fill="white"/>
<path fill-rule="evenodd" clip-rule="evenodd" d="M16.6643 0.165282L1.66339 1.2811C0.449058 1.36707 0.015625 2.182 0.015625 3.12588V19.4342C0.015625 20.1641 0.275327 20.808 0.926372 21.6229L4.43771 26.1721C5.00189 26.902 5.56518 27.0739 6.64966 26.9871L24.0783 25.9572C25.5523 25.8722 25.9858 25.1853 25.9858 24.0265V5.65842C25.9858 5.05752 25.7691 4.88558 25.032 4.37066C24.9882 4.32767 24.9452 4.32767 24.9022 4.28469L20.1326 0.980207C19.0052 0.122296 18.5288 0.0363264 16.6643 0.165282ZM7.03921 5.35752C5.60816 5.44349 5.30548 5.48648 4.4816 4.79961L2.44339 3.21185C2.22667 2.99692 2.31354 2.73991 2.87682 2.69692L17.3144 1.66707C18.5288 1.5811 19.1359 1.96707 19.6123 2.35394L22.084 4.11364C22.2138 4.15663 22.4735 4.45662 22.127 4.45662L7.21294 5.35752H7.03921ZM5.39145 23.8545V8.27603C5.39145 7.58916 5.60816 7.28916 6.21533 7.24618L23.3413 6.25931C23.9055 6.21633 24.1652 6.55931 24.1652 7.24618V22.6957C24.1652 23.3826 24.0344 23.9405 23.1246 23.9835L6.73652 24.9283C5.82577 25.0133 5.39145 24.6704 5.39145 23.8545ZM21.5637 9.13484C21.6506 9.60678 21.5637 10.0787 21.0864 10.1217L20.3064 10.2936V21.7948C19.6123 22.1808 19.0052 22.3527 18.4849 22.3527C17.661 22.3527 17.4443 22.0948 16.7941 21.3229L11.5911 13.2542V21.022L13.2389 21.4089C13.2389 21.4089 13.2389 22.3527 11.9386 22.3527L8.29652 22.5677C8.20966 22.3527 8.29652 21.8378 8.64309 21.7527L9.59772 21.4948V11.1945L8.29652 11.0656C8.20966 10.5936 8.47025 9.90677 9.20727 9.86379L13.1091 9.60678L18.4849 17.7605V10.5516L17.0977 10.3787C17.0109 9.8208 17.4013 9.39185 17.9216 9.34887L21.5637 9.13484Z" fill="black"/>
</svg>
