<svg width="40" height="40" viewBox="0 0 40 40" fill="none" xmlns="http://www.w3.org/2000/svg">
<path d="M20 2.5C10.3475 2.5 2.5 10.3475 2.5 20C2.5 29.6525 10.3475 37.5 20 37.5C29.6525 37.5 37.5 29.6525 37.5 20C37.5 10.3475 29.6525 2.5 20 2.5Z" fill="#FDDD4C"/>
<path d="M12.3339 24.5637C11.9514 23.9847 12.9139 23.1077 12.5224 22.3717C12.2964 21.9467 11.9274 21.6822 11.4849 21.6267C11.0599 21.5737 10.6219 21.7292 10.3424 22.0332C9.90188 22.5132 9.83338 23.1657 9.91838 23.3967C9.94988 23.4817 9.99838 23.5047 10.0339 23.5097C10.2739 23.5412 10.4089 22.9247 10.4919 22.7967C10.7209 22.4432 11.2414 22.3362 11.6009 22.5687C12.2819 23.0092 11.6909 23.7217 11.7424 24.3232C11.7919 24.9087 12.1569 25.1442 12.4844 25.1687C12.8029 25.1812 13.0259 25.0037 13.0824 24.8747C13.2174 24.5662 12.6489 25.0407 12.3339 24.5637ZM26.5699 19.2462C26.3783 19.2218 26.1844 19.2218 25.9929 19.2462C25.8384 19.0512 25.7004 18.7362 25.6224 18.3682C25.4834 17.7137 25.4979 17.2397 25.8854 17.1782C26.2724 17.1162 26.4599 17.5122 26.5984 18.1667C26.6914 18.6067 26.6734 19.0112 26.5699 19.2462ZM22.3284 19.6352C22.3439 19.7837 22.3494 19.9337 22.3449 20.0717C22.7199 20.0937 22.9849 20.2717 23.0559 20.3847C23.0919 20.4427 23.0774 20.4807 23.0659 20.4982C23.0269 20.5587 22.9439 20.5492 22.7699 20.5297C22.6088 20.5089 22.4463 20.5009 22.2839 20.5057C22.1909 20.7897 21.9164 20.8162 21.7239 20.6057C21.5889 20.6472 21.3239 20.8162 21.2449 20.6327C21.2444 20.5412 21.3399 20.4087 21.5124 20.2917C21.396 20.0669 21.3139 19.8259 21.2689 19.5767C21.0239 19.6212 20.8039 19.6897 20.6309 19.7432C20.5499 19.7687 20.2294 19.9132 20.1919 19.7502C20.1669 19.6377 20.3419 19.4517 20.5279 19.3177C20.7318 19.1728 20.9609 19.0668 21.2034 19.0052C21.1984 18.6502 21.2889 18.4027 21.5469 18.3617C21.8669 18.3107 22.0649 18.5567 22.2019 19.0127C22.5884 19.1202 22.9744 19.3867 23.1449 19.6617C23.2114 19.7687 23.2239 19.8512 23.1814 19.8942C23.0739 20.0052 22.4809 19.6837 22.3284 19.6352ZM24.8699 21.2312C25.1149 21.3497 25.3849 21.3032 25.4729 21.1262C25.5609 20.9497 25.4329 20.7107 25.1879 20.5917C24.9429 20.4732 24.6729 20.5197 24.5854 20.6967C24.4974 20.8727 24.6244 21.1117 24.8699 21.2312ZM26.0769 20.3542C26.0814 20.0842 26.2469 19.8687 26.4459 19.8717C26.6449 19.8757 26.8024 20.0967 26.7979 20.3667C26.7934 20.6357 26.6279 20.8517 26.4289 20.8482C26.2299 20.8447 26.0724 20.6237 26.0769 20.3542Z" fill="black"/>
<path fill-rule="evenodd" clip-rule="evenodd" d="M31.4732 23.66C31.4717 23.655 31.4772 23.674 31.4732 23.66C31.8732 23.66 32.5002 24.1135 32.5002 25.2085C32.5002 26.298 32.0422 27.532 31.9342 27.806C30.2842 31.709 26.3467 33.881 21.6562 33.744C17.2837 33.6155 13.5542 31.338 11.9222 27.625C10.9352 27.626 9.91819 27.1975 9.14469 26.521C8.32969 25.8085 7.82669 24.886 7.72869 23.924C7.65269 23.175 7.74569 22.478 7.98369 21.8705L7.06669 21.104C2.87219 17.608 15.9917 3.21448 20.1867 6.82698C20.2082 6.84498 21.6142 8.20698 21.6177 8.20998C23.6407 7.36248 29.0612 5.74798 29.0677 9.50598C29.0697 10.754 28.2637 12.2095 26.9727 13.5295C28.4647 14.8955 28.0712 16.8355 28.3092 18.6155L28.8272 18.7575C29.8152 19.031 30.5177 19.3955 30.8617 19.752C31.2052 20.108 31.3757 20.4525 31.4377 20.857C31.4957 21.183 31.4877 21.759 31.0522 22.403C31.2087 22.818 31.3522 23.233 31.4732 23.66ZM11.8482 26.6125C11.9947 26.616 12.1402 26.6065 12.2827 26.5825C13.8157 26.3245 14.2167 24.681 13.9642 23.0675C13.6792 21.245 12.4302 20.6025 11.5827 20.5575C11.37 20.5463 11.1568 20.5611 10.9477 20.6015C9.43469 20.9025 8.58069 22.173 8.74919 23.823C8.90119 25.316 10.4312 26.575 11.8482 26.613V26.6125ZM8.42219 21.05C8.92969 20.322 9.75919 19.796 10.7007 19.615C11.8992 16.439 13.9007 13.513 16.5497 11.5C18.5152 9.88098 20.6357 8.71998 20.6357 8.71998C20.6357 8.71998 19.4937 7.41298 19.1487 7.31698C17.0277 6.75198 12.4467 9.86998 9.52119 13.9905C8.33769 15.6575 6.64319 18.6105 7.45369 20.1285C7.55369 20.3165 8.11869 20.8 8.42219 21.05ZM25.6197 25.884C25.621 25.9009 25.617 25.9178 25.6083 25.9324C25.5996 25.947 25.5867 25.9585 25.5712 25.9655C25.5712 25.9655 23.8662 26.7485 21.1592 25.922C21.2567 26.733 22.2407 27.041 22.9282 27.152C26.2832 27.722 29.4197 25.8285 30.1257 25.3515C30.2467 25.2695 30.1242 25.48 30.1022 25.511C29.2377 26.611 26.9142 27.886 23.8917 27.885C22.5732 27.885 21.2557 27.4265 20.7717 26.722C20.0217 25.629 20.7347 24.0335 21.9857 24.1995C24.1002 24.4355 26.2677 24.2585 28.2247 23.3615C29.9317 22.5795 30.5762 21.719 30.4797 21.0225C30.3287 19.9425 28.7277 19.7735 27.9182 19.511C27.5662 19.396 27.3927 19.304 27.3532 18.65C27.3357 18.365 27.2857 17.3685 27.2672 16.957C27.2347 16.2355 27.1472 15.2495 26.5272 14.8425C26.3688 14.7401 26.1857 14.6824 25.9972 14.6755C25.8916 14.6682 25.7855 14.6784 25.6832 14.7055C25.3482 14.762 25.1432 14.931 24.9017 15.1305L24.8597 15.1655C24.0867 15.801 23.4347 15.9055 22.7082 15.8745C22.4822 15.8645 22.2492 15.8425 22.0032 15.8185C21.7772 15.7965 21.5402 15.7735 21.2882 15.7585L20.9797 15.7415C19.7642 15.6795 18.4602 16.716 18.2437 18.1875C18.0012 19.8305 18.9197 20.8365 19.5167 21.491C19.6642 21.653 19.7922 21.793 19.8782 21.916C19.9332 21.9905 19.9977 22.095 19.9977 22.1945C19.9977 22.313 19.9197 22.407 19.8432 22.4875C18.6032 23.7465 18.2062 25.747 18.6732 27.414C18.7322 27.622 18.8062 27.821 18.8937 28.011C19.9902 30.541 23.3927 31.7185 26.7157 30.6475C29.0447 29.8965 31.1022 28.082 31.5212 25.5785C31.6212 24.9265 31.4742 24.6745 31.2752 24.553C31.0637 24.4245 30.8107 24.469 30.8107 24.469C30.8107 24.469 30.6957 23.69 30.3687 22.9815C29.4002 23.7365 28.1532 24.2665 27.2037 24.535C25.6822 24.966 24.0392 25.1335 22.4672 24.9305C21.8297 24.848 21.4012 24.793 21.2177 25.3815C23.3147 26.1395 25.5337 25.815 25.5337 25.815C25.5542 25.8127 25.5748 25.8187 25.591 25.8317C25.6071 25.8446 25.6174 25.8634 25.6197 25.884ZM19.5697 11.1765C18.4232 11.7555 17.1432 12.7865 16.1032 13.973C16.0667 14.0155 16.1212 14.0735 16.1662 14.041C17.0647 13.396 18.2962 12.7965 19.9087 12.4085C21.7157 11.9735 23.4552 12.156 24.5177 12.396C24.5717 12.4085 24.6047 12.3175 24.5577 12.291C23.8557 11.9025 22.7777 11.6385 22.0132 11.633C22.0047 11.6328 21.9965 11.6303 21.9893 11.6258C21.9822 11.6212 21.9765 11.6148 21.9727 11.6072C21.969 11.5996 21.9675 11.5911 21.9683 11.5827C21.969 11.5743 21.9721 11.5663 21.9772 11.5595C22.1153 11.3813 22.2762 11.2219 22.4557 11.0855C22.4927 11.057 22.4707 10.998 22.4237 11.0005C21.4727 11.0585 19.3007 12.049 19.3087 12.013C19.3637 11.749 19.5397 11.4 19.6302 11.2375C19.6522 11.199 19.6092 11.1565 19.5697 11.1765Z" fill="black"/>
</svg>
