<svg width="40" height="40" viewBox="0 0 40 40" fill="none" xmlns="http://www.w3.org/2000/svg">
<path fill-rule="evenodd" clip-rule="evenodd" d="M6.0882 27.9044C5.7782 28.4309 5.4292 29.0419 5.1332 29.5289C4.8682 29.9944 5.0107 30.5954 5.4532 30.8799L11.6582 34.8539C11.8767 34.9939 12.1392 35.0374 12.3882 34.9739C12.5126 34.9412 12.6292 34.8839 12.731 34.8053C12.8328 34.7267 12.9177 34.6285 12.9807 34.5164C13.2292 34.0839 13.5492 33.5229 13.8972 32.9214C16.3557 28.6989 18.8282 29.2159 23.2867 31.4314L29.4397 34.4764C29.5543 34.5334 29.6796 34.566 29.8076 34.5719C29.9355 34.5779 30.0633 34.5571 30.1827 34.5109C30.4247 34.4169 30.6197 34.2259 30.7237 33.9799L33.6787 27.0249C33.8872 26.5284 33.6747 25.9489 33.2012 25.7234C31.1279 24.7097 29.0594 23.6864 26.9957 22.6534C18.6327 18.4259 11.5252 18.6989 6.0882 27.9044Z" fill="url(#paint0_linear_44239_3010)"/>
<path fill-rule="evenodd" clip-rule="evenodd" d="M33.9122 12.1189C34.2222 11.5924 34.5712 10.9809 34.8672 10.4939C35.1322 10.0289 34.9897 9.42742 34.5472 9.14292L28.3417 5.16942C28.2344 5.09356 28.1121 5.04147 27.983 5.01664C27.8539 4.99181 27.721 4.9948 27.5932 5.02542C27.4641 5.05736 27.343 5.11581 27.2376 5.19707C27.1322 5.27833 27.0449 5.38061 26.9812 5.49742C26.7332 5.92942 26.4132 6.49092 26.0647 7.09192C23.6067 11.3144 21.1337 10.7979 16.6752 8.58192L10.5417 5.55192C10.4271 5.49487 10.3017 5.46239 10.1738 5.45653C10.0459 5.45068 9.91812 5.47158 9.79872 5.51792C9.55672 5.61142 9.36172 5.80292 9.25772 6.04892L6.30272 13.0039C6.09422 13.5004 6.30672 14.0794 6.78022 14.3049C8.85326 15.3187 10.9216 16.342 12.9852 17.3749C21.3677 21.5979 28.4752 21.3144 33.9122 12.1189Z" fill="url(#paint1_linear_44239_3010)"/>
<defs>
<linearGradient id="paint0_linear_44239_3010" x1="33.5112" y1="36.9059" x2="26.0832" y2="20.5319" gradientUnits="userSpaceOnUse">
<stop offset="0.18" stop-color="#0052CC"/>
<stop offset="1" stop-color="#2684FF"/>
</linearGradient>
<linearGradient id="paint1_linear_44239_3010" x1="6.48922" y1="3.11242" x2="13.9287" y2="19.4939" gradientUnits="userSpaceOnUse">
<stop offset="0.18" stop-color="#0052CC"/>
<stop offset="1" stop-color="#2684FF"/>
</linearGradient>
</defs>
</svg>
