<svg width="40" height="40" viewBox="0 0 40 40" fill="none" xmlns="http://www.w3.org/2000/svg">
<path fill-rule="evenodd" clip-rule="evenodd" d="M20 20C20 16.8935 22.5185 14.375 25.625 14.375C28.7315 14.375 31.25 16.8935 31.25 20C31.25 23.1065 28.7315 25.625 25.625 25.625C22.5185 25.625 20 23.1065 20 20Z" fill="#1ABCFE"/>
<path fill-rule="evenodd" clip-rule="evenodd" d="M8.75 31.25C8.75 28.1435 11.2685 25.625 14.375 25.625H20V31.25C20 34.3565 17.4815 36.875 14.375 36.875C11.2685 36.875 8.75 34.3565 8.75 31.25Z" fill="#0ACF83"/>
<path fill-rule="evenodd" clip-rule="evenodd" d="M20 3.125V14.375H25.625C28.7315 14.375 31.25 11.8565 31.25 8.75C31.25 5.6435 28.7315 3.125 25.625 3.125H20Z" fill="#FF7262"/>
<path fill-rule="evenodd" clip-rule="evenodd" d="M8.75 8.75C8.75 11.8565 11.2685 14.375 14.375 14.375H20V3.125H14.375C11.2685 3.125 8.75 5.6435 8.75 8.75Z" fill="#F24E1E"/>
<path fill-rule="evenodd" clip-rule="evenodd" d="M8.75 20C8.75 23.1065 11.2685 25.625 14.375 25.625H20V14.375H14.375C11.2685 14.375 8.75 16.8935 8.75 20Z" fill="#A259FF"/>
</svg>
