<svg width="40" height="40" viewBox="0 0 40 40" fill="none" xmlns="http://www.w3.org/2000/svg">
<path d="M20 37.5C29.665 37.5 37.5 29.665 37.5 20C37.5 10.335 29.665 2.5 20 2.5C10.335 2.5 2.5 10.335 2.5 20C2.5 29.665 10.335 37.5 20 37.5Z" fill="#FF3366"/>
<path d="M14.1992 13.5703C14.7793 13.5703 15.3357 13.3398 15.746 12.9296C16.1562 12.5194 16.3867 11.963 16.3867 11.3828C16.3867 10.8027 16.1562 10.2463 15.746 9.83602C15.3357 9.42578 14.7793 9.19531 14.1992 9.19531C13.619 9.19531 13.0626 9.42578 12.6524 9.83602C12.2422 10.2463 12.0117 10.8027 12.0117 11.3828C12.0117 11.963 12.2422 12.5194 12.6524 12.9296C13.0626 13.3398 13.619 13.5703 14.1992 13.5703ZM9.62919 15.4453L8.86719 18.2383H11.3672C10.8662 20.2763 9.81669 24.5628 9.62919 25.4063C9.39469 26.4613 9.35569 29.4688 12.5197 29.4688C14.7282 29.4688 16.1367 28.0423 16.9227 26.8773L16.3282 29.2543H19.8832L21.7382 21.7443C22.0022 20.4943 22.6232 18.0823 24.8632 18.0823C27.5282 18.0823 26.5507 21.2378 26.0717 22.7843L26.0157 22.9648C25.6567 24.1368 25.2737 25.5043 25.2737 26.4418C25.2737 27.4963 25.7617 29.4688 28.4962 29.4688C31.2307 29.4688 32.3962 26.7608 32.6367 25.4063L31.2502 24.8398C31.1527 25.5628 30.2737 27.1248 29.4532 27.1248C28.3302 27.1248 28.8947 25.2318 29.4967 23.2113C29.7632 22.3153 30.0377 21.3938 30.1762 20.6013C30.5252 18.5988 30.1762 15.1913 26.6992 15.1913C24.5402 15.1913 22.8442 17.1158 22.0382 18.4513L22.7152 15.4453H17.3052L16.5627 18.2383H19.0827C19.0827 18.2383 17.5872 24.3318 17.4907 24.5228C16.4747 26.5293 14.9387 27.2028 13.7892 27.1253C12.8672 27.0628 12.9757 25.9533 13.1447 25.4063L15.6447 15.4453H9.62919Z" fill="white"/>
</svg>
