<svg width="60" height="60" viewBox="0 0 60 60" fill="none" xmlns="http://www.w3.org/2000/svg">
<path d="M5.45425 5.62508C5.20695 5.62268 4.96224 5.67558 4.73801 5.77991C4.51378 5.88424 4.3157 6.03736 4.15825 6.22808C3.99728 6.42255 3.87957 6.64908 3.81297 6.89259C3.74637 7.1361 3.7324 7.391 3.772 7.64033L10.912 52.4033C11.0958 53.5343 12.0393 54.3653 13.15 54.3751H47.4063C48.2388 54.3863 48.955 53.7653 49.0878 52.9156L56.2285 7.64858C56.2681 7.39925 56.2541 7.14435 56.1875 6.90084C56.1209 6.65733 56.0032 6.4308 55.8423 6.23633C55.6847 6.04575 55.4866 5.89277 55.2624 5.78857C55.0382 5.68438 54.7935 5.63159 54.5462 5.63408L5.45425 5.62508ZM35.5218 37.9771H24.5883L21.6273 22.0051H38.1715L35.5218 37.9771Z" fill="#2684FF"/>
<path fill-rule="evenodd" clip-rule="evenodd" d="M53.9555 22.0078H38.1695L35.5198 37.9806H24.5863L11.6758 53.8048C12.0806 54.1684 12.6039 54.3721 13.148 54.3778H47.4125C48.245 54.3891 48.9613 53.7681 49.0948 52.9191L53.9555 22.0078Z" fill="url(#paint0_linear_44012_573)"/>
<defs>
<linearGradient id="paint0_linear_44012_573" x1="57.6058" y1="26.4816" x2="38.5783" y2="52.6438" gradientUnits="userSpaceOnUse">
<stop offset="0.18" stop-color="#0052CC"/>
<stop offset="1" stop-color="#2684FF"/>
</linearGradient>
</defs>
</svg>
