<svg width="60" height="60" viewBox="0 0 60 60" fill="none" xmlns="http://www.w3.org/2000/svg">
<path fill-rule="evenodd" clip-rule="evenodd" d="M10.7175 54.784L4.269 46.7515C2.72412 44.838 1.87946 42.454 1.875 39.9947V10.9037C1.875 7.24 4.80675 4.19875 8.589 3.94075L38.4975 1.8985C40.662 1.74797 42.8149 2.32387 44.6152 3.535L55.1235 10.6397C57.0045 11.911 58.125 13.99 58.125 16.2092V49.282C58.125 52.8677 55.242 55.837 51.54 56.065L18.3435 58.1087C15.3885 58.2902 12.5325 57.0452 10.7175 54.784Z" fill="white"/>
<path d="M21.0912 25.463V25.082C21.0912 24.116 21.8645 23.3158 22.8612 23.249L30.1197 22.7645L40.1585 37.547V24.5727L37.574 24.2277V24.0478C37.574 23.0705 38.3652 22.265 39.374 22.2133L45.9792 21.875V22.8253C45.9792 23.2715 45.6477 23.6532 45.1925 23.7297L43.6032 23.999V45.0095L41.6082 45.6957C39.9425 46.2687 38.087 45.6553 37.133 44.2153L27.3875 29.51V43.5455L30.3875 44.12L30.3455 44.3975C30.2142 45.2698 29.462 45.9282 28.5515 45.9688L21.0912 46.301C20.993 45.3635 21.695 44.5258 22.664 44.4237L23.6457 44.3202V25.6063L21.0912 25.463Z" fill="black"/>
<path fill-rule="evenodd" clip-rule="evenodd" d="M38.7635 5.56109L8.85578 7.60259C7.06403 7.72559 5.67578 9.16559 5.67578 10.9011V39.9913C5.67578 41.6226 6.23678 43.2073 7.27103 44.4958L13.7195 52.5298C14.762 53.8281 16.403 54.5436 18.101 54.4393L51.296 52.3956C52.9985 52.2906 54.3223 50.9271 54.3223 49.2793V16.2058C54.3223 15.1866 53.8078 14.2318 52.943 13.6468L42.4355 6.54209C41.3551 5.81561 40.0624 5.47039 38.7635 5.56109ZM10.3385 11.3548C9.92153 11.0473 10.1195 10.4053 10.6423 10.3678L38.9645 8.33609C39.8633 8.27042 40.757 8.51823 41.4935 9.03734L47.1763 13.0633C47.3923 13.2163 47.291 13.5463 47.024 13.5606L17.0308 15.1918C16.1273 15.2424 15.2344 14.9767 14.5055 14.4403L10.3385 11.3548ZM15.6238 20.3053C15.6238 19.3311 16.4113 18.5263 17.4178 18.4716L49.1293 16.7443C50.1103 16.6918 50.936 17.4456 50.936 18.3951V47.0331C50.936 48.0058 50.1515 48.8098 49.1465 48.8668L17.636 50.6593C16.544 50.7216 15.6238 49.8831 15.6238 48.8256V20.3053Z" fill="black"/>
</svg>
