<svg width="60" height="60" viewBox="0 0 60 60" fill="none" xmlns="http://www.w3.org/2000/svg">
<path d="M5.385 11.94C3.75 15.1485 3.75 19.35 3.75 27.75V32.25C3.75 40.6507 3.75 44.8515 5.385 48.06C6.82304 50.8823 9.11766 53.177 11.94 54.615C15.1485 56.25 19.35 56.25 27.75 56.25H32.25C40.6507 56.25 44.8515 56.25 48.06 54.615C50.8823 53.177 53.177 50.8823 54.615 48.06C56.25 44.8515 56.25 40.65 56.25 32.25V27.75C56.25 19.3492 56.25 15.1485 54.615 11.94C53.177 9.11766 50.8823 6.82304 48.06 5.385C44.8515 3.75 40.65 3.75 32.25 3.75H27.75C19.3492 3.75 15.1485 3.75 11.94 5.385C9.11769 6.82308 6.82308 9.11769 5.385 11.94Z" fill="url(#paint0_linear_44012_504)"/>
<path d="M4.24725 15.5246C3.75 18.3506 3.75 22.1006 3.75 27.7496V32.2496C3.75 40.6511 3.75 44.8511 5.385 48.0596C6.82308 50.8819 9.11769 53.1765 11.94 54.6146C15.1485 56.2503 19.35 56.2503 27.75 56.2503H32.25C40.6507 56.2503 44.8515 56.2503 48.06 54.6153C50.8823 53.1772 53.1769 50.8826 54.615 48.0603C56.25 44.8511 56.25 40.6511 56.25 32.2503V27.7503C56.25 19.3503 56.25 15.1503 54.615 11.9403C53.228 9.21867 51.0431 6.98537 48.3525 5.53906L4.24725 15.5246Z" fill="url(#paint1_linear_44012_504)"/>
<path d="M55.7061 44.7266C55.4646 45.9941 55.1166 47.0741 54.6141 48.0596C53.176 50.8819 50.8814 53.1765 48.0591 54.6146C44.9466 56.2008 40.9004 56.2488 32.9916 56.2496H30.1094V50.3193L55.7061 44.7266Z" fill="url(#paint2_linear_44012_504)"/>
<path d="M32.2505 3.75H27.7505C26.1155 3.75 24.641 3.75 23.3008 3.762V11.1945L48.3478 5.53575C48.2526 5.48446 48.1568 5.43421 48.0605 5.385C46.2793 4.4775 44.192 4.0725 41.2505 3.894C38.8933 3.75 35.9878 3.75 32.2505 3.75Z" fill="url(#paint3_linear_44012_504)"/>
<path d="M56.2502 32.5782C56.2502 38.2137 56.2397 41.9284 55.7072 44.7297L46.8047 46.6744V33.4084L56.2502 31.2109V32.5782Z" fill="url(#paint4_linear_44012_504)"/>
<path fill-rule="evenodd" clip-rule="evenodd" d="M28.0153 25.0847C28.0153 23.8794 29.0008 23.4159 30.6328 23.4159C32.9728 23.4159 35.9278 24.1269 38.2678 25.3937V18.1322C35.7126 17.1122 33.1881 16.7109 30.6328 16.7109C24.3831 16.7109 20.2266 19.9862 20.2266 25.4559C20.2266 33.9834 31.9258 32.6237 31.9258 36.3009C31.9258 37.7214 30.6943 38.1849 28.9708 38.1849C26.4148 38.1849 23.1508 37.1349 20.5648 35.7137V43.0674C23.4283 44.3034 26.3226 44.8284 28.9701 44.8284C35.3736 44.8284 39.7768 41.6454 39.7768 36.1149C39.7461 26.9072 28.0153 28.5452 28.0153 25.0847Z" fill="white"/>
<defs>
<linearGradient id="paint0_linear_44012_504" x1="3.75" y1="3.75" x2="20.994" y2="15.9413" gradientUnits="userSpaceOnUse">
<stop stop-color="#392993"/>
<stop offset="1" stop-color="#4B47B9"/>
</linearGradient>
<linearGradient id="paint1_linear_44012_504" x1="5.727" y1="16.0773" x2="43.794" y2="47.4768" gradientUnits="userSpaceOnUse">
<stop stop-color="#594BB9"/>
<stop offset="1" stop-color="#60A8F2"/>
</linearGradient>
<linearGradient id="paint2_linear_44012_504" x1="30.1094" y1="50.5391" x2="56.2491" y2="56.2503" gradientUnits="userSpaceOnUse">
<stop stop-color="#61A2EF"/>
<stop offset="1" stop-color="#58E6FD"/>
</linearGradient>
<linearGradient id="paint3_linear_44012_504" x1="23.3008" y1="7.48425" x2="56.2505" y2="3.75" gradientUnits="userSpaceOnUse">
<stop stop-color="#534EBE"/>
<stop offset="1" stop-color="#6875E2"/>
</linearGradient>
<linearGradient id="paint4_linear_44012_504" x1="46.8047" y1="33.5179" x2="56.2502" y2="44.8302" gradientUnits="userSpaceOnUse">
<stop stop-color="#71A5F3"/>
<stop offset="1" stop-color="#6CC3FA"/>
</linearGradient>
</defs>
</svg>
