<svg width="60" height="60" viewBox="0 0 60 60" fill="none" xmlns="http://www.w3.org/2000/svg">
<path fill-rule="evenodd" clip-rule="evenodd" d="M9.13231 41.8526C8.66731 42.6424 8.14381 43.5589 7.69981 44.2894C7.30231 44.9876 7.51606 45.8891 8.17981 46.3159L17.4873 52.2769C17.8151 52.4869 18.2088 52.5521 18.5823 52.4569C18.7689 52.408 18.9438 52.322 19.0964 52.2041C19.2491 52.0862 19.3765 51.9388 19.4711 51.7706C19.8438 51.1219 20.3238 50.2804 20.8458 49.3781C24.5336 43.0444 28.2423 43.8199 34.9301 47.1431L44.1596 51.7106C44.3315 51.7963 44.5194 51.8451 44.7113 51.854C44.9032 51.8629 45.0949 51.8317 45.2741 51.7624C45.6371 51.6214 45.9296 51.3349 46.0856 50.9659L50.5181 40.5334C50.8308 39.7886 50.5121 38.9194 49.8018 38.5811C46.6919 37.0607 43.5891 35.5257 40.4936 33.9761C27.9491 27.6349 17.2878 28.0444 9.13231 41.8526Z" fill="url(#paint0_linear_44012_544)"/>
<path fill-rule="evenodd" clip-rule="evenodd" d="M50.8664 18.1784C51.3314 17.3886 51.8549 16.4714 52.2989 15.7409C52.6964 15.0434 52.4826 14.1411 51.8189 13.7144L42.5106 7.75412C42.3496 7.64033 42.1662 7.56221 41.9726 7.52496C41.7789 7.48771 41.5796 7.4922 41.3879 7.53812C41.1941 7.58604 41.0125 7.67372 40.8544 7.79561C40.6964 7.91749 40.5654 8.07091 40.4699 8.24612C40.0979 8.89412 39.6179 9.73637 39.0951 10.6379C35.4081 16.9716 31.6986 16.1969 25.0109 12.8729L15.8106 8.32787C15.6386 8.24231 15.4507 8.19358 15.2588 8.1848C15.0669 8.17601 14.8752 8.20738 14.6961 8.27687C14.3331 8.41712 14.0406 8.70437 13.8846 9.07337L9.45213 19.5059C9.13938 20.2506 9.45813 21.1191 10.1684 21.4574C13.2779 22.9781 16.3805 24.5131 19.4759 26.0624C32.0496 32.3969 42.7109 31.9716 50.8664 18.1784Z" fill="url(#paint1_linear_44012_544)"/>
<defs>
<linearGradient id="paint0_linear_44012_544" x1="50.2668" y1="55.3549" x2="39.1248" y2="30.7939" gradientUnits="userSpaceOnUse">
<stop offset="0.18" stop-color="#0052CC"/>
<stop offset="1" stop-color="#2684FF"/>
</linearGradient>
<linearGradient id="paint1_linear_44012_544" x1="9.73188" y1="4.66862" x2="20.8911" y2="29.2409" gradientUnits="userSpaceOnUse">
<stop offset="0.18" stop-color="#0052CC"/>
<stop offset="1" stop-color="#2684FF"/>
</linearGradient>
</defs>
</svg>
