<svg width="58" height="58" viewBox="0 0 58 58" fill="none" xmlns="http://www.w3.org/2000/svg">
<g filter="url(#filter0_d_44012_550)">
<path d="M2.75 20.4167C2.75 13.8827 2.75 10.6158 4.02125 8.11975C5.13975 5.9245 6.9245 4.13975 9.11975 3.02125C11.6165 1.75 14.8827 1.75 21.4175 1.75H36.5825C43.1165 1.75 46.3835 1.75 48.8795 3.02125C51.0744 4.13988 52.8589 5.92465 53.9772 8.11975C55.25 10.6165 55.25 13.8827 55.25 20.4175V35.5825C55.25 42.1165 55.25 45.3835 53.9788 47.8795C52.86 50.0746 51.0749 51.8591 48.8795 52.9772C46.385 54.25 43.118 54.25 36.584 54.25H21.4175C14.8835 54.25 11.6165 54.25 9.1205 52.9788C6.92518 51.8601 5.14037 50.075 4.022 47.8795C2.75 45.385 2.75 42.118 2.75 35.584V20.4167Z" fill="white"/>
<path d="M44.9241 9.25H38.8281V18.0835H47.7486V11.7407C47.7509 11.7407 47.3076 9.49075 44.9241 9.25ZM38.8304 46.7087V46.75L47.7509 37.9165H47.6714L38.8304 46.7087Z" fill="#1967D2"/>
<path d="M47.7486 37.9189V37.8394L47.6691 37.9189H47.7486ZM47.7486 18.0859H38.8281V37.8394H47.7486V18.0859Z" fill="#FBBC05"/>
<path d="M47.6691 37.9154H38.8281V46.7077L47.6691 37.9154ZM38.8281 37.9154H47.6691L47.7486 37.8359H38.8281V37.9154Z" fill="#EA4335"/>
<path d="M38.8086 46.7327H38.8303V46.7109L38.8086 46.7327Z" fill="#34A853"/>
<path d="M18.9688 37.8359V46.7302H38.8078L38.8302 37.8359H18.9688Z" fill="#34A853"/>
<path d="M38.8303 37.9154V37.8359L38.8086 46.7302L38.8303 46.7077V37.9154Z" fill="#34A853"/>
<path d="M10.25 37.8359V44.0197C10.3303 46.0267 12.5 46.7302 12.5 46.7302H18.9695V37.8359H10.25Z" fill="#188038"/>
<path d="M18.9695 18.0835H38.8295V9.25H12.752C12.752 9.25 10.4097 9.49075 10.25 11.98V37.837H18.9695V18.0835Z" fill="#4285F4"/>
<path d="M25.4679 33.8373C25.0134 33.8373 24.5754 33.778 24.1532 33.6603C23.7486 33.5448 23.3652 33.3651 23.0177 33.1278C22.6627 32.8716 22.3503 32.5611 22.0922 32.2075C21.8221 31.8192 21.6192 31.3882 21.4922 30.9325L23.4879 30.1412C23.6289 30.6797 23.8667 31.0885 24.2019 31.3683C24.5372 31.6368 24.9594 31.7717 25.4679 31.7717C25.6952 31.7717 25.9112 31.7395 26.1167 31.6743C26.3222 31.5993 26.5007 31.4973 26.6522 31.3683C26.8037 31.2393 26.9222 31.0885 27.0092 30.916C27.1083 30.7269 27.1585 30.516 27.1554 30.3025C27.1554 29.83 26.9769 29.458 26.6199 29.1888C26.2734 28.9203 25.7919 28.7853 25.1754 28.7853H24.2184V26.8652H25.0944C25.3112 26.8652 25.5219 26.8383 25.7274 26.7843C25.9329 26.7303 26.1114 26.6493 26.2629 26.542C26.4249 26.4235 26.5494 26.2788 26.6364 26.107C26.7364 25.9123 26.7864 25.6959 26.7819 25.477C26.7819 25.111 26.6522 24.8155 26.3927 24.589C26.1332 24.3527 25.7814 24.2343 25.3382 24.2343C24.8619 24.2343 24.4944 24.3633 24.2342 24.6213C23.9859 24.8688 23.8127 25.1485 23.7152 25.4613L21.7682 24.67C21.8657 24.4008 22.0112 24.1263 22.2062 23.8465C22.4012 23.5563 22.6442 23.2983 22.9359 23.0718C23.2543 22.8268 23.6109 22.636 23.9912 22.507C24.3909 22.357 24.8514 22.2812 25.3704 22.2812C25.9007 22.2812 26.3822 22.3563 26.8149 22.507C27.2582 22.6578 27.6369 22.867 27.9504 23.137C28.2647 23.395 28.5077 23.707 28.6809 24.073C28.8534 24.4277 28.9404 24.8155 28.9404 25.2355C28.9404 25.558 28.8969 25.8483 28.8107 26.1063C28.7411 26.3511 28.6374 26.5849 28.5024 26.8008C28.2683 27.1728 27.9372 27.4741 27.5447 27.6722V27.8013C28.0575 28.0003 28.5025 28.342 28.8272 28.786C29.1729 29.2375 29.3462 29.8075 29.3462 30.496C29.3509 30.9573 29.2568 31.4143 29.0702 31.8363C28.8864 32.2338 28.6209 32.584 28.2752 32.8855C27.9399 33.1862 27.5342 33.418 27.0579 33.5793C26.5824 33.7518 26.0522 33.8373 25.4679 33.8373ZM33.2214 33.5785V25.0255L31.2579 25.849L30.4787 24.0573L33.7412 22.54H35.3469V33.58H33.2214V33.5785Z" fill="#4285F4"/>
</g>
<defs>
<filter id="filter0_d_44012_550" x="0.75" y="0.75" width="56.5" height="56.5" filterUnits="userSpaceOnUse" color-interpolation-filters="sRGB">
<feFlood flood-opacity="0" result="BackgroundImageFix"/>
<feColorMatrix in="SourceAlpha" type="matrix" values="0 0 0 0 0 0 0 0 0 0 0 0 0 0 0 0 0 0 127 0" result="hardAlpha"/>
<feOffset dy="1"/>
<feGaussianBlur stdDeviation="1"/>
<feComposite in2="hardAlpha" operator="out"/>
<feColorMatrix type="matrix" values="0 0 0 0 0.0627451 0 0 0 0 0.0941176 0 0 0 0 0.156863 0 0 0 0.05 0"/>
<feBlend mode="normal" in2="BackgroundImageFix" result="effect1_dropShadow_44012_550"/>
<feBlend mode="normal" in="SourceGraphic" in2="effect1_dropShadow_44012_550" result="shape"/>
</filter>
</defs>
</svg>
