<svg width="60" height="60" viewBox="0 0 60 60" fill="none" xmlns="http://www.w3.org/2000/svg">
<path d="M30 56.25C44.4975 56.25 56.25 44.4975 56.25 30C56.25 15.5025 44.4975 3.75 30 3.75C15.5025 3.75 3.75 15.5025 3.75 30C3.75 44.4975 15.5025 56.25 30 56.25Z" fill="#3290E8"/>
<path fill-rule="evenodd" clip-rule="evenodd" d="M41.25 15H18.75C16.7055 14.997 15.0037 16.71 15 18.75V41.25C15 42.2446 15.3951 43.1984 16.0983 43.9017C16.8016 44.6049 17.7554 45 18.75 45H41.25C43.2945 45.003 44.9963 43.29 45 41.25V18.75C45 17.7554 44.6049 16.8016 43.9016 16.0984C43.1984 15.3951 42.2446 15 41.25 15ZM33.999 20.4998C34.009 20.2411 34.1188 19.9964 34.3053 19.8169C34.4919 19.6375 34.7407 19.5373 34.9995 19.5373C35.2583 19.5373 35.5071 19.6375 35.6937 19.8169C35.8802 19.9964 35.99 20.2411 36 20.4998V33.861C36 34.4123 35.5515 34.8608 35.0002 34.8608C34.4708 34.8608 34.0012 34.392 33.9998 33.861L33.999 20.4998ZM28.9995 19.9943C28.9995 19.7289 29.1049 19.4744 29.2925 19.2868C29.4802 19.0992 29.7347 18.9938 30 18.9938C30.2653 18.9938 30.5198 19.0992 30.7075 19.2868C30.8951 19.4744 31.0005 19.7289 31.0005 19.9943V34.494C31.0005 35.0468 30.552 35.4945 30 35.4945C29.4705 35.4945 29.001 35.025 29.0002 34.494L28.9995 19.9943ZM24 20.4998C24.0122 20.2427 24.1229 20.0002 24.3091 19.8226C24.4953 19.645 24.7428 19.546 25.0001 19.546C25.2575 19.546 25.5049 19.645 25.6911 19.8226C25.8774 20.0002 25.9881 20.2427 26.0002 20.4998V33.861C26.0002 34.4123 25.5525 34.8608 24.9998 34.8608C24.4703 34.8608 24.0015 34.392 24 33.861V20.4998ZM18.9998 22.5C18.9998 22.2348 19.1051 21.9804 19.2927 21.7928C19.4802 21.6052 19.7346 21.4999 19.9999 21.4999C20.2651 21.4999 20.5195 21.6052 20.7071 21.7928C20.8946 21.9804 21 22.2348 21 22.5V31.494C21 32.0468 20.5515 32.4945 20.0002 32.4945C19.7357 32.492 19.4827 32.3857 19.2956 32.1987C19.1085 32.0116 19.0023 31.7586 18.9998 31.494V22.5ZM40.6515 37.7535C40.4977 37.887 36.7927 40.9935 30 40.9935C23.208 40.9935 19.5053 37.8855 19.3485 37.7528C19.1495 37.5786 19.0268 37.3333 19.0068 37.0697C18.9867 36.806 19.0709 36.545 19.2413 36.3428C19.5863 35.9415 20.2448 35.8898 20.6475 36.2333C20.706 36.2828 24.0143 38.994 29.9993 38.994C36.0592 38.994 39.3165 36.2625 39.348 36.2355C39.7507 35.8905 40.4115 35.94 40.758 36.3435C41.1143 36.756 41.0655 37.3995 40.6515 37.7535ZM41.0002 31.4948C41.0002 32.0468 40.5518 32.4953 39.9998 32.4953C39.7353 32.4925 39.4825 32.3862 39.2956 32.1991C39.1087 32.0121 39.0025 31.7592 39 31.4948V22.5C39 22.2348 39.1054 21.9804 39.2929 21.7928C39.4805 21.6052 39.7349 21.4999 40.0001 21.4999C40.2654 21.4999 40.5198 21.6052 40.7073 21.7928C40.8949 21.9804 41.0002 22.2348 41.0002 22.5V31.4948Z" fill="white"/>
</svg>
