<svg width="60" height="60" viewBox="0 0 60 60" fill="none" xmlns="http://www.w3.org/2000/svg">
<path d="M55.6218 28.5308L32.2645 5.94L30.0003 3.75L12.418 20.7555L4.37876 28.5308C4.18005 28.7204 4.02187 28.9484 3.9138 29.2009C3.80572 29.4535 3.75 29.7253 3.75 30C3.75 30.2747 3.80572 30.5465 3.9138 30.7991C4.02187 31.0516 4.18005 31.2796 4.37876 31.4692L20.4423 47.0055L30.0003 56.25L47.5825 39.2445L47.8548 38.9812L55.6218 31.4692C55.8205 31.2796 55.9787 31.0516 56.0867 30.7991C56.1948 30.5465 56.2505 30.2747 56.2505 30C56.2505 29.7253 56.1948 29.4535 56.0867 29.2009C55.9787 28.9484 55.8205 28.7204 55.6218 28.5308ZM30.0003 37.7625L21.9753 30L30.0003 22.2382L38.0253 30L30.0003 37.7625Z" fill="#2684FF"/>
<path fill-rule="evenodd" clip-rule="evenodd" d="M30.0011 22.2385C24.7473 17.1565 24.7218 8.92525 29.9441 3.8125L12.3828 20.7902L21.9408 30.0348L30.0011 22.2385Z" fill="url(#paint0_linear_44012_467)"/>
<path fill-rule="evenodd" clip-rule="evenodd" d="M38.046 29.9766L30 37.7586C32.5357 40.2096 33.96 43.5351 33.96 47.0031C33.96 50.4703 32.5357 53.7958 30 56.2468L47.604 39.2203L38.046 29.9766Z" fill="url(#paint1_linear_44012_467)"/>
<defs>
<linearGradient id="paint0_linear_44012_467" x1="28.5686" y1="14.3875" x2="15.1826" y2="20.2323" gradientUnits="userSpaceOnUse">
<stop offset="0.18" stop-color="#0052CC"/>
<stop offset="1" stop-color="#2684FF"/>
</linearGradient>
<linearGradient id="paint1_linear_44012_467" x1="31.533" y1="45.5196" x2="44.895" y2="39.7168" gradientUnits="userSpaceOnUse">
<stop offset="0.18" stop-color="#0052CC"/>
<stop offset="1" stop-color="#2684FF"/>
</linearGradient>
</defs>
</svg>
