<svg width="60" height="60" viewBox="0 0 60 60" fill="none" xmlns="http://www.w3.org/2000/svg">
<path fill-rule="evenodd" clip-rule="evenodd" d="M30 30C30 25.3403 33.7778 21.5625 38.4375 21.5625C43.0972 21.5625 46.875 25.3403 46.875 30C46.875 34.6597 43.0972 38.4375 38.4375 38.4375C33.7778 38.4375 30 34.6597 30 30Z" fill="#1ABCFE"/>
<path fill-rule="evenodd" clip-rule="evenodd" d="M13.125 46.875C13.125 42.2153 16.9028 38.4375 21.5625 38.4375H30V46.875C30 51.5347 26.2222 55.3125 21.5625 55.3125C16.9028 55.3125 13.125 51.5347 13.125 46.875Z" fill="#0ACF83"/>
<path fill-rule="evenodd" clip-rule="evenodd" d="M30 4.6875V21.5625H38.4375C43.0972 21.5625 46.875 17.7847 46.875 13.125C46.875 8.46525 43.0972 4.6875 38.4375 4.6875H30Z" fill="#FF7262"/>
<path fill-rule="evenodd" clip-rule="evenodd" d="M13.125 13.125C13.125 17.7847 16.9028 21.5625 21.5625 21.5625H30V4.6875H21.5625C16.9028 4.6875 13.125 8.46525 13.125 13.125Z" fill="#F24E1E"/>
<path fill-rule="evenodd" clip-rule="evenodd" d="M13.125 30C13.125 34.6597 16.9028 38.4375 21.5625 38.4375H30V21.5625H21.5625C16.9028 21.5625 13.125 25.3403 13.125 30Z" fill="#A259FF"/>
</svg>
