<svg width="58" height="58" viewBox="0 0 58 58" fill="none" xmlns="http://www.w3.org/2000/svg">
<g filter="url(#filter0_d_44012_474)">
<path d="M2.75 20.4167C2.75 13.8827 2.75 10.6158 4.02125 8.11975C5.13975 5.9245 6.9245 4.13975 9.11975 3.02125C11.6165 1.75 14.8827 1.75 21.4175 1.75H36.5825C43.1165 1.75 46.3835 1.75 48.8795 3.02125C51.0744 4.13988 52.8589 5.92465 53.9772 8.11975C55.25 10.6165 55.25 13.8827 55.25 20.4175V35.5825C55.25 42.1165 55.25 45.3835 53.9788 47.8795C52.86 50.0746 51.0749 51.8591 48.8795 52.9772C46.385 54.25 43.118 54.25 36.584 54.25H21.4175C14.8835 54.25 11.6165 54.25 9.1205 52.9788C6.92518 51.8601 5.14037 50.075 4.022 47.8795C2.75 45.385 2.75 42.118 2.75 35.584V20.4167Z" fill="white"/>
<path d="M29.0031 21.3498L22.5141 9.89725C22.7294 9.67825 22.9776 9.53425 23.2251 9.4375C21.3119 10.0675 20.4336 12.2163 20.4336 12.2163L8.57912 33.1315C8.42949 33.7091 8.36477 34.3053 8.38712 34.9015H21.3254L29.0031 21.3498Z" fill="#34A853"/>
<path d="M29.0039 21.3498L36.6817 34.9007H49.6207C49.6426 34.3048 49.5777 33.7088 49.4279 33.1315L37.5734 12.2163C37.5734 12.2163 36.6929 10.0675 34.7819 9.4375C35.0272 9.535 35.2769 9.6775 35.4929 9.89725L29.0039 21.3498Z" fill="#FBBC05"/>
<path d="M29.0022 21.3474L35.4912 9.89487C35.2892 9.6932 35.047 9.53652 34.7802 9.43512C34.4841 9.33822 34.1764 9.28122 33.8652 9.26562H24.1385C23.8115 9.27912 23.5062 9.34062 23.2235 9.43512C22.9775 9.53187 22.7277 9.67512 22.5117 9.89487L29.0022 21.3474Z" fill="#188038"/>
<path d="M21.3274 34.8984L14.9127 46.2212C14.9127 46.2212 14.6989 46.1169 14.4102 45.9024C15.3192 46.6029 16.2042 46.7514 16.2042 46.7514H41.3989C42.7887 46.7514 43.0789 46.2212 43.0789 46.2212L43.0902 46.2137L36.6799 34.8984H21.3274Z" fill="#4285F4"/>
<path d="M21.3296 34.8984H8.39062C8.45587 36.4359 9.12262 37.3359 9.12262 37.3359L9.60938 38.1797L9.66487 38.2577L10.7239 40.1162L13.1006 44.2539C13.1704 44.4212 13.2506 44.5742 13.3369 44.7204C13.3691 44.7699 13.3991 44.8247 13.4344 44.8719L13.4621 44.9139C13.7561 45.3294 14.0846 45.6504 14.4146 45.9024C14.7041 46.1199 14.9171 46.2212 14.9171 46.2212L21.3296 34.8984Z" fill="#1967D2"/>
<path d="M36.6797 34.8984H49.6187C49.5534 36.4359 48.8859 37.3359 48.8859 37.3359L48.3999 38.1797L48.3444 38.2577L47.2854 40.1162L44.9079 44.2539C44.8389 44.4212 44.7579 44.5742 44.6724 44.7204C44.6394 44.7699 44.6094 44.8247 44.5749 44.8719L44.5472 44.9139C44.2817 45.2898 43.9605 45.6231 43.5947 45.9024C43.3052 46.1199 43.0922 46.2212 43.0922 46.2212L36.6797 34.8984Z" fill="#EA4335"/>
</g>
<defs>
<filter id="filter0_d_44012_474" x="0.75" y="0.75" width="56.5" height="56.5" filterUnits="userSpaceOnUse" color-interpolation-filters="sRGB">
<feFlood flood-opacity="0" result="BackgroundImageFix"/>
<feColorMatrix in="SourceAlpha" type="matrix" values="0 0 0 0 0 0 0 0 0 0 0 0 0 0 0 0 0 0 127 0" result="hardAlpha"/>
<feOffset dy="1"/>
<feGaussianBlur stdDeviation="1"/>
<feComposite in2="hardAlpha" operator="out"/>
<feColorMatrix type="matrix" values="0 0 0 0 0.0627451 0 0 0 0 0.0941176 0 0 0 0 0.156863 0 0 0 0.05 0"/>
<feBlend mode="normal" in2="BackgroundImageFix" result="effect1_dropShadow_44012_474"/>
<feBlend mode="normal" in="SourceGraphic" in2="effect1_dropShadow_44012_474" result="shape"/>
</filter>
</defs>
</svg>
