<svg width="60" height="60" viewBox="0 0 60 60" fill="none" xmlns="http://www.w3.org/2000/svg">
<path fill-rule="evenodd" clip-rule="evenodd" d="M30 58.125C44.4975 58.125 56.25 46.3725 56.25 31.875C56.25 17.3775 44.4975 5.625 30 5.625C15.5025 5.625 3.75003 17.3775 3.75003 31.875C3.74295 36.4134 4.91802 40.8753 7.15953 44.8215L3.75003 58.125L17.4653 54.945C21.3111 57.0384 25.6213 58.1319 30 58.125ZM30 54.0863C42.267 54.0863 52.2113 44.142 52.2113 31.875C52.2113 19.608 42.267 9.66375 30 9.66375C17.733 9.66375 7.78878 19.608 7.78878 31.875C7.7816 36.4304 9.18166 40.8768 11.7975 44.6062L9.80778 52.0672L17.4 50.1697C21.1036 52.727 25.4994 54.0938 30 54.0863Z" fill="#BFC8D0"/>
<path d="M52.5 30C52.5 42.4268 42.4268 52.5 30 52.5C25.4409 52.5075 20.988 51.1233 17.2365 48.5325L9.54528 50.4548L11.5605 42.897C8.91068 39.119 7.49253 34.6147 7.50003 30C7.50003 17.5733 17.5733 7.5 30 7.5C42.4268 7.5 52.5 17.5733 52.5 30Z" fill="url(#paint0_linear_44012_522)"/>
<path fill-rule="evenodd" clip-rule="evenodd" d="M30 56.25C44.4975 56.25 56.25 44.4975 56.25 30C56.25 15.5025 44.4975 3.75 30 3.75C15.5025 3.75 3.75003 15.5025 3.75003 30C3.74295 34.5384 4.91802 39.0003 7.15953 42.9465L3.75003 56.25L17.4653 53.07C21.3111 55.1634 25.6213 56.2569 30 56.25ZM30 52.2113C42.267 52.2113 52.2113 42.267 52.2113 30C52.2113 17.733 42.267 7.78875 30 7.78875C17.733 7.78875 7.78878 17.733 7.78878 30C7.7816 34.5554 9.18166 39.0018 11.7975 42.7312L9.80778 50.1922L17.4 48.2947C21.1036 50.852 25.4994 52.2188 30 52.2113Z" fill="white"/>
<path d="M23.4376 17.8088C22.8136 16.5556 21.8558 16.6666 20.8891 16.6666C19.1603 16.6666 16.4648 18.7366 16.4648 22.5908C16.4648 25.7483 17.8568 29.2058 22.5458 34.3771C27.0713 39.3676 33.0173 41.9498 37.9538 41.8621C42.8911 41.7736 43.9066 37.5256 43.9066 36.0916C43.9066 35.4556 43.5121 35.1383 43.2398 35.0521C41.5576 34.2443 38.4548 32.7406 37.7498 32.4571C37.0433 32.1751 36.6743 32.5576 36.4448 32.7646C35.8051 33.3751 34.5361 35.1736 34.1018 35.5771C33.6668 35.9821 33.0196 35.7773 32.7496 35.6243C31.7581 35.2268 29.0678 34.0298 26.9243 31.9516C24.2723 29.3813 24.1171 28.4971 23.6168 27.7103C23.2178 27.0803 23.5111 26.6941 23.6573 26.5253C24.2585 25.8218 24.8302 25.0937 25.3711 24.3428C25.7251 23.8366 25.4438 23.0686 25.2758 22.5908C24.5506 20.5336 23.9363 18.8123 23.4376 17.8088Z" fill="white"/>
<defs>
<linearGradient id="paint0_linear_44012_522" x1="49.6875" y1="13.125" x2="7.50003" y2="52.5" gradientUnits="userSpaceOnUse">
<stop stop-color="#5BD066"/>
<stop offset="1" stop-color="#27B43E"/>
</linearGradient>
</defs>
</svg>
