<svg width="60" height="60" viewBox="0 0 60 60" fill="none" xmlns="http://www.w3.org/2000/svg">
<path d="M49.6875 28.125C50.6146 28.125 51.5209 27.8501 52.2917 27.335C53.0626 26.8199 53.6634 26.0879 54.0182 25.2313C54.373 24.3748 54.4658 23.4323 54.2849 22.523C54.1041 21.6137 53.6576 20.7785 53.0021 20.1229C52.3465 19.4674 51.5113 19.0209 50.602 18.8401C49.6927 18.6592 48.7502 18.752 47.8937 19.1068C47.0371 19.4616 46.3051 20.0624 45.79 20.8333C45.2749 21.6041 45 22.5104 45 23.4375V28.125H49.6875ZM36.5625 28.125C37.1781 28.125 37.7876 28.0038 38.3563 27.7682C38.925 27.5326 39.4418 27.1873 39.8771 26.7521C40.3123 26.3168 40.6576 25.8 40.8932 25.2313C41.1288 24.6626 41.25 24.0531 41.25 23.4375V10.3125C41.25 9.0693 40.7561 7.87701 39.8771 6.99794C38.998 6.11886 37.8057 5.625 36.5625 5.625C35.3193 5.625 34.127 6.11886 33.2479 6.99794C32.3689 7.87701 31.875 9.0693 31.875 10.3125V23.4375C31.875 24.6807 32.3689 25.873 33.2479 26.7521C34.127 27.6311 35.3193 28.125 36.5625 28.125Z" fill="#2EB67D"/>
<path d="M10.3125 31.875C9.3854 31.875 8.47912 32.1499 7.70827 32.665C6.93741 33.1801 6.3366 33.9121 5.98182 34.7687C5.62703 35.6252 5.5342 36.5677 5.71507 37.477C5.89594 38.3863 6.34238 39.2215 6.99794 39.8771C7.6535 40.5326 8.48873 40.9791 9.39802 41.1599C10.3073 41.3408 11.2498 41.248 12.1063 40.8932C12.9629 40.5384 13.6949 39.9376 14.21 39.1667C14.7251 38.3959 15 37.4896 15 36.5625V31.875H10.3125ZM23.4375 31.875C22.1943 31.875 21.002 32.3689 20.1229 33.2479C19.2439 34.127 18.75 35.3193 18.75 36.5625V49.6875C18.75 50.9307 19.2439 52.123 20.1229 53.0021C21.002 53.8811 22.1943 54.375 23.4375 54.375C24.6807 54.375 25.873 53.8811 26.7521 53.0021C27.6311 52.123 28.125 50.9307 28.125 49.6875V36.5625C28.125 35.3193 27.6311 34.127 26.7521 33.2479C25.873 32.3689 24.6807 31.875 23.4375 31.875Z" fill="#E01E5A"/>
<path d="M31.875 49.6875C31.875 50.6146 32.1499 51.5209 32.665 52.2917C33.1801 53.0626 33.9121 53.6634 34.7687 54.0182C35.6252 54.373 36.5677 54.4658 37.477 54.2849C38.3863 54.1041 39.2215 53.6576 39.8771 53.0021C40.5326 52.3465 40.9791 51.5113 41.1599 50.602C41.3408 49.6927 41.248 48.7502 40.8932 47.8937C40.5384 47.0371 39.9376 46.3051 39.1667 45.79C38.3959 45.2749 37.4896 45 36.5625 45H31.875V49.6875ZM31.875 36.5625C31.875 37.1781 31.9962 37.7876 32.2318 38.3563C32.4674 38.925 32.8127 39.4418 33.2479 39.8771C33.6832 40.3123 34.2 40.6576 34.7687 40.8932C35.3374 41.1288 35.9469 41.25 36.5625 41.25H49.6875C50.9307 41.25 52.123 40.7561 53.0021 39.8771C53.8811 38.998 54.375 37.8057 54.375 36.5625C54.375 35.3193 53.8811 34.127 53.0021 33.2479C52.123 32.3689 50.9307 31.875 49.6875 31.875H36.5625C35.3193 31.875 34.127 32.3689 33.2479 33.2479C32.3689 34.127 31.875 35.3193 31.875 36.5625Z" fill="#ECB22E"/>
<path d="M28.125 10.3125C28.125 9.3854 27.8501 8.47912 27.335 7.70827C26.8199 6.93741 26.0879 6.3366 25.2313 5.98182C24.3748 5.62703 23.4323 5.5342 22.523 5.71507C21.6137 5.89594 20.7785 6.34238 20.1229 6.99794C19.4674 7.6535 19.0209 8.48873 18.8401 9.39802C18.6592 10.3073 18.752 11.2498 19.1068 12.1063C19.4616 12.9629 20.0624 13.6949 20.8333 14.21C21.6041 14.7251 22.5104 15 23.4375 15H28.125V10.3125ZM28.125 23.4375C28.125 22.1943 27.6311 21.002 26.7521 20.1229C25.873 19.2439 24.6807 18.75 23.4375 18.75H10.3125C9.0693 18.75 7.87701 19.2439 6.99794 20.1229C6.11886 21.002 5.625 22.1943 5.625 23.4375C5.625 24.6807 6.11886 25.873 6.99794 26.7521C7.87701 27.6311 9.0693 28.125 10.3125 28.125H23.4375C24.6807 28.125 25.873 27.6311 26.7521 26.7521C27.6311 25.873 28.125 24.6807 28.125 23.4375Z" fill="#36C5F0"/>
</svg>
