<svg width="60" height="60" viewBox="0 0 60 60" fill="none" xmlns="http://www.w3.org/2000/svg">
<path d="M30 56.25C44.4975 56.25 56.25 44.4975 56.25 30C56.25 15.5025 44.4975 3.75 30 3.75C15.5025 3.75 3.75 15.5025 3.75 30C3.75 44.4975 15.5025 56.25 30 56.25Z" fill="#0F287F"/>
<path fill-rule="evenodd" clip-rule="evenodd" d="M20.625 15L11.25 20.625L20.625 26.25L11.25 31.875L20.625 37.5L30 31.875L39.375 37.5L48.75 31.875L39.375 26.25L48.75 20.625L39.375 15L30 20.625L20.625 15ZM30 20.625L39.375 26.25L30 31.875L20.625 26.25L30 20.625Z" fill="#DAF8FE"/>
<path d="M20.625 41.25L30 35.625L39.375 41.25L30 46.875L20.625 41.25Z" fill="#DAF8FE"/>
</svg>
