<svg width="60" height="60" viewBox="0 0 60 60" fill="none" xmlns="http://www.w3.org/2000/svg">
<path d="M35.541 35.5523C31.9575 36.8939 28.0098 36.8944 24.426 35.5538C23.084 31.9731 23.0832 28.0276 24.4237 24.4463C28.0079 23.1038 31.9568 23.1038 35.541 24.4463C36.8823 28.0271 36.8823 31.9716 35.541 35.5523ZM55.8847 25.6246H40.5525L51.3937 14.7893C49.6882 12.3968 47.5954 10.3057 45.2017 8.60182L34.3597 19.4378V4.11457C31.4617 3.62848 28.503 3.62848 25.605 4.11457V19.4371L14.763 8.60257C12.3696 10.3065 10.277 12.3974 8.57098 14.7893L19.4137 25.6246H4.08148C3.70273 28.6021 3.58048 31.4018 4.08148 34.3741H19.4145L8.57098 45.2093C10.2767 47.6014 12.3691 49.6926 14.7622 51.3968L25.605 40.5608V55.8848C28.4992 56.3693 31.4655 56.3693 34.3597 55.8848V40.5608L45.2025 51.3968C47.5956 49.6925 49.688 47.6014 51.3937 45.2093L40.551 34.3741H55.8847C56.3713 31.4779 56.3713 28.5208 55.8847 25.6246Z" fill="#FF4A00"/>
</svg>
