<svg width="60" height="60" viewBox="0 0 60 60" fill="none" xmlns="http://www.w3.org/2000/svg">
<path d="M3.75 21.75C3.75 15.45 3.75 12.2992 4.97625 9.8925C6.05481 7.77577 7.77577 6.05481 9.8925 4.97625C12.3 3.75 15.45 3.75 21.75 3.75H38.25C44.55 3.75 47.7007 3.75 50.1075 4.97625C52.2242 6.05481 53.9452 7.77577 55.0238 9.8925C56.25 12.3 56.25 15.45 56.25 21.75V38.25C56.25 44.55 56.25 47.7007 55.0238 50.1075C53.9452 52.2242 52.2242 53.9452 50.1075 55.0238C47.7 56.25 44.55 56.25 38.25 56.25H21.75C15.45 56.25 12.2992 56.25 9.8925 55.0238C7.77577 53.9452 6.05481 52.2242 4.97625 50.1075C3.75 47.7 3.75 44.55 3.75 38.25V21.75Z" fill="url(#paint0_linear_44012_369)"/>
<path d="M45.516 18.8002C42.678 16.4002 39.2715 15.2002 35.676 15L35.109 15.6C38.3258 16.4002 41.1637 18 43.8128 20.1998C40.596 18.3998 37.0013 17.1997 33.2168 16.8C32.0813 16.5997 31.1355 16.5997 30 16.5997C28.8645 16.5997 27.9187 16.5997 26.7832 16.8C22.9987 17.1997 19.4032 18.3998 16.1873 20.1998C18.8363 18 21.6742 16.4002 24.891 15.6L24.3232 15C20.7285 15.2002 17.322 16.4002 14.4833 18.8002C11.2673 25.2 9.564 32.4 9.375 39.8003C12.213 42.9998 16.1872 45 20.3497 45C20.3497 45 21.6742 43.4002 22.6207 42C20.1607 41.4 17.8897 39.9998 16.3762 37.8C17.7007 38.6003 19.0252 39.3997 20.3497 39.9998C22.0522 40.8 23.7555 41.1997 25.4587 41.6003C26.9722 41.7997 28.4865 42 30 42C31.5135 42 33.0278 41.7997 34.5413 41.6003C36.2437 41.1997 37.947 40.8 39.6502 39.9998C40.9748 39.3997 42.2993 38.6003 43.6237 37.8C42.1103 39.9998 39.8393 41.4 37.38 42C38.325 43.4002 39.6502 45 39.6502 45C43.8128 45 47.787 42.9998 50.625 39.8003C50.436 32.4 48.7327 25.2 45.516 18.8002ZM23.7555 36.2002C21.8632 36.2002 20.1608 34.4002 20.1608 32.1997C20.1608 30 21.8632 28.2 23.7555 28.2C25.6477 28.2 27.351 30 27.351 32.1997C27.351 34.4002 25.6485 36.2002 23.7555 36.2002ZM36.2445 36.2002C34.3523 36.2002 32.649 34.4002 32.649 32.1997C32.649 30 34.3515 28.2 36.2445 28.2C38.1367 28.2 39.8392 30 39.8392 32.1997C39.8392 34.4002 38.1367 36.2002 36.2445 36.2002Z" fill="white"/>
<defs>
<linearGradient id="paint0_linear_44012_369" x1="30" y1="3.75" x2="30" y2="56.25" gradientUnits="userSpaceOnUse">
<stop stop-color="#687EC9"/>
<stop offset="1" stop-color="#5971C3"/>
</linearGradient>
</defs>
</svg>
