<svg width="60" height="60" viewBox="0 0 60 60" fill="none" xmlns="http://www.w3.org/2000/svg">
<path d="M30 3.75C15.5212 3.75 3.75 15.5212 3.75 30C3.75 44.4788 15.5212 56.25 30 56.25C44.4788 56.25 56.25 44.4788 56.25 30C56.25 15.5212 44.4788 3.75 30 3.75Z" fill="#FDDD4C"/>
<path d="M18.5028 36.8456C17.929 35.9771 19.3728 34.6616 18.7855 33.5576C18.4465 32.9201 17.893 32.5233 17.2293 32.4401C16.5918 32.3606 15.9348 32.5938 15.5155 33.0498C14.8548 33.7698 14.752 34.7486 14.8795 35.0951C14.9268 35.2226 14.9995 35.2571 15.0528 35.2646C15.4128 35.3118 15.6153 34.3871 15.7398 34.1951C16.0833 33.6648 16.864 33.5043 17.4033 33.8531C18.4248 34.5138 17.5383 35.5826 17.6155 36.4849C17.6898 37.3631 18.2373 37.7163 18.7285 37.7531C19.2063 37.7718 19.5408 37.5056 19.6255 37.3121C19.828 36.8494 18.9753 37.5611 18.5028 36.8456ZM39.8568 28.8694C39.5694 28.8327 39.2786 28.8327 38.9913 28.8694C38.7595 28.5769 38.5525 28.1044 38.4355 27.5524C38.227 26.5706 38.2488 25.8596 38.83 25.7673C39.4105 25.6743 39.6918 26.2684 39.8995 27.2501C40.039 27.9101 40.012 28.5169 39.8568 28.8694ZM33.4945 29.4529C33.5178 29.6756 33.526 29.9006 33.5193 30.1076C34.0818 30.1406 34.4793 30.4076 34.5858 30.5771C34.6398 30.6641 34.618 30.7211 34.6008 30.7473C34.5423 30.8381 34.4178 30.8238 34.1568 30.7946C33.9151 30.7633 33.6713 30.7513 33.4278 30.7586C33.2883 31.1846 32.8765 31.2243 32.5878 30.9086C32.3853 30.9708 31.9878 31.2243 31.8693 30.9491C31.8685 30.8119 32.0118 30.6131 32.2705 30.4376C32.096 30.1003 31.9729 29.7388 31.9053 29.3651C31.5378 29.4319 31.2078 29.5346 30.9483 29.6149C30.8268 29.6531 30.346 29.8699 30.2898 29.6254C30.2523 29.4566 30.5148 29.1776 30.7938 28.9766C31.0997 28.7592 31.4432 28.6002 31.807 28.5078C31.7995 27.9753 31.9353 27.6041 32.3223 27.5426C32.8023 27.4661 33.0993 27.8351 33.3048 28.5191C33.8845 28.6803 34.4635 29.0801 34.7193 29.4926C34.819 29.6531 34.8378 29.7768 34.774 29.8413C34.6128 30.0078 33.7233 29.5256 33.4945 29.4529ZM37.3068 31.8468C37.6743 32.0246 38.0793 31.9548 38.2113 31.6893C38.3433 31.4246 38.1513 31.0661 37.7838 30.8876C37.4163 30.7098 37.0113 30.7796 36.88 31.0451C36.748 31.3091 36.9385 31.6676 37.3068 31.8468ZM39.1173 30.5314C39.124 30.1264 39.3723 29.8031 39.6708 29.8076C39.9693 29.8136 40.2055 30.1451 40.1988 30.5501C40.192 30.9536 39.9438 31.2776 39.6453 31.2723C39.3468 31.2671 39.1105 30.9356 39.1173 30.5314Z" fill="black"/>
<path fill-rule="evenodd" clip-rule="evenodd" d="M47.2098 35.49C47.2075 35.4825 47.2158 35.511 47.2098 35.49C47.8098 35.49 48.7503 36.1702 48.7503 37.8127C48.7503 39.447 48.0633 41.298 47.9013 41.709C45.4263 47.5635 39.52 50.8215 32.4843 50.616C25.9255 50.4232 20.3313 47.007 17.8833 41.4375C16.4028 41.439 14.8773 40.7962 13.717 39.7815C12.4945 38.7127 11.74 37.329 11.593 35.886C11.479 34.7625 11.6185 33.717 11.9755 32.8057L10.6 31.656C4.30828 26.412 23.9875 4.82172 30.28 10.2405C30.3123 10.2675 32.4213 12.3105 32.4265 12.315C35.461 11.0437 43.5918 8.62197 43.6015 14.259C43.6045 16.131 42.3955 18.3142 40.459 20.2942C42.697 22.3432 42.1068 25.2532 42.4638 27.9232L43.2408 28.1362C44.7228 28.5465 45.7765 29.0932 46.2925 29.628C46.8078 30.162 47.0635 30.6787 47.1565 31.2855C47.2435 31.7745 47.2315 32.6385 46.5783 33.6045C46.813 34.227 47.0283 34.8495 47.2098 35.49ZM17.7723 39.9187C17.992 39.924 18.2103 39.9097 18.424 39.8737C20.7235 39.4867 21.325 37.0215 20.9463 34.6012C20.5188 31.8675 18.6453 30.9037 17.374 30.8362C17.055 30.8194 16.7352 30.8416 16.4215 30.9022C14.152 31.3537 12.871 33.2595 13.1238 35.7345C13.3518 37.974 15.6468 39.8625 17.7723 39.9195V39.9187ZM12.6333 31.575C13.3945 30.483 14.6388 29.694 16.051 29.4225C17.8488 24.6585 20.851 20.2695 24.8245 17.25C27.7728 14.8215 30.9535 13.08 30.9535 13.08C30.9535 13.08 29.2405 11.1195 28.723 10.9755C25.5415 10.128 18.67 14.805 14.2818 20.9857C12.5065 23.4862 9.96478 27.9157 11.1805 30.1927C11.3305 30.4747 12.178 31.2 12.6333 31.575ZM38.4295 38.826C38.4315 38.8514 38.4255 38.8767 38.4125 38.8986C38.3995 38.9205 38.38 38.9378 38.3568 38.9482C38.3568 38.9482 35.7993 40.1227 31.7388 38.883C31.885 40.0995 33.361 40.5615 34.3923 40.728C39.4248 41.583 44.1295 38.7427 45.1885 38.0272C45.37 37.9042 45.1863 38.22 45.1533 38.2665C43.8565 39.9165 40.3713 41.829 35.8375 41.8275C33.8598 41.8275 31.8835 41.1397 31.1575 40.083C30.0325 38.4435 31.102 36.0502 32.9785 36.2992C36.1503 36.6532 39.4015 36.3877 42.337 35.0422C44.8975 33.8692 45.8643 32.5785 45.7195 31.5337C45.493 29.9137 43.0915 29.6602 41.8773 29.2665C41.3493 29.094 41.089 28.956 41.0298 27.975C41.0035 27.5475 40.9285 26.0527 40.9008 25.4355C40.852 24.3532 40.7208 22.8742 39.7908 22.2637C39.5532 22.1102 39.2785 22.0236 38.9958 22.0132C38.8374 22.0024 38.6783 22.0176 38.5248 22.0582C38.0223 22.143 37.7148 22.3965 37.3525 22.6957L37.2895 22.7482C36.13 23.7015 35.152 23.8582 34.0623 23.8117C33.7233 23.7967 33.3738 23.7637 33.0048 23.7277C32.6658 23.6947 32.3103 23.6602 31.9323 23.6377L31.4695 23.6122C29.6463 23.5192 27.6903 25.074 27.3655 27.2812C27.0018 29.7457 28.3795 31.2547 29.275 32.2365C29.4963 32.4795 29.6883 32.6895 29.8173 32.874C29.8998 32.9857 29.9965 33.1425 29.9965 33.2917C29.9965 33.4695 29.8795 33.6105 29.7648 33.7312C27.9048 35.6197 27.3093 38.6205 28.0098 41.121C28.0983 41.433 28.2093 41.7315 28.3405 42.0165C29.9853 45.8115 35.089 47.5777 40.0735 45.9712C43.567 44.8447 46.6533 42.123 47.2818 38.3677C47.4318 37.3897 47.2113 37.0117 46.9128 36.8295C46.5955 36.6367 46.216 36.7035 46.216 36.7035C46.216 36.7035 46.0435 35.535 45.553 34.4722C44.1003 35.6047 42.2298 36.3997 40.8055 36.8025C38.5233 37.449 36.0588 37.7002 33.7008 37.3957C32.7445 37.272 32.1018 37.1895 31.8265 38.0722C34.972 39.2092 38.3005 38.7225 38.3005 38.7225C38.3314 38.7191 38.3623 38.7281 38.3865 38.7475C38.4106 38.7669 38.4261 38.7951 38.4295 38.826ZM29.3545 16.7647C27.6348 17.6332 25.7148 19.1797 24.1548 20.9595C24.1 21.0232 24.1818 21.1102 24.2493 21.0615C25.597 20.094 27.4443 19.1947 29.863 18.6127C32.5735 17.9602 35.1828 18.234 36.7765 18.594C36.8575 18.6127 36.907 18.4762 36.8365 18.4365C35.7835 17.8537 34.1665 17.4577 33.0198 17.4495C33.0071 17.4492 32.9947 17.4455 32.984 17.4387C32.9733 17.4319 32.9647 17.4222 32.9591 17.4108C32.9535 17.3994 32.9512 17.3867 32.9524 17.3741C32.9536 17.3615 32.9582 17.3494 32.9658 17.3392C33.173 17.0719 33.4143 16.8329 33.6835 16.6282C33.739 16.5855 33.706 16.497 33.6355 16.5007C32.209 16.5877 28.951 18.0735 28.963 18.0195C29.0455 17.6235 29.3095 17.1 29.4453 16.8562C29.4783 16.7985 29.4138 16.7347 29.3545 16.7647Z" fill="black"/>
</svg>
