<svg width="54" height="54" viewBox="0 0 54 54" fill="none" xmlns="http://www.w3.org/2000/svg">
<g clip-path="url(#clip0_44012_568)">
<path d="M53.2519 27.2818C53.2519 41.98 41.3373 53.9005 26.645 53.9005C11.9537 53.9005 0.0390625 41.9808 0.0390625 27.281C0.0390625 12.5837 11.9528 0.664062 26.645 0.664062C41.3373 0.664062 53.2519 12.5837 53.2519 27.2818Z" fill="#CA2127"/>
<path d="M24.0015 9.67674C16.595 10.4766 9.21898 16.2116 8.9186 24.4213C8.72454 29.4323 10.8086 33.1904 15.7859 34.2467C16.3554 31.8766 16.4609 30.5941 16.4609 30.5941C16.4609 30.5941 14.2714 28.4814 14.0461 27.1381C12.2177 16.3322 27.0449 8.95196 34.8259 16.4985C40.1939 21.7348 36.6552 37.8386 27.9899 36.1629C19.684 34.5631 32.0525 21.75 25.4257 19.2297C20.0434 17.1768 17.1798 25.4928 19.7287 29.6129C18.2294 36.7063 15.0063 43.3921 16.3107 52.2819C20.5531 49.3389 21.9773 43.6942 23.1468 37.8082C25.2755 39.046 26.4154 40.3437 29.1289 40.5394C39.1443 41.2794 44.7366 30.9561 43.3714 21.4184C42.1429 12.9665 33.357 8.66508 24.0015 9.67674Z" fill="white"/>
</g>
<defs>
<clipPath id="clip0_44012_568">
<rect width="54" height="54" fill="white"/>
</clipPath>
</defs>
</svg>
