<svg width="60" height="60" viewBox="0 0 60 60" fill="none" xmlns="http://www.w3.org/2000/svg">
<path d="M30 56.25C44.4975 56.25 56.25 44.4975 56.25 30C56.25 15.5025 44.4975 3.75 30 3.75C15.5025 3.75 3.75 15.5025 3.75 30C3.75 44.4975 15.5025 56.25 30 56.25Z" fill="#FF3366"/>
<path d="M21.2988 20.3594C22.169 20.3594 23.0036 20.0137 23.619 19.3983C24.2343 18.783 24.58 17.9484 24.58 17.0781C24.58 16.2079 24.2343 15.3733 23.619 14.7579C23.0036 14.1426 22.169 13.7969 21.2988 13.7969C20.4285 13.7969 19.5939 14.1426 18.9786 14.7579C18.3632 15.3733 18.0175 16.2079 18.0175 17.0781C18.0175 17.9484 18.3632 18.783 18.9786 19.3983C19.5939 20.0137 20.4285 20.3594 21.2988 20.3594ZM14.4438 23.1719L13.3008 27.3614H17.0508C16.2993 30.4184 14.725 36.8481 14.4438 38.1134C14.092 39.6959 14.0335 44.2071 18.7795 44.2071C22.0923 44.2071 24.205 42.0674 25.384 40.3199L24.4923 43.8854H29.8248L32.6073 32.6204C33.0033 30.7454 33.9348 27.1274 37.2948 27.1274C41.2923 27.1274 39.826 31.8606 39.1075 34.1804L39.0235 34.4511C38.485 36.2091 37.9105 38.2604 37.9105 39.6666C37.9105 41.2484 38.6425 44.2071 42.7443 44.2071C46.846 44.2071 48.5943 40.1451 48.955 38.1134L46.8753 37.2636C46.729 38.3481 45.4105 40.6911 44.1798 40.6911C42.4953 40.6911 43.342 37.8516 44.245 34.8209C44.6448 33.4769 45.0565 32.0946 45.2643 30.9059C45.7878 27.9021 45.2643 22.7909 40.0488 22.7909C36.8103 22.7909 34.2663 25.6776 33.0573 27.6809L34.0728 23.1719H25.9578L24.844 27.3614H28.624C28.624 27.3614 26.3808 36.5016 26.236 36.7881C24.712 39.7979 22.408 40.8081 20.6838 40.6919C19.3008 40.5981 19.4635 38.9339 19.717 38.1134L23.467 23.1719H14.4438Z" fill="white"/>
</svg>
