<svg width="60" height="60" viewBox="0 0 60 60" fill="none" xmlns="http://www.w3.org/2000/svg">
<path d="M30 56.25C44.4975 56.25 56.25 44.4975 56.25 30C56.25 15.5025 44.4975 3.75 30 3.75C15.5025 3.75 3.75 15.5025 3.75 30C3.75 44.4975 15.5025 56.25 30 56.25Z" fill="#00A82D"/>
<path d="M23.8125 20.7075C23.8125 21.0443 23.7855 21.6038 23.4578 21.9675C23.103 22.3035 22.5577 22.3312 22.23 22.3312C20.388 22.3312 17.8335 21.8685 16.0912 22.5833C18.75 17.8125 23.9003 14.6423 23.8673 14.916C23.622 16.8038 23.8125 18.8085 23.8125 20.7075ZM29.3235 42.3667C29.3235 40.044 31.179 38.1413 33.471 38.1413C34.1535 38.1413 34.6987 38.7008 34.6987 39.4005C34.6987 39.876 34.4528 40.2682 34.071 40.4917C33.6548 40.7475 33.0788 40.6283 32.7068 40.9673C32.4338 41.1915 32.2155 41.5553 32.2155 41.9468C32.2155 42.3668 32.3797 42.7582 32.652 43.038C32.8924 43.2871 33.1807 43.4849 33.4996 43.6196C33.8185 43.7543 34.1613 43.8231 34.5075 43.8218C36.363 43.8218 37.8638 42.2828 37.8638 40.3792C37.8638 38.673 36.7447 37.1617 35.2717 36.4905C33.0352 35.343 29.6145 35.9955 29.3512 32.4045C28.941 34.3043 28.0365 37.6935 25.5863 37.6935C18.1838 38.1442 15.516 32.1488 15 25.8008C15 24.4298 15.8183 23.5058 16.8555 23.3663H22.4205C23.376 23.3663 23.922 23.115 24.276 22.779C24.7402 22.3313 24.849 21.6877 24.849 20.9318V15.0278C24.849 13.8398 25.8863 13.125 27.2228 13.125C28.0103 13.125 28.7498 13.1527 29.5148 13.3492C31.179 13.7692 31.5337 15.5032 31.5337 15.5032C31.5337 15.5032 34.671 16.0635 36.2535 16.3433C37.7543 16.623 41.4645 16.875 42.174 20.7083C43.839 29.8305 42.8287 38.673 42.747 38.673C41.574 47.2912 34.59 46.872 34.59 46.872C32.0512 46.872 29.325 45.1395 29.325 42.3667H29.3235ZM37.509 27.5077C36.609 27.4237 35.844 27.7875 35.5718 28.4873C35.1848 29.4788 39.1732 30.303 39.1732 28.935C39.0637 28.1513 38.4097 27.6202 37.509 27.5077Z" fill="white"/>
</svg>
